<svg width="42" height="30" viewBox="0 0 42 30" fill="none" xmlns="http://www.w3.org/2000/svg">
<mask id="path-1-inside-1_2187_23611" fill="white">
<path fill-rule="evenodd" clip-rule="evenodd" d="M33.6593 3.85629C31.2217 3.85629 29.2457 5.82856 29.2457 8.26147V13.2416H33.3713C35.9679 13.2416 38.073 11.1406 38.073 8.54896V8.26147C38.073 5.82856 36.0969 3.85629 33.6593 3.85629ZM29.2457 17.0979L33.3713 17.0979C38.1018 17.0979 41.9367 13.2704 41.9367 8.54896V8.26147C41.9367 3.69878 38.2308 0 33.6593 0C29.0879 0 25.382 3.69879 25.382 8.26147V13.2416H21.8558C18.655 13.2416 16.0602 10.6518 16.0602 7.45719V0.22263L0 0.22263L0 10.7186C0 21.3674 8.64919 30 19.3185 30H29.2457V17.0979ZM25.382 17.0979H21.8558C16.5211 17.0979 12.1965 12.7816 12.1965 7.45719V4.07892L3.8637 4.07892V10.7186C3.8637 19.2376 10.7831 26.1437 19.3185 26.1437H25.382V17.0979Z"/>
</mask>
<path fill-rule="evenodd" clip-rule="evenodd" d="M33.6593 3.85629C31.2217 3.85629 29.2457 5.82856 29.2457 8.26147V13.2416H33.3713C35.9679 13.2416 38.073 11.1406 38.073 8.54896V8.26147C38.073 5.82856 36.0969 3.85629 33.6593 3.85629ZM29.2457 17.0979L33.3713 17.0979C38.1018 17.0979 41.9367 13.2704 41.9367 8.54896V8.26147C41.9367 3.69878 38.2308 0 33.6593 0C29.0879 0 25.382 3.69879 25.382 8.26147V13.2416H21.8558C18.655 13.2416 16.0602 10.6518 16.0602 7.45719V0.22263L0 0.22263L0 10.7186C0 21.3674 8.64919 30 19.3185 30H29.2457V17.0979ZM25.382 17.0979H21.8558C16.5211 17.0979 12.1965 12.7816 12.1965 7.45719V4.07892L3.8637 4.07892V10.7186C3.8637 19.2376 10.7831 26.1437 19.3185 26.1437H25.382V17.0979Z" fill="#F2C84B"/>
<path d="M29.2457 13.2416H25.2457V17.2416H29.2457V13.2416ZM29.2457 17.0979V13.0979H25.2457V17.0979H29.2457ZM25.382 13.2416V17.2416H29.382V13.2416H25.382ZM16.0602 0.22263L20.0602 0.22263V-3.77737H16.0602V0.22263ZM0 0.22263L0 -3.77737H-4V0.22263L0 0.22263ZM29.2457 30L29.2457 34H33.2457V30L29.2457 30ZM25.382 17.0979H29.382V13.0979H25.382V17.0979ZM12.1965 4.07892H16.1965V0.0789193L12.1965 0.0789193V4.07892ZM3.8637 4.07892L3.8637 0.0789193L-0.1363 0.0789193L-0.1363 4.07892H3.8637ZM25.382 26.1437V30.1437H29.382V26.1437H25.382ZM33.2457 8.26147C33.2457 8.04493 33.4236 7.85629 33.6593 7.85629V-0.14371C29.0198 -0.14371 25.2457 3.61218 25.2457 8.26147H33.2457ZM33.2457 13.2416V8.26147H25.2457V13.2416H33.2457ZM33.3713 9.24162H29.2457V17.2416L33.3713 17.2416V9.24162ZM34.073 8.54896C34.073 8.92427 33.766 9.24162 33.3713 9.24162V17.2416C38.1698 17.2416 42.073 13.357 42.073 8.54896H34.073ZM34.073 8.26147V8.54896H42.073V8.26147H34.073ZM33.6593 7.85629C33.895 7.85629 34.073 8.04493 34.073 8.26147H42.073C42.073 3.61218 38.2988 -0.14371 33.6593 -0.14371V7.85629ZM29.2457 21.0979L33.3713 21.0979V13.0979H29.2457V21.0979ZM33.3713 21.0979C40.3037 21.0979 45.9367 15.4868 45.9367 8.54896H37.9367C37.9367 11.054 35.8999 13.0979 33.3713 13.0979V21.0979ZM45.9367 8.54896V8.26147H37.9367V8.54896H45.9367ZM45.9367 8.26147C45.9367 1.48241 40.4327 -4 33.6593 -4V4C36.0289 4 37.9367 5.91516 37.9367 8.26147H45.9367ZM33.6593 -4C26.886 -4 21.382 1.48242 21.382 8.26147H29.382C29.382 5.91516 31.2898 4 33.6593 4V-4ZM21.382 8.26147V13.2416H29.382V8.26147H21.382ZM25.382 9.24162H21.8558V17.2416H25.382V9.24162ZM21.8558 9.24162C20.8569 9.24162 20.0602 8.43546 20.0602 7.45719H12.0602C12.0602 12.8682 16.4531 17.2416 21.8558 17.2416V9.24162ZM-4 10.7186C-4 23.5838 6.4473 34 19.3185 34L19.3185 26C10.8511 26 4 19.151 4 10.7186H-4ZM21.8558 21.0979H25.382V13.0979H21.8558V21.0979ZM8.19653 7.45719C8.19653 14.998 14.3192 21.0979 21.8558 21.0979V13.0979C18.723 13.0979 16.1965 10.5652 16.1965 7.45719H8.19653ZM8.19653 4.07892V7.45719H16.1965V4.07892H8.19653ZM3.8637 8.07892H12.1965V0.0789193L3.8637 0.0789193L3.8637 8.07892ZM7.8637 10.7186L7.8637 4.07892H-0.1363L-0.1363 10.7186H7.8637ZM19.3185 22.1437C12.9849 22.1437 7.8637 17.0213 7.8637 10.7186H-0.1363C-0.1363 21.454 8.58116 30.1437 19.3185 30.1437V22.1437ZM25.382 22.1437H19.3185V30.1437H25.382V22.1437ZM21.382 17.0979V26.1437H29.382V17.0979H21.382ZM20.0602 7.45719V0.22263L12.0602 0.22263V7.45719H20.0602ZM16.0602 -3.77737L0 -3.77737L0 4.22263L16.0602 4.22263V-3.77737ZM-4 0.22263L-4 10.7186H4L4 0.22263L-4 0.22263ZM19.3185 34H29.2457L29.2457 26H19.3185L19.3185 34ZM33.2457 30V17.0979L25.2457 17.0979V30L33.2457 30Z" fill="#F2C84B" mask="url(#path-1-inside-1_2187_23611)"/>
</svg>
