<svg width="80" height="24" viewBox="0 0 80 24" fill="none" xmlns="http://www.w3.org/2000/svg">
<path fill-rule="evenodd" clip-rule="evenodd" d="M10.37 7.54587C9.77312 7.54587 9.28479 7.04367 9.28479 6.42988V1.44253C9.28479 0.828733 9.77312 0.326538 10.37 0.326538H26.5999C27.1967 0.326538 27.6851 0.828733 27.6851 1.44253V6.42988C27.6851 7.04367 27.1967 7.54587 26.5999 7.54587H23.1892C22.5923 7.54587 22.104 8.04806 22.104 8.66186V22.884C22.104 23.4978 21.6157 24 21.0188 24H16.1692C15.5723 24 15.084 23.4978 15.084 22.884V8.66186C15.084 8.04806 14.5956 7.54587 13.9988 7.54587H10.37ZM1.08518 0.389033H5.93483C6.53416 0.389033 7.02001 0.888678 7.02001 1.50502V22.884C7.02001 23.5004 6.53416 24 5.93483 24H1.08518C0.48585 24 0 23.5004 0 22.884V1.50502C0 0.888678 0.48585 0.389033 1.08518 0.389033ZM49.9203 0.33993C50.5172 0.33993 50.7548 0.771818 50.4477 1.29745L42.0094 15.7741C41.7023 16.3008 41.9399 16.7316 42.5368 16.7316H50.5823C51.1791 16.7316 51.6675 17.2338 51.6675 17.8476V22.8349C51.6675 23.4487 51.1791 23.9509 50.5823 23.9498L30.1516 23.9386C29.5548 23.9386 29.3171 23.5079 29.6243 22.9811L38.0637 8.50227C38.3708 7.97553 38.1331 7.54475 37.5363 7.54475H31.2043C30.6074 7.54475 30.1191 7.04256 30.1191 6.42876V1.44253C30.1202 0.828733 30.6085 0.326538 31.2054 0.326538L49.9203 0.338814V0.33993ZM79.3395 24C79.9363 24 80.1729 23.5692 79.8647 23.0436H79.8658L67.2094 1.41909C66.9012 0.892345 66.3977 0.892345 66.0906 1.41909L53.5296 22.9309C53.2225 23.4565 53.4591 23.8873 54.0559 23.8873H60.1134C60.7103 23.8873 61.4493 23.4565 61.7553 22.9298L66.0884 15.4817C66.3955 14.9549 66.8969 14.9549 67.2039 15.4817L71.6109 23.0425C71.918 23.5692 72.657 24 73.2538 24H79.3395Z" fill="white"/>
</svg>
