<svg width="322" height="70" viewBox="0 0 322 70" fill="none" xmlns="http://www.w3.org/2000/svg">
<path d="M154.997 68.16C154.357 68.16 153.845 67.968 153.461 67.584C153.077 67.2 152.885 66.688 152.885 66.048V3.168C152.885 2.464 153.077 1.92 153.461 1.536C153.845 1.152 154.357 0.959999 154.997 0.959999H178.326C182.806 0.959999 186.677 1.728 189.941 3.264C193.269 4.736 195.829 6.944 197.621 9.888C199.478 12.832 200.406 16.48 200.406 20.832C200.406 25.184 199.478 28.832 197.621 31.776C195.829 34.72 193.269 36.96 189.941 38.496C186.677 39.968 182.806 40.704 178.326 40.704H158.933V66.048C158.933 66.688 158.741 67.2 158.357 67.584C157.973 67.968 157.429 68.16 156.725 68.16H154.997ZM158.933 34.944H177.845C183.413 34.944 187.542 33.728 190.229 31.296C192.982 28.864 194.357 25.376 194.357 20.832C194.357 16.288 192.982 12.8 190.229 10.368C187.542 7.936 183.413 6.72 177.845 6.72H158.933V34.944Z" fill="white"/>
<path d="M233.327 69.12C228.143 69.12 223.727 68.288 220.079 66.624C216.495 64.96 213.743 62.816 211.823 60.192C209.903 57.568 208.879 54.784 208.751 51.84C208.751 51.328 208.943 50.88 209.327 50.496C209.711 50.112 210.191 49.92 210.767 49.92H212.687C213.327 49.92 213.807 50.112 214.127 50.496C214.511 50.88 214.735 51.328 214.799 51.84C215.055 53.632 215.855 55.424 217.199 57.216C218.543 58.944 220.527 60.416 223.151 61.632C225.775 62.784 229.167 63.36 233.327 63.36C239.599 63.36 244.175 62.24 247.055 60C249.935 57.696 251.375 54.624 251.375 50.784C251.375 48.224 250.607 46.176 249.071 44.64C247.599 43.04 245.327 41.632 242.255 40.416C239.183 39.136 235.247 37.728 230.447 36.192C225.903 34.72 222.159 33.216 219.215 31.68C216.271 30.08 214.095 28.16 212.687 25.92C211.343 23.68 210.671 20.8 210.671 17.28C210.671 14.016 211.535 11.104 213.263 8.544C214.991 5.92 217.487 3.84 220.751 2.304C224.079 0.768 228.111 0 232.847 0C236.623 0 239.919 0.512001 242.735 1.536C245.551 2.56 247.887 3.936 249.743 5.664C251.599 7.328 253.007 9.152 253.967 11.136C254.927 13.056 255.439 14.944 255.503 16.8C255.503 17.248 255.343 17.696 255.023 18.144C254.703 18.528 254.191 18.72 253.487 18.72H251.567C251.247 18.72 250.831 18.592 250.319 18.336C249.871 18.08 249.583 17.568 249.455 16.8C249.071 13.6 247.375 10.976 244.367 8.928C241.423 6.816 237.583 5.76 232.847 5.76C228.111 5.76 224.239 6.688 221.231 8.544C218.223 10.4 216.719 13.312 216.719 17.28C216.719 19.84 217.391 21.952 218.735 23.616C220.079 25.216 222.191 26.656 225.071 27.936C227.951 29.152 231.663 30.496 236.207 31.968C241.007 33.504 244.975 35.04 248.111 36.576C251.247 38.112 253.583 40 255.119 42.24C256.655 44.416 257.423 47.264 257.423 50.784C257.423 54.688 256.431 58.016 254.447 60.768C252.527 63.456 249.775 65.536 246.191 67.008C242.607 68.416 238.319 69.12 233.327 69.12Z" fill="white"/>
<path d="M265.554 68.16C265.042 68.16 264.594 67.968 264.21 67.584C263.826 67.2 263.634 66.752 263.634 66.24C263.634 65.92 263.698 65.568 263.826 65.184L288.114 2.88C288.37 2.24 288.69 1.76 289.074 1.44C289.522 1.12 290.13 0.959999 290.898 0.959999H294.162C294.93 0.959999 295.506 1.12 295.89 1.44C296.338 1.76 296.69 2.24 296.946 2.88L321.234 65.184C321.362 65.568 321.426 65.92 321.426 66.24C321.426 66.752 321.234 67.2 320.85 67.584C320.466 67.968 320.018 68.16 319.506 68.16H317.586C316.946 68.16 316.466 68 316.146 67.68C315.826 67.296 315.602 66.976 315.474 66.72L309.522 51.36H275.538L269.586 66.72C269.522 66.976 269.298 67.296 268.914 67.68C268.594 68 268.114 68.16 267.474 68.16H265.554ZM277.842 45.6H307.218L292.53 7.776L277.842 45.6Z" fill="white"/>
<path d="M3.65234 47.6759C10.8383 38.8168 26.962 21.0791 33.9697 21.0004C42.7294 20.9019 64.2863 40.2933 70.586 40.0965C76.8858 39.8996 88.0088 30.6469 94.5054 30.7453C99.7027 30.824 114.258 42.0651 120.886 47.6759" stroke="white" stroke-width="6" stroke-linecap="round"/>
</svg>
