<svg width="169" height="115" viewBox="0 0 169 115" fill="none" xmlns="http://www.w3.org/2000/svg">
<path d="M2.112 113.836C1.472 113.836 0.960001 113.644 0.576 113.26C0.192 112.876 0 112.364 0 111.724V48.8439C0 48.1399 0.192 47.5959 0.576 47.2119C0.960001 46.8279 1.472 46.6359 2.112 46.6359H25.44C29.92 46.6359 33.792 47.4039 37.056 48.9399C40.384 50.4119 42.944 52.6199 44.736 55.5639C46.592 58.5079 47.52 62.1559 47.52 66.5079C47.52 70.8599 46.592 74.5079 44.736 77.4519C42.944 80.3959 40.384 82.6359 37.056 84.1719C33.792 85.6439 29.92 86.3799 25.44 86.3799H6.048V111.724C6.048 112.364 5.856 112.876 5.472 113.26C5.088 113.644 4.544 113.836 3.84 113.836H2.112ZM6.048 80.6199H24.96C30.528 80.6199 34.656 79.4039 37.344 76.9719C40.096 74.5399 41.472 71.0519 41.472 66.5079C41.472 61.9639 40.096 58.4759 37.344 56.0439C34.656 53.6119 30.528 52.3959 24.96 52.3959H6.048V80.6199Z" fill="white"/>
<path d="M80.4413 114.796C75.2573 114.796 70.8413 113.964 67.1933 112.3C63.6093 110.636 60.8572 108.492 58.9372 105.868C57.0172 103.244 55.9932 100.46 55.8652 97.5159C55.8652 97.0039 56.0572 96.5559 56.4412 96.1719C56.8252 95.7879 57.3052 95.5959 57.8812 95.5959H59.8012C60.4412 95.5959 60.9212 95.7879 61.2412 96.1719C61.6252 96.5559 61.8492 97.0039 61.9132 97.5159C62.1692 99.3079 62.9692 101.1 64.3132 102.892C65.6572 104.62 67.6413 106.092 70.2653 107.308C72.8893 108.46 76.2812 109.036 80.4413 109.036C86.7133 109.036 91.2892 107.916 94.1693 105.676C97.0492 103.372 98.4893 100.3 98.4893 96.4599C98.4893 93.8999 97.7213 91.8519 96.1852 90.3159C94.7132 88.7159 92.4412 87.3079 89.3692 86.0919C86.2972 84.8119 82.3613 83.4039 77.5612 81.8679C73.0173 80.3959 69.2732 78.8919 66.3292 77.3559C63.3852 75.7559 61.2092 73.8359 59.8012 71.5959C58.4572 69.3559 57.7852 66.4759 57.7852 62.9559C57.7852 59.6919 58.6493 56.7799 60.3773 54.2199C62.1053 51.5959 64.6012 49.5159 67.8652 47.9799C71.1933 46.4439 75.2253 45.6759 79.9613 45.6759C83.7373 45.6759 87.0332 46.1879 89.8493 47.2119C92.6653 48.2359 95.0013 49.6119 96.8573 51.3399C98.7133 53.0039 100.121 54.8279 101.081 56.8119C102.041 58.7319 102.553 60.6199 102.617 62.4759C102.617 62.9239 102.457 63.3719 102.137 63.8199C101.817 64.2039 101.305 64.3959 100.601 64.3959H98.6813C98.3613 64.3959 97.9453 64.2679 97.4333 64.0119C96.9853 63.7559 96.6973 63.2439 96.5693 62.4759C96.1852 59.2759 94.4892 56.6519 91.4812 54.6039C88.5372 52.4919 84.6973 51.4359 79.9613 51.4359C75.2253 51.4359 71.3532 52.3639 68.3452 54.2199C65.3372 56.0759 63.8333 58.9879 63.8333 62.9559C63.8333 65.5159 64.5052 67.6279 65.8493 69.2919C67.1933 70.8919 69.3053 72.3319 72.1852 73.6119C75.0652 74.8279 78.7773 76.1719 83.3213 77.6439C88.1212 79.1799 92.0892 80.7159 95.2253 82.2519C98.3613 83.7879 100.697 85.6759 102.233 87.9159C103.769 90.0919 104.537 92.9399 104.537 96.4599C104.537 100.364 103.545 103.692 101.561 106.444C99.6413 109.132 96.8893 111.212 93.3053 112.684C89.7213 114.092 85.4333 114.796 80.4413 114.796Z" fill="white"/>
<path d="M112.669 113.836C112.157 113.836 111.709 113.644 111.325 113.26C110.941 112.876 110.749 112.428 110.749 111.916C110.749 111.596 110.813 111.244 110.941 110.86L135.229 48.5559C135.485 47.9159 135.805 47.4359 136.189 47.1159C136.637 46.7959 137.245 46.6359 138.013 46.6359H141.277C142.045 46.6359 142.621 46.7959 143.005 47.1159C143.453 47.4359 143.805 47.9159 144.061 48.5559L168.349 110.86C168.477 111.244 168.541 111.596 168.541 111.916C168.541 112.428 168.349 112.876 167.965 113.26C167.581 113.644 167.133 113.836 166.621 113.836H164.701C164.061 113.836 163.581 113.676 163.261 113.356C162.941 112.972 162.717 112.652 162.589 112.396L156.637 97.0359H122.653L116.701 112.396C116.637 112.652 116.413 112.972 116.029 113.356C115.709 113.676 115.229 113.836 114.589 113.836H112.669ZM124.957 91.2759H154.333L139.645 53.4519L124.957 91.2759Z" fill="white"/>
<path fill-rule="evenodd" clip-rule="evenodd" d="M58.7801 6.62213C57.4972 6.15851 56.5878 5.99362 56.0035 6.00018C55.7093 6.00349 55.1231 6.11487 54.1877 6.53855C53.2817 6.94897 52.2116 7.57708 50.9983 8.41978C48.5708 10.1059 45.801 12.4885 42.9514 15.2136C37.2627 20.6539 31.5212 27.2029 27.9823 31.5657C26.9386 32.8525 25.0493 33.0495 23.7626 32.0057C22.4758 30.962 22.2788 29.0727 23.3226 27.786C26.9696 23.2898 32.8829 16.5404 38.8045 10.8774C41.7601 8.05084 44.7843 5.43056 47.5755 3.49188C48.9716 2.52218 50.367 1.6824 51.712 1.07311C53.0279 0.477082 54.4784 0.0169394 55.9361 0.000560302C57.5417 -0.0174806 59.2221 0.402081 60.8194 0.979313C62.4469 1.56749 64.1733 2.38854 65.9209 3.32774C69.4088 5.20224 73.2279 7.68316 76.8558 10.0834C77.4099 10.45 77.9592 10.8144 78.5024 11.1749C81.5703 13.2104 84.4487 15.1203 86.9589 16.5955C88.4318 17.461 89.6963 18.1277 90.7313 18.5651C91.2457 18.7825 91.6614 18.9253 91.9858 19.0094C92.1454 19.0507 92.2685 19.0741 92.3586 19.0865C92.4029 19.0925 92.4362 19.0955 92.4592 19.0969C92.4824 19.0983 92.493 19.0979 92.4924 19.0979C93.4648 19.0676 94.9017 18.6542 96.8591 17.7927C98.6627 16.9988 100.615 15.9617 102.707 14.8509C102.826 14.7876 102.945 14.7241 103.065 14.6604C105.237 13.5074 107.554 12.2873 109.759 11.3682C111.913 10.4702 114.293 9.71143 116.551 9.74564C118.633 9.77719 121.083 10.8256 123.281 11.9778C125.629 13.2089 128.254 14.8712 130.86 16.6648C136.08 20.2576 141.457 24.5358 144.824 27.3861C146.089 28.4566 146.246 30.3496 145.175 31.6142C144.105 32.8788 142.212 33.0361 140.947 31.9656C137.686 29.2052 132.472 25.0575 127.458 21.6074C124.948 19.8796 122.544 18.3661 120.495 17.292C118.295 16.139 116.976 15.7528 116.46 15.745C115.47 15.73 114.023 16.0909 112.068 16.9062C110.162 17.7005 108.087 18.7874 105.879 19.9599C105.739 20.0338 105.6 20.1082 105.459 20.1828C103.429 21.2614 101.291 22.3975 99.2762 23.2843C97.1732 24.2099 94.8574 25.027 92.6798 25.095C91.2212 25.1406 89.7009 24.6435 88.3954 24.0917C87.0114 23.5068 85.4898 22.6915 83.919 21.7684C81.2543 20.2024 78.2131 18.1841 75.1556 16.155C74.6187 15.7987 74.0812 15.442 73.5451 15.0873C69.9013 12.6766 66.295 10.3404 63.0805 8.61286C61.4769 7.75104 60.0327 7.07481 58.7801 6.62213Z" fill="white"/>
</svg>
