<!-- <svg xmlns="http://www.w3.org/2000/svg" fill="none" viewBox="0 0 128 128">
    <path d="M50.4 78.5a75.1 75.1 0 0 0-28.5 6.9l24.2-65.7c.7-2 1.9-3.2 3.4-3.2h29c1.5 0 2.7 1.2 3.4 3.2l24.2 65.7s-11.6-7-28.5-7L67 45.5c-.4-1.7-1.6-2.8-2.9-2.8-1.3 0-2.5 1.1-2.9 2.7L50.4 78.5Zm-1.1 28.2Zm-4.2-20.2c-2 6.6-.6 15.8 4.2 20.2a17.5 17.5 0 0 1 .2-.7 5.5 5.5 0 0 1 5.7-4.5c2.8.1 4.3 1.5 4.7 4.7.2 1.1.2 2.3.2 3.5v.4c0 2.7.7 5.2 2.2 7.4a13 13 0 0 0 5.7 4.9v-.3l-.2-.3c-1.8-5.6-.5-9.5 4.4-12.8l1.5-1a73 73 0 0 0 3.2-2.2 16 16 0 0 0 6.8-11.4c.3-2 .1-4-.6-6l-.8.6-1.6 1a37 37 0 0 1-22.4 2.7c-5-.7-9.7-2-13.2-6.2Z" />
    <style>
        path { fill: #000; }
        @media (prefers-color-scheme: dark) {
            path { fill: #FFF; }
        }
    </style>
</svg> -->
<svg width="40" height="29" viewBox="0 0 40 29" fill="none" xmlns="http://www.w3.org/2000/svg">
<path fill-rule="evenodd" clip-rule="evenodd" d="M32.1049 3.72775C29.7799 3.72775 27.8951 5.63427 27.8951 7.98609V12.8002H31.8302C34.3069 12.8002 36.3147 10.7693 36.3147 8.26399V7.98608C36.3147 5.63427 34.4299 3.72775 32.1049 3.72775ZM27.8951 16.528H31.8302C36.3422 16.528 40 12.8281 40 8.26399V7.98608C40 3.57549 36.4652 0 32.1049 0C27.7446 0 24.2098 3.5755 24.2098 7.98609V12.8002H20.8465C17.7935 12.8002 15.3186 10.2968 15.3186 7.20862V0.215209L0 0.215209L0 10.3613C0 20.6552 8.24977 29 18.4264 29H27.8951V16.528ZM24.2098 16.528H20.8465C15.7582 16.528 11.6333 12.3556 11.6333 7.20862V3.94296L3.68527 3.94296L3.68527 10.3613C3.68527 18.5964 10.2851 25.2723 18.4264 25.2723H24.2098V16.528Z" fill="#F2C84B"/>
</svg>
