<svg width="62" height="42" viewBox="0 0 62 42" fill="none" xmlns="http://www.w3.org/2000/svg">
<path d="M1 38.7301C4.21782 43.339 12.5347 34.8646 14.8119 38.4823C16 40.7125 16.099 38.6806 16.6436 38.6806C16.9406 40.8116 17.9802 39.1761 17.7327 38.0859C19.5149 40.316 27.8317 40.0186 29.8614 38.7797C29.7624 39.5231 29.9109 40.5142 30.7525 40.2664C31.5446 40.0186 31.396 38.631 30.7525 38.2345C33.7723 38.185 40.0594 42.893 43.5248 38.6806C43.2277 39.7708 44.2673 41.4558 44.5644 39.3248C45.1089 39.3744 45.2079 41.4063 46.396 39.2257C47.6337 36.946 55.8515 42.5461 60.2079 40.0186C60.604 39.7708 60.901 39.5231 61 39.4239" stroke="#939393" stroke-width="2" stroke-miterlimit="10" stroke-linecap="round" />
<path d="M14.0078 24.1345V23.5398C14.5524 23.5398 15.0474 23.5398 15.5425 23.4407C21.5326 22.4991 27.6217 22.3504 33.7603 22.4C35.4435 22.4 37.1761 22.5982 38.8098 22.9451C41.4336 23.4903 44.0078 24.1841 46.5821 24.8779C47.2256 25.0761 48.0672 25.2248 47.7207 26.0177C46.6811 25.7699 45.691 25.4726 44.6514 25.2248C42.7207 24.6797 40.7405 24.1841 38.7603 23.7876C36.9781 23.4407 35.0474 23.3416 33.1662 23.292C30.1464 23.2425 27.1266 23.2425 24.1068 23.3911C21.7306 23.4903 19.3543 23.9363 16.9781 24.085C15.9385 24.1345 14.9484 24.1345 14.0078 24.1345Z" fill="#939393"/>
<path d="M15.889 22.5494C15.2454 22.7477 14.6514 22.9459 14.0078 23.1441V22.4999C15.691 21.9052 17.4237 21.36 19.1563 20.8149C22.7702 19.6255 26.2355 18.2874 29.1068 16.1564C30.889 14.8183 30.691 11.8448 28.6118 10.4076C27.6712 9.76339 26.5821 9.16869 25.4435 8.72267C21.6316 7.33503 17.8692 5.89784 14.0078 4.60933V3.61816C14.2553 3.71728 14.4534 3.76684 14.6514 3.86596C19.0573 5.50138 23.5128 7.03768 27.7207 8.9209C32.0771 10.9032 31.8296 15.1652 27.8692 17.5936C25.4435 19.0803 22.7702 20.1211 20.0969 21.2609C18.7603 21.8556 17.2751 22.153 15.889 22.5494Z" fill="#939393"/>
<path d="M23.1689 13.53C20.5946 11.5973 17.8223 9.96183 14.258 9.11934C14.159 9.11934 14.0599 9.06978 13.9609 9.02023V8.17773C14.357 8.32641 14.7035 8.42553 15.0996 8.52464C18.6144 9.26802 21.1392 11.1512 23.7134 12.9353C25.4956 14.1743 24.753 16.5531 22.2283 17.4451C20.6936 17.9903 19.0599 18.3867 17.4758 18.8328C16.2877 19.1797 15.1491 19.477 13.9609 19.8239V18.7832C14.852 18.5354 15.6936 18.3372 16.5847 18.0894C18.3174 17.6434 20.05 17.1973 21.7827 16.7513C22.1788 16.6522 22.5748 16.5035 22.9213 16.3053C24.6045 15.4628 24.7035 14.6203 23.1689 13.53Z" fill="#939393"/>
<path d="M16.3372 15.5621C16.7332 15.463 17.1293 15.2152 17.7233 14.9674C16.8322 14.5214 16.1887 14.1745 15.4461 13.9267C14.951 13.778 14.456 13.5798 13.9609 13.4311V12.5391C14.7035 12.7869 15.3966 13.0842 16.0897 13.332C16.9807 13.6789 18.1194 13.9267 18.0698 14.8683C17.9708 15.8099 16.9312 16.2559 15.8421 16.5037C15.1986 16.6524 14.555 16.8011 13.9609 16.9497V16.1073C14.753 15.909 15.5451 15.7108 16.3372 15.5621Z" fill="#939393"/>
<path d="M14.0078 26.4643V25.6713C17.0276 25.6713 20.0474 25.4235 23.0177 25.0766C28.1662 24.5315 33.3642 24.2837 38.4633 24.8784C40.4435 25.1262 42.5227 25.374 44.4534 25.9191C45.3444 26.1669 46.186 26.4643 46.9781 26.8607C47.3246 27.0094 47.5722 27.3067 47.8197 27.5545C47.7207 27.6536 47.6217 27.7032 47.5722 27.8023C46.7306 27.505 45.889 27.059 44.9979 26.9103C42.2751 26.3651 39.5029 25.7209 36.7306 25.5722C31.285 25.1757 25.889 25.5722 20.493 26.1669C18.3147 26.3651 16.1365 26.5138 14.0078 26.4643Z" fill="#939393"/>
<path d="M14.0078 28.2978V27.5049C15.1959 27.5544 16.3841 27.604 17.6217 27.604C20.2949 27.7031 22.9187 27.5049 25.592 27.1084C30.0474 26.4641 34.4534 26.9597 38.9088 27.4553C41.8296 27.7527 44.4534 28.5456 47.0771 29.3881C47.4237 29.4872 47.5722 29.8341 47.8197 30.0819C47.7207 30.1315 47.6217 30.2306 47.5227 30.2801C47.3741 30.2306 47.2751 30.181 47.1266 30.181C45.988 29.8341 44.8989 29.4872 43.7603 29.0907C40.3939 28.05 36.8296 27.9013 33.2652 27.604C29.8989 27.3562 26.5326 27.5049 23.2157 28.1491C21.7801 28.4465 20.1959 28.3474 18.7108 28.3969C18.4138 28.3969 18.1167 28.3474 17.7702 28.3474C16.5326 28.3474 15.2949 28.3474 14.0078 28.2978Z" fill="#939393"/>
<path d="M14.0078 0.64402V0.148438C15.8395 0.197996 17.5722 0.64402 19.8989 1.48651C22.6217 2.57679 25.4435 3.56796 28.2157 4.65824C29.9979 5.35205 31.7801 6.09543 33.4633 6.93792C36.384 8.42467 38.3642 11.8442 35.79 14.7186C34.4039 16.3044 32.8692 17.5929 30.9385 18.7328C30.5425 18.9806 30.1959 19.2284 29.7009 19.5257C35.493 19.6248 41.087 20.7647 46.7801 20.2195C47.5722 20.17 47.5722 20.17 47.5722 20.9133C43.4138 21.2107 39.3543 21.1611 35.3444 20.5169C32.5227 20.0709 29.7009 20.3682 26.9286 20.8142C26.5326 20.8638 26.1365 20.7647 25.7405 20.7151C25.988 20.4673 26.186 20.1204 26.5326 19.9717C28.1662 19.0797 29.8989 18.3363 31.5326 17.4443C33.4633 16.4035 34.5524 14.8177 35.5425 13.2318C36.7306 11.3486 35.5425 8.67246 32.8692 7.58218C29.6514 6.29366 26.285 5.15382 23.1167 3.81575C20.2454 2.52723 17.3246 1.33784 14.0078 0.64402Z" fill="#939393"/>
<path d="M14.0078 30.2799V29.5861C16.7306 29.5861 19.4534 29.5861 22.2256 29.5366C25.0969 29.487 27.9682 29.3879 30.8395 29.1401C34.6514 28.7932 38.3642 29.0905 41.9781 29.9826C43.6613 30.3791 45.3444 30.726 46.9781 31.1224C47.2751 31.2216 47.5722 31.4198 47.8197 31.5685C47.7702 31.618 47.7207 31.7171 47.6712 31.7667C47.5227 31.7171 47.3246 31.7171 47.1761 31.6676C45.592 31.4198 43.9583 31.172 42.4237 30.8251C38.0177 29.7844 33.5623 29.6357 28.9583 29.9826C24.2553 30.3791 19.5029 30.2304 14.7999 30.2799C14.5029 30.2799 14.2553 30.2799 14.0078 30.2799Z" fill="#939393"/>
<path d="M14.0078 32.6089V31.9151C15.8395 31.7664 17.7207 31.7168 19.6019 31.6177C23.7108 31.469 27.8197 31.3699 31.9286 31.1717C35.889 30.9735 39.7504 31.4195 43.5128 32.262C44.6514 32.5098 45.889 32.5593 47.0276 32.708C47.2751 32.7576 47.5227 32.9558 47.7702 33.0549C47.7207 33.154 47.6217 33.2531 47.5722 33.3523C46.186 33.2036 44.7504 33.154 43.4633 32.8071C39.3048 31.7168 35.0969 31.6673 30.79 31.8655C26.4336 32.0637 22.1266 32.2124 17.7702 32.3115C16.5326 32.4602 15.2454 32.5098 14.0078 32.6089Z" fill="#939393"/>
<path d="M33.0178 3.46937C35.5425 4.46054 37.8693 5.55082 39.4534 7.43403C40.493 8.67299 40.9386 9.9615 40.8396 11.3987C40.6911 13.2323 39.7505 14.7687 38.0673 16.1067C37.7208 16.3545 37.5722 16.8005 37.4732 17.197C37.4237 17.3457 37.8198 17.6926 38.0178 17.6926C40.9881 17.9404 43.9584 18.1386 46.9287 18.3864C47.6218 18.436 47.9683 18.1882 47.6218 17.7917C44.5029 17.5439 41.4831 17.2961 38.2653 16.9988C38.7109 16.5528 38.9089 16.3545 39.1069 16.1067C42.7208 12.5881 42.0277 6.69066 36.1366 4.01451C33.9584 3.02335 31.7802 2.08174 29.5524 1.18969C27.8198 0.495876 25.8891 0.148968 23.8594 0.297643C25.394 0.842784 27.0277 1.18969 28.6119 1.73483C30.1465 2.18086 31.5326 2.87467 33.0178 3.46937Z" fill="#939393"/>
<path d="M42.8659 8.92049C43.5095 10.9524 45.1927 12.1913 47.9155 13.2321C47.7174 12.6374 47.7174 12.0922 47.4204 11.894C45.0442 10.5064 43.9551 8.52402 43.064 6.49213C41.9749 4.06378 40.0442 2.13101 37.4204 0.644257C36.8263 0.29735 35.9848 0.198233 35.2422 0C36.5788 1.1894 38.0145 2.13101 39.3511 3.17173C41.3313 4.75759 42.1729 6.83904 42.8659 8.92049Z" fill="#939393"/>
<path d="M47.5738 3.81598C47.7718 2.97349 47.7223 3.07261 46.9797 2.7257C45.9896 2.27968 44.9005 1.78409 44.1084 1.13984C43.2174 0.396464 42.3263 -2.39909e-06 40.8906 0.198231C41.9302 0.842488 42.9698 1.38763 43.7619 2.08144C44.851 2.97349 46.0886 3.51863 47.5738 3.81598Z" fill="#939393"/>
</svg>
