<svg width="29" height="47" viewBox="0 0 29 47" fill="none" xmlns="http://www.w3.org/2000/svg">
<path d="M18.3388 43.8291V1.25952C18.3379 0.92974 18.2081 0.613395 17.9771 0.378055C17.746 0.142714 17.4321 0.00703673 17.1024 0C16.671 0 12.8424 0.161773 11.4442 1.66396C10.046 3.16614 9.57997 5.2769 9.90351 8.05401C9.91509 8.34641 9.86596 8.63802 9.75923 8.91049C9.6525 9.18295 9.49048 9.43034 9.28338 9.63708C9.15242 9.73337 8.94828 9.82197 8.51303 9.66019C7.0222 9.11127 5.38064 9.13558 3.90672 9.72842C2.43281 10.3213 1.23159 11.4404 0.536058 12.8687C-0.557839 15.2067 -0.234292 18.5693 3.94871 20.992C5.20053 21.7162 6.67575 22.968 6.60256 24.8168C6.54864 26.2227 5.66659 27.2203 5.18897 27.4476C2.1769 29.0615 1.54907 33.1482 2.87792 35.8059C3.31474 36.707 4.00265 37.4627 4.85888 37.982C5.71511 38.5014 6.70317 38.7622 7.70417 38.7332C9.01464 38.7005 10.303 38.3879 11.4827 37.8165C14.8877 36.2488 15.789 37.4313 16.1048 37.8165C16.2302 37.9835 16.3959 38.116 16.5863 38.2017C16.5863 42.9047 16.1318 44.2065 15.9546 44.7073C15.9261 44.7869 15.9017 44.8679 15.8814 44.9499C15.8413 45.0879 15.8312 45.2328 15.8518 45.375C15.8724 45.5172 15.9232 45.6533 16.0008 45.7742C16.0824 45.8914 16.1869 45.9908 16.3081 46.0663C16.4293 46.1418 16.5646 46.1918 16.7057 46.2133C17.096 46.2737 17.4953 46.2271 17.8612 46.0785C18.0731 45.9783 18.5931 45.7819 18.3388 43.8291ZM15.8121 34.6812C14.36 34.2575 12.5574 34.5387 10.4196 35.517C8.92902 36.1988 6.25976 36.9999 5.10808 34.685C4.31848 33.0981 4.68054 30.5675 6.31368 29.6777C7.60017 29.0615 9.00991 27.178 9.10235 24.8977C9.16013 23.4995 8.71717 20.8418 5.19282 18.8004C2.85481 17.4446 1.98431 15.6689 2.80089 13.9241C3.2239 13.0613 3.95238 12.3865 4.84492 12.0306C5.73746 11.6748 6.7304 11.6632 7.63098 11.9982C8.14179 12.2185 8.70132 12.3013 9.25402 12.2384C9.80673 12.1756 10.3334 11.9693 10.7817 11.64C11.9989 10.7387 12.4803 9.08628 12.411 7.8152C12.1645 5.75066 12.4534 4.25618 13.2699 3.37028C13.8978 2.68852 15.1342 2.51134 15.8121 2.46897V34.6465V34.6812Z" fill="#939393"/>
<path d="M22.3293 23.6774L28.1146 14.8877H25.1526L19.6484 23.7352L25.5147 34.5933H28.4651L22.3293 23.6774Z" fill="#939393"/>
</svg>
