<svg width="54" height="47" viewBox="0 0 54 47" fill="none" xmlns="http://www.w3.org/2000/svg">
<path d="M47.2645 8.07528C47.2861 8.01374 47.2342 7.9306 47.3498 7.93276C47.5115 7.95752 47.6621 8.03052 47.7817 8.14222C47.8378 8.19404 47.8983 8.23831 47.9533 8.28582C47.9816 8.30879 48.0119 8.32904 48.044 8.34628C48.0757 8.36675 48.1094 8.3841 48.1444 8.39811L48.2222 8.32253C48.3995 8.50121 48.5498 8.70492 48.6681 8.92716C48.8286 9.10978 48.9694 9.30883 49.0881 9.521C49.2216 9.7572 49.3333 10.0051 49.4217 10.2617C49.4552 10.2368 49.4865 10.2196 49.5167 10.2714C49.541 10.3338 49.5587 10.3986 49.5696 10.4647C49.5858 10.5359 49.602 10.6104 49.6171 10.6903C49.6387 10.8544 49.6636 11.0283 49.6798 11.215C49.6927 11.269 49.7068 11.323 49.7197 11.3748C49.7302 11.389 49.7434 11.401 49.7586 11.4099C49.7739 11.4188 49.7907 11.4245 49.8083 11.4267C49.8212 11.5829 49.8259 11.7396 49.8223 11.8963C49.9327 12.5748 49.9937 13.2604 50.0048 13.9478C50.0048 14.1281 50.0134 14.3105 50.0048 14.4952C49.9961 14.6798 50.0048 14.8666 49.994 15.0555C49.994 15.1505 49.9864 15.2456 49.9821 15.3416V15.3773L49.9756 15.4453L49.9637 15.5662L49.9378 15.8048C49.9216 15.9614 49.9043 16.119 49.8881 16.2767C49.8795 16.3544 49.8709 16.4332 49.8633 16.511L49.8504 16.6276C49.8544 16.6617 49.8601 16.6956 49.8676 16.7291C50.0836 16.8824 50.2995 17.0389 50.5262 17.2257L50.6202 17.311C50.6395 17.3258 50.6566 17.3433 50.6709 17.3628C50.699 17.405 50.739 17.4395 50.7659 17.4881C50.8998 17.7091 50.9835 17.9568 51.011 18.2136C51.1097 18.6349 51.1056 19.0737 50.9992 19.4931C50.888 19.8317 50.7272 20.1519 50.5219 20.4432C50.3191 20.733 50.0911 21.0043 49.8406 21.2541C49.9259 21.2994 49.9303 21.4128 49.8925 21.5618C49.8691 21.6439 49.8384 21.7238 49.8007 21.8004C49.7607 21.8835 49.7186 21.9764 49.67 22.0595C49.4843 22.4018 49.2652 22.7149 49.521 22.7678C49.1194 23.0572 48.4565 23.3854 48.4597 23.4858C48.467 23.5816 48.4545 23.6779 48.423 23.7687C48.3765 23.8986 48.3029 24.0171 48.2071 24.1164C48.0682 24.2717 47.9061 24.4047 47.7266 24.5105C47.4607 24.6729 47.1756 24.8017 46.8779 24.8937C46.723 24.9289 46.5662 24.9552 46.4083 24.9726C46.242 24.9844 46.0714 24.9888 45.9138 24.992C45.5974 24.992 45.3307 24.9715 45.2303 25.0071C45.1634 25.0319 45.1688 25.0589 45.2098 25.0859C45.2842 25.1214 45.3625 25.1482 45.443 25.1658C45.6309 25.2176 45.8242 25.2738 45.659 25.3235C45.727 25.3235 45.795 25.3235 45.8641 25.3235L46.0703 25.3105C46.2075 25.3008 46.3457 25.2943 46.4828 25.2792C46.757 25.2414 47.0313 25.209 47.3023 25.1442C47.5733 25.0795 47.8421 25.0082 48.1099 24.9283C48.3722 24.8333 48.6368 24.7437 48.8894 24.6227C49.1449 24.5087 49.3943 24.3815 49.6366 24.2416L49.9918 24.0203C50.1095 23.9458 50.2207 23.8594 50.3341 23.7795C50.7837 23.4471 51.198 23.0694 51.5703 22.6523C51.9426 22.2284 52.2684 21.7658 52.542 21.2724C52.8251 20.7619 53.0428 20.2178 53.1899 19.6529C53.3557 19.0296 53.4109 18.382 53.3529 17.7397C53.3432 17.6533 53.3291 17.5637 53.3151 17.4762C53.3031 17.3865 53.2862 17.2974 53.2644 17.2095C53.223 17.0258 53.1682 16.8453 53.1003 16.6697C53.0635 16.579 53.0322 16.4883 52.9923 16.3987C52.9523 16.3091 52.8994 16.2194 52.8508 16.1309C52.807 16.0383 52.7569 15.9489 52.7008 15.8631L52.6554 15.7994L52.636 15.7714V15.7779C52.6389 15.7819 52.6414 15.7863 52.6435 15.7908V15.7984C52.6288 15.8042 52.6128 15.8061 52.5971 15.8038C52.5831 15.8038 52.5798 15.7962 52.5723 15.7876L52.5626 15.7703C52.5626 15.7627 52.5626 15.7703 52.5626 15.7703C52.5626 15.7703 52.5626 15.7595 52.5626 15.7552V15.7163C52.5626 15.6904 52.568 15.6645 52.5712 15.6386C52.5939 15.4226 52.623 15.2067 52.6425 14.9605C52.6619 14.7143 52.69 14.4649 52.7051 14.1961C52.7429 13.6562 52.7612 13.0754 52.7472 12.4589C52.7371 11.8141 52.6794 11.171 52.5744 10.5348C52.4638 9.85905 52.2746 9.19848 52.0108 8.56654C51.9763 8.48665 51.9439 8.40675 51.9029 8.32901L51.7863 8.09579C51.7128 7.9414 51.6178 7.7924 51.5336 7.64556C51.3558 7.35882 51.1547 7.08725 50.9322 6.83362C50.5392 6.38403 50.0784 5.99861 49.5664 5.69131C49.205 5.47513 48.8235 5.29434 48.4273 5.15146C48.3474 5.12338 48.2686 5.10179 48.1898 5.0802C47.4686 4.85901 46.7165 4.75583 45.9624 4.77464C45.3139 4.78802 44.67 4.88603 44.047 5.06616C43.5717 5.23234 43.1082 5.43037 42.6596 5.65891C42.8949 5.65891 43.112 5.67295 43.302 5.69346C42.8183 5.78956 42.3443 5.91804 42.1845 6.03681C41.7105 6.26354 41.6371 6.38663 41.7299 6.45789C41.8228 6.52915 42.0884 6.55938 42.3087 6.62632C42.6045 6.6544 42.2989 6.92108 42.7405 6.91352C42.4447 6.99126 42.2979 7.03337 42.0053 7.12298C42.0053 7.17913 42.2212 7.09167 42.4264 7.02581C42.6315 6.95995 42.814 6.91784 42.7351 7.02581C42.4425 7.06576 42.1478 7.22556 41.8606 7.31949C41.934 7.36915 42.1845 7.2979 42.421 7.24067C42.6574 7.18345 42.8744 7.1327 42.8712 7.21044C42.7113 7.24957 42.5484 7.27557 42.3842 7.28818C42.1856 7.31733 42.0053 7.36484 42.0064 7.45877C42.0064 7.4944 42.2925 7.40587 42.4382 7.36484C42.0064 7.52679 41.6911 7.70278 41.5907 7.81831C41.4903 7.93384 41.5993 7.98566 42.0161 7.93923C41.8822 7.9835 41.7138 8.02345 41.5475 8.06988C41.4643 8.09363 41.3812 8.11955 41.3035 8.14762C41.2339 8.17168 41.1664 8.20128 41.1016 8.23615C41.1523 8.21672 41.2549 8.18433 41.3477 8.15734C41.4406 8.13034 41.5378 8.10227 41.6025 8.07852C41.4449 8.13682 41.284 8.19836 41.1393 8.25775C41.1745 8.27165 41.2106 8.28319 41.2473 8.2923C41.371 8.26573 41.4929 8.23147 41.6123 8.18973C41.5043 8.22751 41.405 8.26746 41.3035 8.30741C41.4102 8.33061 41.5184 8.34648 41.6274 8.35492C42.0344 8.31713 42.4436 8.35492 42.6444 8.29986C43.4485 8.08499 44.2708 7.94582 45.1008 7.88417C45.8835 7.83559 46.6447 7.88849 47.2645 8.07528Z" fill="#939393"/>
<path d="M10.9206 14.4116C10.899 14.3501 10.7425 14.3436 10.9314 14.2335C11.0781 14.1584 11.2305 14.0948 11.3871 14.0434C11.5458 14.0035 11.7023 13.9733 11.8578 13.943L12.091 13.8955L12.3329 13.8567C12.5009 13.8271 12.6663 13.7842 12.8274 13.7282L12.8533 13.6126C13.134 13.5803 13.4223 13.5565 13.7117 13.5273L15.4554 13.3805L15.7976 13.3352L16.0859 12.5124L16.2317 12.1011C16.2799 11.9683 16.335 11.8382 16.3969 11.7113C16.4411 11.6033 16.4951 11.5018 16.548 11.3971C16.6009 11.2924 16.6625 11.1866 16.7186 11.0808C16.9685 10.6462 17.2462 10.2282 17.55 9.82938C17.5025 9.82938 17.4658 9.81535 17.5219 9.72141C17.7864 9.35215 18.2367 8.89868 18.7171 8.44089L18.9158 8.22495C18.929 8.2054 18.9378 8.18314 18.9413 8.15979C18.9449 8.13644 18.9432 8.11259 18.9363 8.08999C19.1598 7.88593 19.3682 7.71101 19.5636 7.55662C20.7687 6.36733 22.1095 5.324 23.5585 4.44816C25.042 3.56173 26.6842 2.81998 28.4852 2.47016C28.8618 2.37266 29.244 2.29802 29.6297 2.24666C30.0087 2.19816 30.3913 2.18226 30.7731 2.19915C31.377 2.24365 31.9716 2.37305 32.5394 2.58353C33.093 2.7913 33.6206 3.06268 34.1115 3.39222C34.1277 3.29289 34.2842 3.29289 34.5088 3.35659C34.6168 3.39114 34.7463 3.44081 34.8824 3.49803C35.0184 3.55526 35.1512 3.63191 35.2905 3.70209C35.4298 3.77227 35.5561 3.85217 35.6792 3.91803C35.8023 3.98389 35.9135 4.04112 36.0031 4.08431C36.1813 4.16744 36.2935 4.16744 36.2644 3.99577L36.4749 4.23007C36.5451 4.31212 36.6131 4.40066 36.6844 4.48812C36.7557 4.57557 36.8291 4.66087 36.8939 4.74832C36.9586 4.83578 37.0223 4.92215 37.0828 5.00313C37.2081 5.16185 37.3095 5.30868 37.3927 5.41342C37.4758 5.51815 37.5384 5.57969 37.5687 5.57861C37.7576 5.57213 38.0006 5.65851 38.3612 5.98134C38.7024 6.30525 39.1677 6.88288 39.6331 7.87945C39.713 8.07811 39.7918 8.31133 39.8674 8.54346C39.9429 8.7756 39.9969 9.02501 40.0552 9.25175C40.1632 9.7063 40.2377 10.0961 40.3079 10.2321C40.3575 10.3325 40.3813 10.3185 40.3921 10.2451C40.4005 10.1268 40.4005 10.0081 40.3921 9.88985C40.3781 9.61021 40.3629 9.32732 40.4709 9.54434C40.0954 7.96433 39.4881 6.44857 38.6689 5.04632C38.232 4.31852 37.7172 3.64043 37.1336 3.02404C36.5304 2.39032 35.8461 1.8392 35.0983 1.38506C34.3411 0.934263 33.5255 0.589848 32.6744 0.361509C31.8405 0.139032 30.9827 0.0183053 30.1198 0.0019671C28.4193 -0.0282645 26.7814 0.292407 25.2331 0.795546C24.8455 0.956421 24.0347 1.26522 23.01 1.76727C21.7872 2.37807 20.6165 3.08801 19.5096 3.88996C18.1897 4.8405 16.9724 5.92607 15.8775 7.12906C15.3157 7.75073 14.8027 8.41493 14.3433 9.1157C14.1158 9.46458 13.9064 9.82496 13.716 10.1954L13.6469 10.3379L13.622 10.3908V10.3995C13.6164 10.4103 13.6113 10.4215 13.6069 10.4329C13.5972 10.4545 13.5897 10.4772 13.581 10.4999C13.5303 10.5096 13.4791 10.5168 13.4277 10.5215L13.3521 10.5301H13.3327C13.3199 10.531 13.3072 10.5332 13.2949 10.5366L13.1329 10.5657L12.5078 10.6737C12.4063 10.6931 12.3081 10.7072 12.2098 10.7309L11.9237 10.8011L11.3838 10.9339C11.2991 10.9529 11.2154 10.9767 11.1333 11.0052L10.8958 11.0797L10.4639 11.2157L10.3635 11.247L10.2685 11.2848L10.0893 11.3539L9.75564 11.4964C9.49449 11.6031 9.23899 11.7231 8.99014 11.856C8.72588 11.9912 8.46925 12.1407 8.22139 12.3041C8.15769 12.3451 8.09291 12.3829 8.03029 12.4261L7.84566 12.5643L7.47748 12.8428C7.35547 12.9368 7.24426 13.049 7.12874 13.1516L6.95814 13.3093C6.89998 13.3604 6.84517 13.4152 6.79403 13.4734C5.93027 14.3695 5.33536 15.4568 5.07839 16.3832C4.8624 17.2238 4.77718 18.0927 4.82574 18.9593C4.87325 18.7671 4.91643 18.5857 4.97582 18.4195C5.0352 18.2532 5.08379 18.088 5.14425 17.9422L5.11186 18.0966C5.1043 18.1485 5.09675 18.2046 5.08811 18.2521C5.07407 18.3601 5.05896 18.4562 5.04384 18.5566C5.01901 18.7563 5.00821 18.9485 4.99525 19.1245C4.9823 19.3005 4.99525 19.4603 4.99525 19.5963C4.99975 19.7052 5.01311 19.8135 5.0352 19.9202C5.05526 20.2041 5.11299 20.4841 5.20687 20.7527C5.2641 20.8887 5.31484 20.9017 5.35479 20.8412C5.41388 20.7314 5.45679 20.6135 5.4822 20.4914C5.53078 20.3338 5.57397 20.1513 5.63767 19.9904C5.6895 19.7604 5.76076 19.8015 5.83202 19.809C5.85296 19.8133 5.87472 19.8108 5.89414 19.8019C5.91356 19.793 5.92962 19.7781 5.93999 19.7594C5.96084 19.7258 5.97683 19.6895 5.9875 19.6514C6.00897 19.5853 6.02628 19.5178 6.03932 19.4495C6.02028 19.8646 6.0293 20.2805 6.06631 20.6944C6.09439 20.7063 6.09547 20.6166 6.08575 20.4784C6.07603 20.3402 6.06199 20.161 6.05767 19.9883C6.04256 19.6406 6.06307 19.3318 6.14297 19.5056C6.09007 19.9796 6.18184 20.5108 6.23907 20.9978C6.29521 20.9038 6.26498 20.4817 6.26174 20.0908C6.26174 19.8943 6.26174 19.7065 6.28441 19.5737C6.30709 19.4409 6.32652 19.3577 6.36107 19.3815C6.3619 19.4898 6.35468 19.5981 6.33948 19.7054C6.32976 19.8457 6.30493 20.0099 6.30169 20.1707C6.28333 20.4946 6.30708 20.7937 6.39778 20.8304C6.43341 20.8445 6.39778 20.364 6.38806 20.1232C6.44745 20.8628 6.604 21.4189 6.71953 21.6208C6.77567 21.7201 6.81886 21.7287 6.84478 21.637C6.87607 21.4298 6.88835 21.2202 6.88149 21.0107C6.9074 21.2353 6.93439 21.5085 6.9765 21.7816C6.99701 21.9188 7.02185 22.0548 7.05208 22.1844C7.06827 22.247 7.08339 22.3118 7.10066 22.369C7.11038 22.3982 7.11902 22.4262 7.12766 22.4543C7.13478 22.4763 7.14307 22.4979 7.15249 22.5191C7.14277 22.4867 7.12334 22.4111 7.10822 22.3453C7.09311 22.2794 7.07691 22.1973 7.06287 22.1196C7.03264 21.9641 7.00997 21.8076 6.9873 21.6996C7.03912 21.962 7.10282 22.2394 7.17301 22.4694C7.18688 22.4219 7.19806 22.3736 7.20648 22.3247C7.17408 22.1336 7.14277 21.935 7.09851 21.7309C7.13414 21.9037 7.17193 22.0786 7.21727 22.2448C7.23887 22.1045 7.25398 21.9458 7.27018 21.773C7.24426 21.1371 7.35439 20.5346 7.34252 20.2128C7.30689 18.8935 7.58437 17.6388 8.189 16.6498C8.49467 16.1539 8.88496 15.7153 9.34212 15.3542C9.82658 14.9749 10.3569 14.6582 10.9206 14.4116Z" fill="#939393"/>
<path d="M0.0388663 27.3404C0.103648 27.3523 0.180307 27.2659 0.191104 27.416C0.197582 27.8824 -0.0485892 28.2485 0.00863484 28.7408L0.116605 28.7764C0.0637272 29.1741 0.036678 29.5748 0.0356273 29.976C0.0921844 30.3673 0.182126 30.7531 0.304471 31.1291C0.427859 31.5189 0.591414 31.8949 0.792497 32.2509C0.81733 32.2142 0.845402 32.1904 0.893989 32.2563C1.07322 32.5424 1.287 32.9678 1.59903 33.3565L1.75559 33.5077C1.77307 33.5169 1.79252 33.5216 1.81227 33.5216C1.83202 33.5216 1.85147 33.5169 1.86896 33.5077C2.01796 33.6675 2.14752 33.8165 2.27708 33.9396C2.74116 34.2814 3.25065 34.5569 3.79082 34.758C4.30208 34.946 4.83143 35.0806 5.37042 35.1596C5.89066 35.2346 6.41577 35.2707 6.94138 35.2676H7.33223L7.722 35.2481C7.77342 35.2493 7.82482 35.245 7.87532 35.2352L7.97681 35.2158L8.19275 35.1769C8.25537 35.1553 8.32015 35.1337 8.38925 35.1132L8.49722 35.0819L8.55121 35.0668L8.5782 35.0603C8.58684 35.0603 8.58684 35.0678 8.59116 35.0711C8.67244 35.1866 8.74464 35.3083 8.8071 35.4349C8.82869 35.4835 8.85029 35.5354 8.87296 35.5872L8.89131 35.6282L8.89995 35.6487L8.91615 35.6833C8.93882 35.7308 8.96041 35.7783 8.98417 35.8269C9.08026 36.0221 9.2019 36.2036 9.34587 36.3667C9.49081 36.5288 9.6629 36.6643 9.85441 36.7673C10.0355 36.8613 10.2294 36.9282 10.4299 36.966C10.4202 36.8699 10.5303 36.8029 10.6739 36.7425C10.7452 36.709 10.8261 36.6734 10.9082 36.6345C10.9902 36.5956 11.0658 36.5557 11.1425 36.5157C11.2191 36.4758 11.2893 36.4272 11.3509 36.3829C11.4062 36.3429 11.4562 36.2961 11.4999 36.2436C11.5733 36.1529 11.5862 36.0666 11.4999 35.9867C11.5873 35.9715 11.6877 35.9456 11.7871 35.923C11.8864 35.9003 11.9879 35.8636 12.0764 35.8323C12.2524 35.761 12.3841 35.693 12.3787 35.6368C12.362 35.4363 12.41 35.2357 12.5159 35.0646C12.6411 34.8487 12.8635 34.6014 13.2522 34.3002C13.4377 34.1925 13.6316 34.1 13.832 34.0238C14.0285 33.9385 14.197 33.8661 14.2401 33.8078C14.3783 33.6156 13.6949 33.8521 13.8342 33.6599C13.3386 33.905 12.8495 34.1361 12.3809 34.3293L12.206 34.4017L12.0343 34.4664C11.9199 34.5118 11.8108 34.5453 11.7007 34.5841C11.5072 34.6479 11.31 34.6994 11.1101 34.7385L10.9935 34.7558C10.9557 34.7558 10.9287 34.7558 10.8963 34.7644C10.8639 34.7731 10.8844 34.7644 10.8812 34.7644C10.8812 34.7698 10.8812 34.7709 10.8812 34.7763C10.8794 34.7768 10.8776 34.7768 10.8758 34.7763L10.8585 34.7277L10.7905 34.5312C10.7095 34.2473 10.6404 33.9493 10.5681 33.6578C10.4957 33.3662 10.4256 33.078 10.3521 32.7875C9.70433 32.7875 9.05651 32.8016 8.40869 32.7875H8.16468H8.10421H8.02972H7.97681H7.94982L7.73388 32.7735C7.5892 32.767 7.44776 32.7508 7.302 32.7357C6.81987 32.7472 6.33855 32.6901 5.87248 32.5662C5.52933 32.4853 5.19646 32.3658 4.88023 32.2099C4.56006 32.0511 4.26678 31.8431 4.01108 31.5934C3.88676 31.4691 3.77467 31.3331 3.67637 31.1874C3.57505 31.0407 3.48758 30.8849 3.41508 30.7221C3.2683 30.3895 3.16872 30.0381 3.11925 29.678C3.03934 29.0915 3.0448 28.4965 3.13544 27.9116C3.13544 27.8641 3.14192 27.8177 3.14624 27.7702C3.26501 26.928 3.50902 25.8753 3.62562 25.1001C3.65478 24.7373 3.67961 24.3594 3.71956 23.9815C3.59971 24.1165 3.48527 24.2417 3.38053 24.3497C3.51874 23.9999 3.67097 23.6576 3.66449 23.4978C3.74979 23.0972 3.71092 22.9828 3.59863 22.9893C3.48634 22.9957 3.30711 23.1296 3.12788 23.2257C2.9357 23.3941 2.90007 23.0389 2.65498 23.3337C2.76295 23.0929 2.81477 22.9731 2.92706 22.7344C2.88495 22.6988 2.81909 22.8899 2.74675 23.0584C2.67441 23.2268 2.61395 23.3823 2.5686 23.2624C2.70356 23.0465 2.75755 22.756 2.87308 22.5174C2.69924 22.539 2.45523 23.338 2.34402 23.2473C2.3667 23.0983 2.81261 22.6351 2.67657 22.5174C2.6485 22.4937 2.53297 22.7334 2.4779 22.8575C2.61611 22.4688 2.70572 22.1557 2.69384 22.0121C2.68197 21.8685 2.56644 21.8955 2.31703 22.2032C2.37533 22.0834 2.46279 21.9463 2.54917 21.8059C2.59235 21.7357 2.63554 21.6655 2.67657 21.59C2.7176 21.5144 2.74999 21.4539 2.78454 21.374C2.7014 21.5144 2.5632 21.7087 2.50274 21.8286C2.57724 21.6839 2.65066 21.5435 2.73487 21.3967C2.69814 21.4096 2.6621 21.4243 2.6269 21.441C2.54902 21.5398 2.48001 21.6453 2.42068 21.7562L2.57292 21.4669C2.47755 21.5186 2.38623 21.5774 2.29976 21.6429C2.02659 21.9398 1.7232 22.2097 1.63574 22.3987C1.25518 23.1629 0.927266 23.9521 0.654296 24.761C0.367786 25.5994 0.161713 26.4631 0.0388663 27.3404Z" fill="#939393"/>
<path d="M17.8531 17.3254C17.9157 17.3481 17.9956 17.3082 17.9956 17.4108C17.9742 17.5564 17.9174 17.6947 17.8304 17.8135C17.7467 17.9372 17.6979 18.0811 17.689 18.2302L17.7872 18.2734C17.7387 18.3814 17.6944 18.5034 17.6523 18.6254C17.6102 18.7474 17.5627 18.8727 17.5249 19.0022C17.498 19.488 17.5299 19.9752 17.6199 20.4533C17.6566 20.4361 17.6922 20.4274 17.7117 20.4728C17.737 20.585 17.7533 20.6991 17.7602 20.814C17.7786 20.9403 17.7948 21.0785 17.8196 21.2188C17.8348 21.2588 17.8499 21.2977 17.8639 21.3365C17.8767 21.3463 17.8913 21.3534 17.9069 21.3575C17.9224 21.3615 17.9387 21.3625 17.9546 21.3603C17.9794 21.4844 18.0075 21.5913 18.0259 21.695L18.1403 21.9261L18.1986 22.0405L18.2645 22.1485C18.3544 22.2924 18.4444 22.4364 18.5344 22.5803C18.6283 22.7196 18.7352 22.8492 18.8356 22.982L18.9889 23.1785C19.0429 23.2411 19.0969 23.3005 19.1563 23.361L19.4942 23.7216C19.6141 23.8296 19.7372 23.9375 19.8581 24.052L20.0417 24.2161C20.1021 24.2712 20.1701 24.3176 20.2338 24.3683L20.6247 24.6674C20.7489 24.7397 20.886 24.7926 21.0091 24.8563C21.1307 24.9154 21.2483 24.9825 21.361 25.0572C21.3985 25.086 21.4345 25.1173 21.469 25.1511C21.5079 25.1824 21.5478 25.2148 21.5867 25.2483C21.6655 25.3163 21.7443 25.3897 21.821 25.4642C21.9632 25.6107 22.1131 25.7495 22.2701 25.8799C22.3619 25.7158 22.6135 25.7298 22.8478 25.7298C23.0821 25.7298 23.2991 25.7169 23.3401 25.5139C23.5215 25.6575 23.8109 25.8529 23.88 25.7763C23.9994 25.6439 24.1506 25.5443 24.3194 25.4869C24.4215 25.4535 24.5283 25.4363 24.6358 25.4361C24.7734 25.4329 24.9109 25.4471 25.045 25.4783C25.2663 25.556 25.506 25.8518 25.6075 25.8378C25.7684 25.814 25.4596 25.4912 25.6205 25.4685C25.2717 25.2267 24.9089 25.0129 24.5764 24.7765L24.3281 24.6091C24.2428 24.554 24.1553 24.5011 24.0765 24.4374C23.9145 24.3194 23.7511 24.2028 23.5863 24.0876C22.9536 23.6115 22.3554 23.1029 21.8912 22.5145C21.8062 22.4487 21.7264 22.3765 21.6526 22.2985C21.5522 22.1906 21.4528 22.0524 21.3287 21.8937C21.0755 21.5228 20.879 21.1164 20.7456 20.6876C20.6175 20.2518 20.5703 19.7962 20.6063 19.3434C20.6321 19.0151 20.7048 18.6922 20.8223 18.3846L20.8385 18.3101C20.9918 17.8783 21.2218 17.3503 21.3243 16.9173C21.3492 16.7014 21.3751 16.4854 21.4129 16.2533C21.3049 16.2943 21.1969 16.33 21.1106 16.3613C21.2369 16.1885 21.3729 16.0244 21.3708 15.9186C21.5349 15.463 21.2336 15.5353 20.913 15.5288C20.7402 15.5699 20.7229 15.3129 20.4962 15.4209C20.5988 15.2956 20.6506 15.2341 20.7586 15.1131C20.7251 15.0721 20.6506 15.1758 20.588 15.2686C20.5254 15.3615 20.4584 15.4392 20.4239 15.342C20.5502 15.2416 20.6107 15.0646 20.7219 14.9426C20.6474 14.9166 20.547 15.0192 20.4519 15.1142C20.3569 15.2092 20.2749 15.301 20.2263 15.2481C20.2414 15.2028 20.3504 15.1401 20.4422 15.071C20.534 15.0019 20.6096 14.9339 20.5502 14.8648C20.5275 14.8367 20.4163 14.9642 20.3602 15.0268C20.5027 14.8108 20.5945 14.6197 20.5966 14.5118C20.5988 14.4038 20.4951 14.3757 20.2598 14.502C20.3309 14.4308 20.407 14.3648 20.4876 14.3045C20.5297 14.271 20.5739 14.2364 20.6139 14.1965L20.6733 14.1393L20.7003 14.1101L20.7348 14.0734C20.7057 14.0982 20.683 14.1166 20.6571 14.136L20.5793 14.1954C20.5328 14.2281 20.4888 14.2642 20.4476 14.3034L20.561 14.19L20.6862 14.0702C20.6528 14.0702 20.6236 14.0637 20.5891 14.0626C20.5149 14.105 20.4463 14.1565 20.385 14.2159C20.4336 14.1652 20.4865 14.1144 20.5405 14.0615C20.4565 14.0618 20.3727 14.0694 20.29 14.0842C20.0298 14.1922 19.7501 14.2785 19.653 14.3854C19.2636 14.8005 18.9161 15.2529 18.6154 15.7361C18.3013 16.235 18.0455 16.7682 17.8531 17.3254Z" fill="#5A5A5A"/>
<path d="M12.197 22.6789C12.2629 22.6789 12.3223 22.6152 12.3601 22.6983C12.3941 22.8246 12.3941 22.9575 12.3601 23.0838C12.3281 23.2134 12.3364 23.3498 12.3838 23.4746H12.4918C12.4918 23.5826 12.4918 23.6906 12.4983 23.8093C12.5048 23.9281 12.5069 24.0425 12.521 24.1602C12.6779 24.5702 12.8884 24.9576 13.1472 25.3123C13.1753 25.2853 13.2033 25.2658 13.239 25.2961C13.3033 25.3783 13.3607 25.4657 13.4106 25.5574C13.4743 25.6545 13.5413 25.7614 13.6158 25.8672L13.7 25.9482C13.731 25.9551 13.7635 25.9509 13.7918 25.9363C13.8619 26.0281 13.9278 26.1059 13.9818 26.1836L14.174 26.3326L14.2701 26.406L14.3716 26.4719C14.5076 26.5604 14.6436 26.6457 14.7797 26.7299C14.9157 26.8141 15.0647 26.88 15.2116 26.9534L15.4275 27.0614C15.5009 27.0938 15.5754 27.1218 15.6499 27.1532L16.0948 27.3291C16.247 27.3788 16.4003 27.4252 16.5536 27.4727L16.7825 27.5418C16.8592 27.5667 16.9391 27.5807 17.0168 27.6002L17.4876 27.7081C17.629 27.7232 17.7748 27.72 17.913 27.7286C18.0464 27.7347 18.1795 27.7484 18.3114 27.7697C18.3567 27.7805 18.4032 27.7934 18.4496 27.8075L18.5953 27.8463C18.6925 27.8733 18.7918 27.9057 18.8912 27.9403C19.0888 28.0061 19.2831 28.0839 19.4591 28.1227C19.4829 27.9564 19.7193 27.8809 19.9352 27.7988C20.1512 27.7168 20.3466 27.6315 20.3088 27.4512C20.5248 27.5041 20.8681 27.5591 20.9048 27.476C20.9686 27.323 21.0709 27.1891 21.2017 27.0873C21.2851 27.0241 21.3771 26.9732 21.4749 26.9361C21.6008 26.8848 21.7324 26.8485 21.8668 26.8282C22.1 26.8152 22.4304 26.9728 22.5146 26.9264C22.6528 26.8508 22.249 26.6954 22.3883 26.6198C21.978 26.5442 21.5645 26.4945 21.1704 26.4179L20.8713 26.3693C20.7709 26.3531 20.6705 26.3391 20.5755 26.3164C20.3822 26.2764 20.189 26.2387 19.9946 26.2009C19.2334 26.0324 18.4938 25.8262 17.8482 25.5066C17.7455 25.483 17.6448 25.4516 17.547 25.4127C17.4152 25.3619 17.2716 25.281 17.0978 25.1967C16.7327 24.9884 16.4005 24.7272 16.112 24.4215C15.8359 24.1162 15.6224 23.7596 15.4837 23.372C15.3846 23.0975 15.3303 22.8087 15.3228 22.5169L15.3098 22.4511C15.2904 22.044 15.3098 21.5344 15.2396 21.1457C15.1846 20.9643 15.123 20.7711 15.0744 20.5724C14.9935 20.6426 14.9093 20.7084 14.8358 20.7667C14.8887 20.581 14.9524 20.4007 14.9114 20.3143C14.8931 19.8825 14.6436 20.0498 14.3446 20.1556C14.201 20.2485 14.0898 20.0477 13.9213 20.2118C13.9688 20.0747 13.9937 20.0055 14.0487 19.8695C14.0023 19.8479 13.9753 19.958 13.9494 20.0563C13.9235 20.1546 13.8933 20.2409 13.8252 20.1729C13.904 20.0477 13.8943 19.8814 13.9516 19.741C13.8727 19.741 13.8188 19.8641 13.7658 19.9753C13.7129 20.0865 13.6719 20.1913 13.6082 20.1632C13.6082 20.1211 13.6816 20.0304 13.741 19.9472C13.8004 19.8641 13.849 19.7777 13.7658 19.7399C13.7345 19.7259 13.6795 19.8673 13.6514 19.9386C13.7011 19.7108 13.7162 19.5251 13.6773 19.4366C13.6384 19.348 13.5337 19.361 13.3631 19.5445C13.403 19.4612 13.4492 19.3811 13.5013 19.3048C13.5262 19.2627 13.5553 19.2185 13.578 19.1763L13.6125 19.1029C13.6125 19.0921 13.6223 19.0803 13.6276 19.0695C13.633 19.0587 13.6384 19.0414 13.6449 19.0273C13.6276 19.0576 13.6125 19.0803 13.5963 19.104C13.5801 19.1278 13.5639 19.1548 13.5467 19.1796C13.5159 19.2222 13.4888 19.2673 13.4657 19.3145C13.4851 19.2703 13.5056 19.2271 13.5283 19.1817C13.551 19.1364 13.5726 19.0921 13.5996 19.0403C13.5672 19.0522 13.538 19.0576 13.5067 19.0684C13.4539 19.1275 13.4096 19.1936 13.375 19.2649C13.4009 19.2066 13.4311 19.1461 13.4614 19.0846C13.3846 19.1148 13.3102 19.1509 13.239 19.1925C13.0403 19.3739 12.8071 19.5402 12.7639 19.66C12.5603 20.1296 12.4079 20.6197 12.3093 21.122C12.2056 21.634 12.1679 22.1572 12.197 22.6789Z" fill="white"/>
<path d="M35.2702 15.958C35.336 15.958 35.4008 15.9191 35.4321 15.9742C35.4969 16.1513 35.2831 16.2981 35.3414 16.4698L35.4494 16.4838C35.4267 16.5518 35.3997 16.6209 35.3727 16.69C35.3457 16.7591 35.3133 16.8282 35.2853 16.8984C35.2903 17.1583 35.2954 17.4174 35.3004 17.6758C35.3393 17.6758 35.376 17.6758 35.3868 17.7017C35.4051 17.8097 35.3457 17.9522 35.3112 18.099C35.3112 18.1217 35.3112 18.1444 35.3187 18.167C35.3412 18.1861 35.3678 18.1994 35.3965 18.2059C35.3829 18.2665 35.363 18.3255 35.3371 18.3819C35.3721 18.7685 35.3801 19.1571 35.3609 19.5447C35.3533 19.6441 35.3468 19.7434 35.3393 19.8438C35.3317 19.9442 35.3112 20.0436 35.2961 20.144C35.2813 20.2461 35.2611 20.3474 35.2356 20.4474C35.2141 20.5511 35.1867 20.6534 35.1536 20.754C35.1449 20.8523 35.1341 20.9527 35.1179 21.052C35.0982 21.1436 35.0681 21.2327 35.0283 21.3176C34.9518 21.4373 34.8537 21.5416 34.7389 21.6253C34.631 21.7236 34.5003 21.7916 34.401 21.8672C34.4634 21.9331 34.4981 22.0204 34.4982 22.1112C34.5008 22.1599 34.4986 22.2087 34.4917 22.2569C34.4841 22.3045 34.4733 22.353 34.4625 22.4016C34.4215 22.596 34.3718 22.7957 34.5327 22.9156L34.3913 23.0009C34.3405 23.0268 34.2898 23.0548 34.2466 23.0818C34.1591 23.138 34.0987 23.1898 34.1149 23.247C34.175 23.4158 34.1858 23.5981 34.1462 23.7728C34.0713 24.0122 33.9195 24.2202 33.7143 24.3645C33.4984 24.4725 33.1064 24.4487 33.0427 24.5329C33.0383 24.5388 33.035 24.5455 33.0331 24.5527C33.0312 24.5598 33.0308 24.5673 33.0318 24.5746C33.0328 24.5819 33.0352 24.589 33.0389 24.5954C33.0427 24.6017 33.0476 24.6073 33.0535 24.6118C33.0883 24.6365 33.127 24.6551 33.168 24.6668C33.2565 24.6992 33.3494 24.7316 33.2965 24.7996C34.2359 24.6112 35.112 24.1869 35.8424 23.5666C36.5658 22.9432 37.1537 22.1782 37.5699 21.3187C37.6007 21.191 37.6389 21.0651 37.6844 20.9419C37.7427 20.7756 37.7999 20.5694 37.8755 20.3383C38.0226 19.8119 38.1387 19.2772 38.2231 18.7371C38.3095 18.166 38.3549 17.5905 38.3797 17.1003C38.4045 16.6101 38.4056 16.2052 38.4196 15.9688L38.4132 15.8835C38.4196 15.3706 38.3408 14.753 38.1486 14.346C38.0407 14.1614 37.9068 13.98 37.7751 13.8061C37.7319 13.8992 37.6829 13.9893 37.6282 14.0761C37.6099 13.8806 37.5872 13.6841 37.5084 13.6204C37.2795 13.2339 37.138 13.5049 36.9124 13.6982C36.8206 13.8256 36.6273 13.7057 36.5431 13.8925L36.5053 13.587C36.3974 13.587 36.6209 13.9519 36.4362 13.8947C36.4578 13.7727 36.3725 13.6528 36.3563 13.5319C36.2235 13.5988 36.3736 13.9562 36.23 13.9638C36.189 13.9055 36.365 13.5967 36.1868 13.6042C36.1512 13.6042 36.1674 13.7252 36.1739 13.7845C36.0583 13.4261 35.85 13.2728 35.7258 13.628C35.7205 13.5622 35.7205 13.4962 35.7258 13.4304C35.7328 13.3691 35.7254 13.307 35.7042 13.249C35.7042 13.2901 35.6945 13.4034 35.7042 13.4552L35.674 13.2652C35.651 13.2786 35.6293 13.2942 35.6092 13.3116C35.5964 13.3609 35.5927 13.4122 35.5984 13.4628L35.579 13.3354C35.5285 13.3781 35.4819 13.425 35.4397 13.4758C35.3587 13.6496 35.2237 13.8256 35.2302 13.9076C35.2507 14.59 35.2594 15.2853 35.2702 15.958Z" fill="#939393"/>
<path d="M42.2276 21.7662C42.2924 21.7662 42.3561 21.7133 42.3895 21.791C42.4597 22.035 42.2438 22.2456 42.3129 22.496L42.4208 22.5122C42.3798 22.712 42.3248 22.9171 42.2794 23.1331C42.3021 23.525 42.3366 23.9234 42.3874 24.3207C42.4262 24.3089 42.4619 24.3024 42.477 24.3423C42.4971 24.5552 42.5004 24.7693 42.4867 24.9826C42.4953 25.0182 42.5029 25.0539 42.5115 25.0906C42.5351 25.1116 42.5653 25.1239 42.5968 25.1251C42.5968 25.2331 42.5968 25.3335 42.5968 25.4242C42.8972 26.6651 43.3414 27.8667 43.9205 29.0045C44.0901 29.2452 44.2822 29.472 44.4118 29.7052C44.5072 29.8975 44.5898 30.0959 44.6591 30.299C44.7444 30.5052 44.8178 30.7179 44.9042 30.8907C45.0553 30.7827 45.2831 30.9037 45.4991 31.0051C45.5957 31.0589 45.7009 31.0954 45.81 31.1131C45.8554 31.1202 45.9018 31.1137 45.9435 31.0945C45.9851 31.0753 46.0202 31.0442 46.0443 31.0051C46.1071 31.1166 46.1755 31.2247 46.2495 31.3291C46.325 31.4219 46.3985 31.4824 46.447 31.4597C46.7407 31.3193 47.1273 31.2621 47.6347 31.5677C47.7253 31.6541 47.8041 31.7521 47.869 31.8592C47.937 31.9672 47.9953 32.0535 48.045 32.06C48.1303 32.0751 48.1109 31.9758 48.1065 31.8862C48.1022 31.7966 48.0936 31.707 48.1713 31.7156C47.675 31.1168 47.2317 30.4759 46.8465 29.8002C46.462 29.1001 46.1751 28.3507 45.9936 27.5728C45.941 27.4644 45.897 27.3522 45.8618 27.237C45.8133 27.0794 45.7614 26.8818 45.7107 26.6529C45.5956 26.1036 45.5155 25.5475 45.471 24.988C45.417 24.3704 45.3922 23.7193 45.3814 23.1525C45.3706 22.5857 45.3706 22.089 45.3814 21.7986L45.3727 21.6906C45.3727 21.06 45.2982 20.2546 45.0747 19.6921C44.944 19.4316 44.7976 19.1792 44.6364 18.9363C44.6095 19.0633 44.5734 19.1881 44.5284 19.3099C44.4852 19.0421 44.4323 18.77 44.3341 18.6858C44.1818 18.4223 44.0728 18.3932 43.9918 18.458C43.9005 18.5707 43.8189 18.691 43.7478 18.8175C43.6787 18.987 43.4628 18.8456 43.4109 19.0853C43.3742 18.933 43.358 18.8553 43.317 18.7031C43.2155 18.7139 43.5005 19.1555 43.304 19.0939C43.304 18.9406 43.2025 18.7927 43.1529 18.6512C43.0449 18.7419 43.2501 19.1727 43.1054 19.1846C43.0909 19.1014 43.0909 19.0163 43.1054 18.933C43.1092 18.8871 43.1037 18.8408 43.0892 18.797C43.0826 18.7801 43.0701 18.7662 43.054 18.7578C43.0379 18.7495 43.0193 18.7473 43.0017 18.7517C42.9844 18.7517 42.9866 18.7905 42.9952 18.8348C43.0039 18.8791 43.0147 18.9341 43.0233 18.9708C42.9884 18.8774 42.9393 18.79 42.8776 18.7117C42.8412 18.6576 42.7913 18.6141 42.7329 18.5854C42.64 18.5562 42.5774 18.6242 42.5461 18.8326C42.5137 18.7063 42.5072 18.5195 42.4381 18.4072C42.4586 18.4709 42.4705 18.5886 42.4932 18.6437L42.4122 18.4364C42.3949 18.458 42.3777 18.4806 42.3615 18.5033C42.3612 18.5603 42.3707 18.6169 42.3895 18.6707L42.3377 18.5379C42.3003 18.5942 42.266 18.6526 42.2351 18.7128C42.2121 18.8091 42.1822 18.9036 42.1455 18.9957C42.1321 19.031 42.1205 19.067 42.111 19.1036C42.102 19.1319 42.0994 19.1617 42.1034 19.1911C42.2027 19.9231 42.206 20.8236 42.2276 21.7662Z" fill="#939393"/>
<path d="M15.1125 28.4675C15.106 28.5323 15.1309 28.6003 15.0823 28.6263C15.0465 28.6328 15.0096 28.6302 14.975 28.6187C14.9405 28.6072 14.9094 28.5871 14.8847 28.5604C14.8242 28.5129 14.7659 28.4654 14.6914 28.487L14.6666 28.5949C14.5586 28.5377 14.4593 28.4546 14.3545 28.3887C14.2466 28.3747 14.1462 28.3607 14.0404 28.352C13.9345 28.3434 13.8331 28.325 13.7272 28.3142C13.7272 28.352 13.7143 28.3876 13.6905 28.3941C13.5811 28.3729 13.4767 28.3311 13.3828 28.271H13.3256C13.3053 28.2911 13.2891 28.3149 13.2781 28.3412C13.2312 28.3194 13.1864 28.2933 13.1442 28.2635C12.4396 28.2316 11.7483 28.0606 11.1101 27.7603C10.9321 27.7324 10.7608 27.6721 10.6048 27.5822C10.5053 27.499 10.4219 27.3984 10.3586 27.2853L10.2506 27.1158C10.2215 27.0585 10.1923 27.0078 10.1621 26.9538C10.0185 27.0747 9.82845 27.0423 9.63734 27.0099C9.44624 26.9776 9.26917 26.9355 9.13744 27.0877C9.05755 26.9322 8.93446 26.7022 8.83837 26.7379C8.67893 26.8022 8.50632 26.827 8.33523 26.8102C8.1148 26.7799 7.91195 26.6733 7.76191 26.509C7.64422 26.3416 7.65394 26.0112 7.56756 25.9691C7.50278 25.941 7.46931 26.0123 7.4434 26.0944C7.41748 26.1764 7.38833 26.2563 7.32031 26.2229C7.54736 26.9588 7.90064 27.6497 8.36438 28.2646C8.843 28.9032 9.40431 29.4754 10.0336 29.9662C10.0671 29.9802 10.1092 30.0018 10.161 30.0299C10.2128 30.0579 10.269 30.0882 10.3435 30.126C10.4806 30.2026 10.6458 30.303 10.8412 30.4002C11.2843 30.6386 11.7453 30.8422 12.22 31.0092C12.7061 31.1782 13.2037 31.3125 13.7089 31.4108C14.1602 31.4983 14.5381 31.5544 14.7562 31.589H14.8372C15.3155 31.6516 15.9028 31.6267 16.2937 31.4626C16.4743 31.3599 16.6488 31.2467 16.8163 31.1236C16.7325 31.0745 16.6517 31.0205 16.5744 30.9616C16.7547 30.9552 16.9361 30.9422 16.9966 30.8666C17.3572 30.6583 17.1045 30.5028 16.9415 30.2685C16.8335 30.1691 16.9415 29.9845 16.7774 29.8895C16.8854 29.883 16.9383 29.8787 17.0473 29.869C17.0473 29.761 16.7234 29.9651 16.7774 29.7826C16.8854 29.8118 16.9933 29.7329 17.1013 29.7222C17.0441 29.5883 16.731 29.7221 16.731 29.5732C16.7817 29.5364 17.0473 29.7286 17.043 29.5505C17.043 29.5149 16.935 29.5235 16.8864 29.5278C17.1996 29.4306 17.3183 29.2341 17.0236 29.0905C17.0789 29.09 17.1341 29.094 17.1888 29.1024C17.236 29.1124 17.285 29.1086 17.3302 29.0916C17.3205 29.0901 17.3107 29.0901 17.301 29.0916L17.2557 29.0851C17.2266 29.0821 17.1973 29.0821 17.1682 29.0851L17.3183 29.0646C17.3082 29.0412 17.2959 29.0188 17.2816 28.9977C17.243 28.982 17.2012 28.9754 17.1596 28.9782L17.2676 28.9653C17.2321 28.9147 17.1935 28.8664 17.152 28.8206C17.0106 28.731 16.8648 28.5831 16.7979 28.5874C16.2246 28.5701 15.6545 28.5215 15.1125 28.4675Z" fill="#5A5A5A"/>
<path d="M18.8406 30.9584C18.8687 31.0189 19.1645 30.8969 18.7758 31.196C18.4659 31.4292 18.1647 31.6419 17.871 31.8578C17.7231 31.9658 17.5784 32.0738 17.4327 32.1817L17.0969 32.4538C16.9889 32.5445 16.8658 32.6546 16.7503 32.754C16.6348 32.8533 16.5344 32.9699 16.4177 33.0779L16.2526 33.2398L16.1694 33.3219L16.1284 33.364L16.1176 33.3737C16.1171 33.3784 16.1171 33.3831 16.1176 33.3878V33.4169C16.1176 33.5691 16.1176 33.7214 16.1176 33.8747V34.1079C16.1176 34.1856 16.1262 34.2666 16.1295 34.3476C16.1489 34.6089 16.1683 34.8749 16.1878 35.1455C16.2018 35.3161 16.2191 35.491 16.2418 35.6692L16.3551 35.7631C16.3983 36.8871 16.4437 38.0585 16.4901 39.2548L16.7384 42.1312L17.5557 42.3773L17.9596 42.5026L18.0589 42.5339L18.1096 42.549L18.1345 42.5565H18.1431L18.2284 42.5706L18.453 42.6149L18.7683 42.6818L18.8535 42.7012L18.9712 42.7282L19.2066 42.7822L19.74 42.9075L20.4429 42.3514C20.5555 42.2646 20.6726 42.1839 20.7938 42.1096C20.9104 42.0329 21.027 41.9552 21.1403 41.8936L21.6187 41.6097L21.962 41.4229C21.8983 41.4121 21.854 41.3926 22.0289 41.2879C22.761 40.8809 23.8482 40.4166 25.0165 39.9977C25.186 39.9264 25.3512 39.8498 25.5207 39.7817C25.647 39.7137 25.6686 39.6662 25.6826 39.637L26.4384 39.3812L26.7915 39.2656L27.1359 39.1652L28.1919 38.7916C28.5449 38.6686 28.9055 38.5595 29.2629 38.4418L29.8028 38.268C29.982 38.2086 30.1623 38.1514 30.3426 38.0996L31.4364 37.7756L31.9848 37.6137C32.1684 37.5597 32.3498 37.5176 32.5322 37.4679L33.6314 37.1829C34.3721 37.0231 35.1149 36.8449 35.8718 36.7219C37.4033 36.445 38.9519 36.2726 40.5069 36.2058C40.901 36.1928 41.2972 36.1755 41.6946 36.1809C41.8932 36.1809 42.093 36.1809 42.2927 36.1809L42.892 36.2004L43.2774 36.2122C43.3854 36.2122 43.4933 36.2198 43.6121 36.2284C43.841 36.2425 44.0807 36.2641 44.3312 36.2975C44.4392 36.3094 44.5741 36.3299 44.708 36.3537C44.7901 36.3451 44.7836 36.4174 44.7911 36.4617C44.7966 36.5105 44.7966 36.5597 44.7911 36.6085C44.7751 36.7057 44.7445 36.8 44.7005 36.8881C44.6047 37.0765 44.4825 37.2503 44.3377 37.4042C44.1767 37.5731 44.0031 37.7294 43.8183 37.8717L43.6726 37.9797C43.6251 38.0175 43.5711 38.051 43.4933 38.1028C43.3476 38.1956 43.2094 38.295 43.0615 38.3803C42.0851 38.9321 41.0645 39.4016 40.0102 39.7839C39.7338 39.8821 39.4628 39.9901 39.1864 40.0808L38.3713 40.355L37.5777 40.6034C37.3207 40.6844 37.0691 40.7632 36.8219 40.8323C37.026 40.964 35.9581 41.4412 34.9486 41.8569L34.2274 42.1581C34.0114 42.2521 33.8106 42.3395 33.6638 42.4173C33.369 42.5717 33.2675 42.6829 33.532 42.712C33.2006 42.7984 32.8248 42.8815 32.4524 42.9722L31.3586 43.2346C30.6795 43.3944 30.158 43.5337 30.117 43.5974C30.0243 43.7271 29.9069 43.8372 29.7715 43.9213C29.5211 44.0807 29.257 44.2173 28.9822 44.3294C28.2696 44.6371 27.1467 45.0042 25.363 45.4242C23.9594 45.7276 21.7806 45.9446 21.2947 46.0904C20.5292 46.3193 23.1561 46.0116 22.3906 46.2394C24.6609 45.8975 26.911 45.4991 29.1409 45.0442C31.3737 44.5885 33.5904 44.0725 35.7973 43.4538C38.0042 42.8351 40.1992 42.1225 42.3834 41.1389L42.7915 40.9521C42.9276 40.8873 43.0636 40.8172 43.1986 40.7502C43.3335 40.6833 43.4707 40.6153 43.6067 40.544L44.0127 40.3216L44.2157 40.2136L44.4187 40.0927L44.6216 39.9696L44.7296 39.907C44.7803 39.8757 44.8257 39.8497 44.8872 39.8066L45.5674 39.3272L45.738 39.2073C45.7931 39.1663 45.8395 39.1199 45.8914 39.0767L46.1926 38.8132C46.9829 38.1071 47.5347 37.3254 47.7042 36.5826C47.8065 36.2138 47.8202 35.8261 47.7441 35.4511C47.7042 35.22 47.6837 35.1325 47.6556 34.9879L47.5649 34.5268C47.2723 34.448 46.9808 34.3692 46.6763 34.2947C46.3718 34.2202 46.0857 34.1338 45.7445 34.0788C45.4033 34.0237 45.0891 33.9568 44.7544 33.9049L43.7082 33.7872L43.4491 33.7581L43.3184 33.743C43.2709 33.7365 43.2418 33.7354 43.2105 33.7333L42.9287 33.7138L42.364 33.676C41.9872 33.6609 41.6082 33.6458 41.2325 33.635C40.6214 33.662 39.4423 33.6609 37.8854 33.8121C36.005 33.9877 34.1384 34.2881 32.298 34.7115L31.499 34.895C31.2323 34.9598 30.9699 35.0321 30.7 35.1023L29.8881 35.3183C29.6138 35.3895 29.3385 35.4597 29.0621 35.5428C28.5093 35.7059 27.9468 35.8667 27.381 36.0352C26.8152 36.2036 26.2495 36.3947 25.6816 36.5945L24.8243 36.8979L24.3924 37.0501L23.9605 37.2174L23.1054 37.5522L22.2568 37.9182C21.9728 38.0359 21.6942 38.173 21.4146 38.3058L20.9967 38.5055C20.8575 38.5757 20.7203 38.6502 20.5821 38.7215L20.1708 38.9374C20.1017 38.972 20.0347 39.0151 19.9667 39.0529L19.8911 39.0983C19.8479 39.1231 19.821 39.1404 19.7832 39.1641C19.7212 39.2045 19.6634 39.2508 19.6104 39.3023L19.5888 39.3261C19.5888 39.3261 19.5888 39.3088 19.5888 39.3002V39.2397C19.5888 39.1998 19.5813 39.1587 19.578 39.1199C19.4701 37.7681 19.3686 36.5286 19.2822 35.4586C19.2681 35.2783 19.2541 35.1023 19.2401 34.9296C19.2347 34.8486 19.2282 34.7687 19.2217 34.6888V34.6564C19.2217 34.6337 19.2217 34.6132 19.2217 34.5927C19.2217 34.5722 19.2304 34.5754 19.2368 34.5689L19.2595 34.5495L19.5251 34.3336C19.7072 34.1896 19.8789 34.0615 20.0401 33.9492C20.1783 33.8412 20.323 33.7462 20.4634 33.6447C21.8803 32.7112 23.3876 31.9227 24.9625 31.291C25.7636 30.9671 26.5691 30.682 27.3378 30.4272C28.1066 30.1724 28.8494 29.9608 29.5188 29.7794C30.7453 29.4209 32.0172 29.1024 33.3053 28.8563C32.6953 28.8703 32.1263 28.8735 31.6339 28.8951L32.1284 28.8217C32.2915 28.798 32.4524 28.7818 32.6143 28.7612C32.9382 28.7256 33.2384 28.6803 33.5191 28.6533C34.0827 28.5982 34.5405 28.5302 34.7953 28.4848C35.5047 28.3995 35.9365 28.3283 36.1676 28.2808C36.3986 28.2333 36.43 28.1814 36.3349 28.1361C36.1469 28.0699 35.9521 28.0246 35.7541 28.0011C35.4874 27.9623 35.1743 27.9223 34.8903 27.877C34.4865 27.8467 34.5513 27.769 34.5588 27.701C34.5664 27.633 34.52 27.5595 33.8851 27.5639L34.4951 27.5099L35.022 27.4786C35.3643 27.4624 35.7066 27.4311 36.1644 27.4235C36.1892 27.3965 36.0261 27.3911 35.7767 27.3987C35.5273 27.4062 35.1937 27.4375 34.8763 27.4613C34.5588 27.485 34.2565 27.5099 34.0741 27.5164C33.8916 27.5228 33.8257 27.5066 33.9801 27.4483C34.4196 27.4224 34.8849 27.3889 35.3546 27.349C35.8242 27.3091 36.2982 27.2799 36.7582 27.2648C36.5984 27.2011 35.8037 27.2022 35.0674 27.2464L34.5362 27.2691L34.0913 27.2939C33.8376 27.3037 33.6832 27.2939 33.7156 27.2583C34.209 27.1579 36.3069 27.2637 36.471 27.0953C36.4883 27.078 36.2669 27.0748 35.983 27.0791C35.699 27.0834 35.3557 27.1071 35.1257 27.1179C35.8318 27.051 36.4591 27.0219 36.9612 26.9743C37.4632 26.9268 37.8454 26.9085 38.056 26.8664C38.4781 26.794 38.2244 26.6958 36.9191 26.6202C37.3715 26.6072 37.9178 26.6332 38.4695 26.644C39.0212 26.6548 39.5773 26.6969 40.0556 26.6947H40.048C39.8105 26.6871 39.4855 26.6688 39.1659 26.6504C38.8463 26.6321 38.5311 26.6137 38.3108 26.617C38.5818 26.617 38.8506 26.6267 39.1238 26.6332L39.9368 26.6569C39.8526 26.631 39.7565 26.604 39.655 26.577C39.2501 26.5479 38.8431 26.5144 38.4188 26.5112C38.7794 26.5112 39.14 26.5295 39.4985 26.5381C39.2296 26.4744 38.9197 26.4118 38.5786 26.3524C37.2894 26.2358 36.038 26.1052 35.333 26.1495C33.9053 26.2068 32.4816 26.3405 31.0682 26.55C29.6418 26.7577 28.2292 27.0508 26.8379 27.4278C25.4335 27.8056 24.0583 28.2848 22.7232 28.8617C21.3685 29.4423 20.0691 30.1441 18.8406 30.9584Z" fill="#939393"/>
</svg>
