<svg width="60" height="18" viewBox="0 0 60 18" fill="none" xmlns="http://www.w3.org/2000/svg">
<path d="M5.20113 0H0.2382C0.106645 0 0 0.109941 0 0.245561V17.4753C0 17.6109 0.106645 17.7209 0.2382 17.7209H5.20113C5.33269 17.7209 5.43933 17.6109 5.43933 17.4753V0.245561C5.43933 0.109941 5.33269 0 5.20113 0Z" fill="#525252"/>
<path d="M11.5573 17.7209C11.4941 17.7209 11.4335 17.695 11.3889 17.649C11.3442 17.6029 11.3191 17.5405 11.3191 17.4753V5.89346C11.3191 5.82833 11.294 5.76587 11.2493 5.71982C11.2047 5.67377 11.1441 5.64789 11.0809 5.64789H7.23039C7.16721 5.64789 7.10663 5.62202 7.06195 5.57597C7.01728 5.52992 6.99219 5.46746 6.99219 5.40233V0.245561C6.99219 0.180434 7.01728 0.117975 7.06195 0.071923C7.10663 0.0258715 7.16721 0 7.23039 0L20.609 0C20.6721 0 20.7327 0.0258715 20.7774 0.071923C20.8221 0.117975 20.8472 0.180434 20.8472 0.245561V5.40233C20.8472 5.46746 20.8221 5.52992 20.7774 5.57597C20.7327 5.62202 20.6721 5.64789 20.609 5.64789H16.9966C16.9335 5.64789 16.8729 5.67377 16.8282 5.71982C16.7835 5.76587 16.7584 5.82833 16.7584 5.89346V17.4753C16.7584 17.5405 16.7333 17.6029 16.6887 17.649C16.644 17.695 16.5834 17.7209 16.5202 17.7209H11.5573Z" fill="#525252"/>
<path d="M22.0059 17.7209C21.8749 17.7209 21.8225 17.6263 21.8868 17.5109L28.7363 5.89346C28.8042 5.77804 28.753 5.6835 28.6172 5.6835H22.8265C22.7633 5.6835 22.7028 5.65763 22.6581 5.61158C22.6134 5.56553 22.5883 5.50307 22.5883 5.43794V0.245561C22.5883 0.180434 22.6134 0.117975 22.6581 0.071923C22.7028 0.0258715 22.7633 0 22.8265 0L38.0607 0C38.1917 0 38.2429 0.0945409 38.1798 0.209954L31.3732 11.8225C31.3053 11.9379 31.3565 12.0325 31.4923 12.0325H38.4335C38.4966 12.0325 38.5572 12.0583 38.6019 12.1044C38.6466 12.1504 38.6717 12.2129 38.6717 12.278V17.4753C38.6717 17.5405 38.6466 17.6029 38.6019 17.649C38.5572 17.695 38.4966 17.7209 38.4335 17.7209H22.0059Z" fill="#525252"/>
<path d="M54.2256 17.7212C54.1547 17.716 54.0857 17.6944 54.0239 17.658C53.962 17.6217 53.9089 17.5716 53.8683 17.5113L50.0666 11.0358C50.057 11.0102 50.0401 10.9882 50.0181 10.9726C49.9961 10.9571 49.97 10.9488 49.9434 10.9488C49.9167 10.9488 49.8907 10.9571 49.8687 10.9726C49.8467 10.9882 49.8297 11.0102 49.8201 11.0358L46.0256 17.5113C45.9854 17.572 45.9324 17.6225 45.8705 17.6589C45.8085 17.6953 45.7394 17.7166 45.6683 17.7212H40.0288C39.8978 17.7212 39.8466 17.6267 39.9097 17.5113L49.7844 0.662122C49.7945 0.636694 49.8118 0.614948 49.8339 0.599645C49.8561 0.584342 49.8822 0.576172 49.9088 0.576172C49.9355 0.576172 49.9616 0.584342 49.9837 0.599645C50.0059 0.614948 50.0231 0.636694 50.0333 0.662122L53.0251 5.65805L53.2728 6.07673L59.9711 17.5113C60.0389 17.6267 59.9877 17.7212 59.852 17.7212H54.2256Z" fill="#525252"/>
</svg>
