<svg width="60" height="34" viewBox="0 0 60 34" fill="none" xmlns="http://www.w3.org/2000/svg">
<path fill-rule="evenodd" clip-rule="evenodd" d="M2.03295 3.06055C2.3509 3.05983 2.66461 3.1335 2.949 3.2757C3.23338 3.41789 3.48055 3.62465 3.67074 3.87945C3.7133 3.95038 3.77549 4.00747 3.84981 4.0438C3.92413 4.08014 4.00738 4.09416 4.0895 4.08417H24.1989C24.2687 4.08273 24.3379 4.09609 24.402 4.12336C24.4662 4.15063 24.5238 4.19119 24.5712 4.24237L28.4981 8.17864C28.5875 8.28564 28.7136 8.35535 28.8518 8.37406H50.6548C50.793 8.37406 50.9256 8.42897 51.0233 8.52669C51.1211 8.62442 51.176 8.75697 51.176 8.89518V9.82574C51.176 9.96395 51.1211 10.0965 51.0233 10.1942C50.9256 10.292 50.793 10.3469 50.6548 10.3469H28.0422C27.9739 10.3476 27.9063 10.3338 27.8438 10.3066C27.7812 10.2793 27.7252 10.2391 27.6793 10.1887L23.743 6.22446C23.6964 6.1723 23.6389 6.13108 23.5746 6.10373C23.5102 6.07638 23.4406 6.06359 23.3707 6.06627H4.0895C4.00712 6.06249 3.92517 6.08024 3.85174 6.11777C3.77831 6.1553 3.71593 6.21132 3.67074 6.2803C3.46679 6.56147 3.19407 6.78556 2.87869 6.93111C2.56331 7.07666 2.21584 7.13879 1.86956 7.11155C1.52328 7.08432 1.1898 6.96863 0.90105 6.77556C0.612302 6.58249 0.377964 6.31852 0.220482 6.00892C0.0630003 5.69933 -0.0123502 5.35448 0.00164838 5.00742C0.0156469 4.66035 0.118526 4.3227 0.30043 4.02679C0.482335 3.73088 0.737171 3.48664 1.04053 3.31745C1.34389 3.14827 1.68561 3.05981 2.03295 3.06055ZM4.0895 18.117H24.1989C24.2687 18.1156 24.3379 18.129 24.402 18.1562C24.4662 18.1835 24.5238 18.2241 24.5712 18.2752L28.4981 22.2115C28.5986 22.2913 28.7235 22.334 28.8518 22.3325H45.2297C45.2989 22.3313 45.3676 22.3438 45.4319 22.3695C45.4962 22.3951 45.5548 22.4333 45.6042 22.4818C45.6536 22.5303 45.6928 22.5882 45.7195 22.652C45.7463 22.7159 45.7601 22.7844 45.7601 22.8536V23.7842C45.7601 23.8534 45.7463 23.9219 45.7195 23.9858C45.6928 24.0496 45.6536 24.1075 45.6042 24.156C45.5548 24.2045 45.4962 24.2427 45.4319 24.2683C45.3676 24.294 45.2989 24.3065 45.2297 24.3053H28.0422C27.9739 24.306 27.9063 24.2923 27.8438 24.265C27.7812 24.2377 27.7252 24.1976 27.6793 24.1471L23.743 20.2201C23.6964 20.168 23.6389 20.1267 23.5746 20.0994C23.5102 20.072 23.4406 20.0592 23.3707 20.0619H4.0895C4.0074 20.0599 3.92609 20.0784 3.85297 20.1158C3.77984 20.1532 3.7172 20.2082 3.67074 20.276C3.41809 20.6177 3.06404 20.871 2.65903 20.9999C2.25401 21.1287 1.81867 21.1264 1.41501 20.9934C1.01135 20.8604 0.659952 20.6034 0.410851 20.2591C0.16175 19.9147 0.0276508 19.5005 0.0276508 19.0755C0.0276508 18.6505 0.16175 18.2363 0.410851 17.892C0.659952 17.5476 1.01135 17.2907 1.41501 17.1576C1.81867 17.0246 2.25401 17.0224 2.65903 17.1512C3.06404 17.28 3.41809 17.5333 3.67074 17.8751C3.7133 17.946 3.77549 18.0031 3.84981 18.0395C3.92413 18.0758 4.00738 18.0898 4.0895 18.0798V18.117ZM10.4266 11.1006H24.1989C24.2687 11.0992 24.3379 11.1125 24.402 11.1398C24.4662 11.1671 24.5238 11.2076 24.5712 11.2588L28.4981 15.1951C28.5981 15.2925 28.7309 15.3489 28.8704 15.3533H48.7007C48.8389 15.3533 48.9714 15.4082 49.0691 15.5059C49.1669 15.6036 49.2218 15.7362 49.2218 15.8744V16.805C49.2218 16.9432 49.1669 17.0757 49.0691 17.1734C48.9714 17.2712 48.8389 17.3261 48.7007 17.3261H28.0422C27.9739 17.3268 27.9063 17.3131 27.8438 17.2858C27.7812 17.2585 27.7252 17.2183 27.6793 17.1679L23.743 13.2409C23.6964 13.1887 23.6389 13.1475 23.5746 13.1202C23.5102 13.0928 23.4406 13.08 23.3707 13.0827H10.4266C10.3432 13.0808 10.2606 13.0993 10.186 13.1366C10.1114 13.1739 10.0471 13.2289 9.99857 13.2967C9.74591 13.6385 9.39187 13.8918 8.98685 14.0206C8.58183 14.1495 8.1465 14.1472 7.74284 14.0142C7.33918 13.8812 6.98778 13.6242 6.73868 13.2799C6.48957 12.9355 6.35547 12.5213 6.35547 12.0963C6.35547 11.6713 6.48957 11.2571 6.73868 10.9128C6.98778 10.5684 7.33918 10.3114 7.74284 10.1784C8.1465 10.0454 8.58183 10.0432 8.98685 10.172C9.39187 10.3008 9.74591 10.5541 9.99857 10.8959C10.045 10.9653 10.1092 11.0209 10.1845 11.0569C10.2599 11.0929 10.3435 11.108 10.4266 11.1006Z" fill="#939393"/>
<path d="M44.2181 33.5544C40.5393 32.2568 37.3098 29.9315 34.9124 26.8543C34.8534 26.7732 34.8216 26.6755 34.8216 26.5751C34.8216 26.4748 34.8534 26.3771 34.9124 26.296C34.9579 26.2167 35.0248 26.1519 35.1055 26.1091C35.1862 26.0663 35.2773 26.0472 35.3684 26.054H39.2396C39.3748 26.0539 39.5061 26.0999 39.6118 26.1843C41.1036 27.6116 42.8489 28.7478 44.7578 29.5343C44.8192 29.5621 44.8858 29.5764 44.9532 29.5764C45.0206 29.5764 45.0872 29.5621 45.1486 29.5343C47.1139 28.7412 48.9036 27.5687 50.4157 26.0838C51.9277 24.5989 53.1324 22.8307 53.961 20.8801C55.7012 16.8973 56.334 11.9188 56.0176 6.08417C56.0168 5.97502 55.9798 5.86922 55.9125 5.78334C55.8451 5.69746 55.7512 5.63635 55.6454 5.60958C54.3362 5.18203 53.0032 4.83092 51.6533 4.55804C49.4354 4.13961 47.1822 3.93704 44.9253 3.95318C42.6714 3.93481 40.421 4.1374 38.2066 4.55804C36.7534 4.83613 35.3178 5.19968 33.9074 5.6468C33.8802 5.65538 33.8509 5.65538 33.8237 5.6468L30.5016 6.04694C30.4251 6.0571 30.3472 6.05073 30.2734 6.02825C30.1996 6.00578 30.1314 5.96773 30.0735 5.91667C30.0185 5.86048 29.9759 5.7933 29.9487 5.71954C29.9214 5.64577 29.91 5.56707 29.9153 5.48861C29.9153 5.01402 29.9711 4.55804 29.9991 4.04624L30.0735 3.11567C30.0886 3.01092 30.1309 2.91196 30.1963 2.82868C30.2616 2.74539 30.3476 2.68071 30.4457 2.64109L31.3763 2.3247C33.3614 1.62823 35.3957 1.08079 37.4622 0.686906C42.3829 -0.228969 47.4304 -0.228969 52.3512 0.686906C54.4376 1.08203 56.4908 1.63577 58.4929 2.34331L59.3676 2.6597C59.4657 2.69815 59.5513 2.7627 59.6153 2.84636C59.6793 2.93002 59.7191 3.02959 59.7305 3.13428L59.8143 4.06485C60.3726 11.2395 59.7119 17.437 57.5158 22.4155C56.4164 24.9999 54.7889 27.3258 52.7376 29.244C50.6864 31.1623 48.2567 32.6305 45.6046 33.5544L45.1021 33.7405C44.9818 33.7592 44.8594 33.7592 44.7392 33.7405L44.2181 33.5544Z" fill="#5A5A5A"/>
</svg>
