<svg width="46" height="46" viewBox="0 0 46 46" fill="none" xmlns="http://www.w3.org/2000/svg">
<path d="M18.9731 23.0943C24.9039 16.2859 25.3698 5.31101 21.9091 0H8.19724C6.02319 0 3.93819 0.863635 2.40091 2.40091C0.863635 3.93819 0 6.02319 0 8.19724L0 36.969C0 39.143 0.863635 41.228 2.40091 42.7653C3.93819 44.3026 6.02319 45.1662 8.19724 45.1662H11.1016C8.69034 36.2949 12.8387 30.1606 18.9731 23.0943Z" fill="#939393"/>
<path d="M36.9655 0H25.1039C34.4638 5.96245 39.3948 20.6967 28.7592 28.9844C17.8703 37.4711 12.7583 37.7607 12.3828 45.1662H36.9655C39.1395 45.1662 41.2245 44.3026 42.7618 42.7653C44.2991 41.228 45.1627 39.143 45.1627 36.969V8.19724C45.1627 6.02319 44.2991 3.93819 42.7618 2.40091C41.2245 0.863635 39.1395 0 36.9655 0V0Z" fill="#939393"/>
</svg>
