<svg width="107" height="60" viewBox="0 0 107 60" fill="none" xmlns="http://www.w3.org/2000/svg">
<path fill-rule="evenodd" clip-rule="evenodd" d="M3.61366 5.43897C4.17883 5.43768 4.73646 5.56865 5.24197 5.8214C5.74747 6.07416 6.18683 6.44168 6.5249 6.89459C6.60054 7.02069 6.7111 7.12216 6.8432 7.18675C6.9753 7.25133 7.12328 7.27625 7.26925 7.2585H43.0146C43.1385 7.25594 43.2615 7.27969 43.3756 7.32816C43.4896 7.37663 43.5921 7.44873 43.6763 7.5397L50.6566 14.5366C50.8154 14.7268 51.0397 14.8507 51.2852 14.884H90.0411C90.2867 14.884 90.5223 14.9816 90.696 15.1553C90.8698 15.329 90.9674 15.5646 90.9674 15.8103V17.4644C90.9674 17.71 90.8698 17.9457 90.696 18.1194C90.5223 18.2931 90.2867 18.3907 90.0411 18.3907H49.8461C49.7248 18.3919 49.6047 18.3675 49.4935 18.3191C49.3823 18.2706 49.2826 18.1992 49.201 18.1095L42.2041 11.063C42.1213 10.9702 42.0191 10.897 41.9047 10.8483C41.7904 10.7997 41.6667 10.777 41.5425 10.7818H7.26925C7.12281 10.775 6.97716 10.8066 6.84663 10.8733C6.71611 10.94 6.60522 11.0396 6.5249 11.1622C6.16237 11.662 5.67759 12.0603 5.11699 12.319C4.55638 12.5778 3.93874 12.6882 3.32322 12.6398C2.7077 12.5914 2.11491 12.3857 1.60165 12.0426C1.08839 11.6994 0.671847 11.2301 0.391916 10.6798C0.111986 10.1295 -0.021953 9.51653 0.00293006 8.89961C0.0278131 8.28268 0.210684 7.68249 0.534027 7.1565C0.857369 6.63051 1.31035 6.19636 1.84958 5.89563C2.38882 5.5949 2.99624 5.43766 3.61366 5.43897ZM7.26925 32.2025H43.0146C43.1385 32.2 43.2615 32.2237 43.3756 32.2722C43.4896 32.3206 43.5921 32.3927 43.6763 32.4837L50.6566 39.4806C50.8352 39.6224 51.0572 39.6983 51.2852 39.6956H80.3976C80.5206 39.6935 80.6428 39.7158 80.7571 39.7614C80.8714 39.8069 80.9755 39.8748 81.0633 39.961C81.1511 40.0473 81.2208 40.1501 81.2684 40.2636C81.3159 40.3771 81.3404 40.4989 81.3404 40.622V42.2761C81.3404 42.3991 81.3159 42.5209 81.2684 42.6344C81.2208 42.7479 81.1511 42.8507 81.0633 42.937C80.9755 43.0232 80.8714 43.0911 80.7571 43.1367C80.6428 43.1822 80.5206 43.2046 80.3976 43.2024H49.8461C49.7248 43.2036 49.6047 43.1792 49.4935 43.1308C49.3823 43.0823 49.2826 43.0109 49.201 42.9212L42.2041 35.9408C42.1213 35.8481 42.0191 35.7748 41.9047 35.7262C41.7904 35.6776 41.6667 35.6549 41.5425 35.6596H7.26925C7.12331 35.656 6.97879 35.689 6.84881 35.7554C6.71882 35.8218 6.60748 35.9197 6.5249 36.0401C6.07579 36.6475 5.44646 37.0978 4.72653 37.3268C4.00659 37.5558 3.23277 37.5518 2.51525 37.3154C1.79772 37.0789 1.17309 36.6222 0.730304 36.01C0.287517 35.3979 0.0491505 34.6617 0.0491505 33.9063C0.0491505 33.1508 0.287517 32.4146 0.730304 31.8025C1.17309 31.1904 1.79772 30.7336 2.51525 30.4971C3.23277 30.2607 4.00659 30.2567 4.72653 30.4857C5.44646 30.7147 6.07579 31.165 6.5249 31.7724C6.60054 31.8985 6.7111 32 6.8432 32.0646C6.9753 32.1292 7.12328 32.1541 7.26925 32.1364V32.2025ZM18.5338 19.7305H43.0146C43.1385 19.728 43.2615 19.7517 43.3756 19.8002C43.4896 19.8486 43.5921 19.9207 43.6763 20.0117L50.6566 27.0086C50.8343 27.1817 51.0703 27.2821 51.3183 27.2898H86.5674C86.8131 27.2898 87.0487 27.3874 87.2224 27.5611C87.3961 27.7348 87.4937 27.9704 87.4937 28.2161V29.8702C87.4937 30.1159 87.3961 30.3515 87.2224 30.5252C87.0487 30.6989 86.8131 30.7965 86.5674 30.7965H49.8461C49.7248 30.7978 49.6047 30.7734 49.4935 30.7249C49.3823 30.6765 49.2826 30.605 49.201 30.5153L42.2041 23.535C42.1213 23.4423 42.0191 23.369 41.9047 23.3204C41.7904 23.2717 41.6667 23.249 41.5425 23.2538H18.5338C18.3855 23.2504 18.2387 23.2833 18.1061 23.3496C17.9735 23.4159 17.8591 23.5136 17.7729 23.6342C17.3238 24.2417 16.6944 24.692 15.9745 24.921C15.2546 25.15 14.4807 25.146 13.7632 24.9095C13.0457 24.6731 12.4211 24.2163 11.9783 23.6042C11.5355 22.9921 11.2971 22.2559 11.2971 21.5004C11.2971 20.7449 11.5355 20.0087 11.9783 19.3966C12.4211 18.7845 13.0457 18.3277 13.7632 18.0913C14.4807 17.8549 15.2546 17.8509 15.9745 18.0798C16.6944 18.3088 17.3238 18.7591 17.7729 19.3666C17.8554 19.4899 17.9696 19.5888 18.1034 19.6528C18.2373 19.7169 18.3859 19.7437 18.5338 19.7305Z" fill="white"/>
<path d="M78.5978 59.6443C72.0587 57.3377 66.3182 53.2045 62.0567 47.7347C61.9518 47.5905 61.8953 47.4167 61.8953 47.2384C61.8953 47.0601 61.9518 46.8864 62.0567 46.7422C62.1374 46.6013 62.2564 46.4862 62.3998 46.4101C62.5432 46.3339 62.7053 46.3 62.8672 46.3121H69.7483C69.9888 46.3119 70.2221 46.3936 70.41 46.5437C73.0618 49.0808 76.164 51.1003 79.5572 52.4985C79.6664 52.5478 79.7848 52.5733 79.9046 52.5733C80.0244 52.5733 80.1428 52.5478 80.2519 52.4985C83.7452 51.0886 86.9266 49.0045 89.6143 46.365C92.302 43.7255 94.4435 40.5824 95.9164 37.1153C99.0096 30.0356 100.134 21.1861 99.572 10.8149C99.5706 10.6209 99.5049 10.4328 99.3851 10.2801C99.2654 10.1275 99.0984 10.0188 98.9103 9.97126C96.5832 9.21127 94.2138 8.58717 91.8142 8.10211C87.8718 7.35833 83.8667 6.99826 79.8549 7.02694C75.8485 6.99429 71.8485 7.35441 67.9122 8.10211C65.3291 8.59642 62.7773 9.24265 60.2702 10.0374C60.2218 10.0527 60.1698 10.0527 60.1214 10.0374L54.2162 10.7487C54.0802 10.7667 53.9419 10.7554 53.8106 10.7155C53.6794 10.6755 53.5582 10.6079 53.4553 10.5171C53.3575 10.4172 53.2819 10.2978 53.2334 10.1667C53.185 10.0356 53.1647 9.8957 53.1741 9.75623C53.1741 8.91263 53.2733 8.10211 53.323 7.19235L53.4553 5.53824C53.4821 5.35203 53.5574 5.17612 53.6735 5.02809C53.7896 4.88005 53.9425 4.76508 54.1169 4.69464L55.7711 4.13224C59.2996 2.89425 62.9156 1.92114 66.589 1.221C75.3358 -0.407001 84.3079 -0.407001 93.0548 1.221C96.7634 1.92335 100.413 2.90765 103.972 4.16532L105.527 4.72772C105.701 4.79607 105.853 4.91081 105.967 5.05952C106.081 5.20822 106.152 5.38522 106.172 5.57132L106.321 7.22543C107.313 19.9786 106.139 30.995 102.235 39.8445C100.281 44.4383 97.3879 48.5727 93.7417 51.9825C90.0955 55.3922 85.7767 58.002 81.0624 59.6443L80.1692 59.9751C79.9555 60.0083 79.7379 60.0083 79.5241 59.9751L78.5978 59.6443Z" fill="white"/>
</svg>
