<svg width="68" height="60" viewBox="0 0 68 60" fill="none" xmlns="http://www.w3.org/2000/svg">
<path fill-rule="evenodd" clip-rule="evenodd" d="M11.5614 0.800543C10.7651 1.59652 10.7609 1.63565 10.7609 8.08044C10.7609 14.5598 10.7609 14.5598 15 20.4567C19.2391 26.3537 19.2391 26.3537 19.2391 38.8953C19.2391 51.437 19.2391 51.437 15.5707 52.1651C13.5532 52.5655 11.0217 53.2083 9.94565 53.5934C8.30478 54.1803 7.97315 54.4295 7.89098 55.1367C7.83522 55.6174 8.01946 56.1675 8.31978 56.417C8.7662 56.7874 9.47772 56.6958 12.9832 55.8176C15.2583 55.2476 18.6603 54.556 20.5435 54.2808C22.4266 54.0059 26.9022 53.6925 30.4891 53.5842C34.4648 53.4646 38.7297 53.5357 41.413 53.7668C43.8342 53.9752 47.6407 54.4487 49.8721 54.8188C52.1032 55.1889 55.1847 55.8479 56.7199 56.2833C58.2548 56.7183 60.8553 57.7327 62.4985 58.5372C64.142 59.3416 65.7013 60 65.9641 60C66.227 60 66.6228 59.7819 66.8442 59.5151C67.0657 59.2484 67.1615 58.6911 67.0575 58.277C66.9378 57.7989 66.1366 57.0907 64.8669 56.3394C63.7657 55.6878 61.4416 54.6982 59.7023 54.1396C57.9629 53.581 54.9339 52.7977 52.9709 52.3986C49.4022 51.6734 49.4022 51.6734 49.3262 38.9615C49.2502 26.25 49.2502 26.25 53.4838 20.3909C57.7174 14.5321 57.7174 14.5321 57.7174 8.06641C57.7174 1.6363 57.7128 1.59652 56.9168 0.800543C56.1571 0.0404347 55.9207 0 52.2457 0C48.6209 0 48.3293 0.0479348 47.6654 0.754565C47.0837 1.37413 46.9565 1.90011 46.9565 3.68935C46.9565 5.86957 46.9565 5.86957 44.1848 5.86957C41.413 5.86957 41.413 5.86957 41.413 3.61076C41.413 1.5587 41.3345 1.28967 40.5538 0.675978C39.7604 0.0515217 39.2664 0 34.0888 0C28.651 0 28.4622 0.0225001 27.7741 0.754565C27.1924 1.37413 27.0652 1.90011 27.0652 3.68935C27.0652 5.86957 27.0652 5.86957 24.2935 5.86957C21.5217 5.86957 21.5217 5.86957 21.5217 3.61076C21.5217 1.5587 21.4432 1.28967 20.6625 0.675978C19.9073 0.0818478 19.3529 0 16.0826 0C12.5667 0 12.3176 0.0440217 11.5614 0.800543ZM19.2391 4.78891C19.2391 6.57815 19.3663 7.10413 19.948 7.7237C20.6061 8.4238 20.9162 8.47826 24.2478 8.47826C27.4855 8.47826 27.9127 8.40848 28.5933 7.76935C29.2389 7.1625 29.3478 6.73957 29.3478 4.83457C29.3478 2.6087 29.3478 2.6087 34.2391 2.6087C39.1304 2.6087 39.1304 2.6087 39.1304 4.78891C39.1304 6.57815 39.2576 7.10413 39.8394 7.7237C40.4974 8.4238 40.8075 8.47826 44.1391 8.47826C47.3768 8.47826 47.804 8.40848 48.4846 7.76935C49.1302 7.1625 49.2391 6.73957 49.2391 4.83457C49.2391 2.6087 49.2391 2.6087 52.1739 2.6087C55.1087 2.6087 55.1087 2.6087 55.1087 8.24446C55.1087 13.8802 55.1087 13.8802 51.0326 19.5391C46.9565 25.1984 46.9565 25.1984 46.9565 38.1972C46.9565 51.1957 46.9565 51.1957 46.1905 51.1957C45.7692 51.1957 44.3178 51.1021 42.9655 50.9879C40.5062 50.7799 40.5062 50.7799 40.3728 46.3412C40.2737 43.0458 40.1009 41.6416 39.7014 40.8907C39.4057 40.3347 38.6446 39.4236 38.01 38.8666C37.3754 38.3093 36.2413 37.6878 35.4893 37.4853C34.7377 37.2832 33.5204 37.2075 32.7845 37.318C32.0485 37.4283 30.991 37.7954 30.4347 38.1339C29.8784 38.4721 29.054 39.2384 28.6024 39.8364C28.1508 40.4345 27.6212 41.5109 27.4252 42.2283C27.2292 42.9457 27.0682 45.1836 27.0672 47.2011C27.0652 50.8696 27.0652 50.8696 25.5163 50.8732C24.6646 50.8751 23.4173 50.9677 22.7446 51.0789C21.5217 51.2811 21.5217 51.2811 21.5217 38.2653C21.5217 25.2496 21.5217 25.2496 17.4457 19.5783C13.3696 13.9066 13.3696 13.9066 13.3696 8.25783C13.3696 2.6087 13.3696 2.6087 16.3043 2.6087C19.2391 2.6087 19.2391 2.6087 19.2391 4.78891ZM0.391304 57.1304C0.176087 57.3457 0 57.8625 0 58.2786C0 58.7733 0.287609 59.1669 0.828913 59.4134C1.53913 59.7369 1.75826 59.6912 2.355 59.0941C2.95207 58.4974 2.99772 58.2783 2.67424 57.568C2.42772 57.0267 2.03413 56.7391 1.53946 56.7391C1.12337 56.7391 0.606522 56.9152 0.391304 57.1304Z" fill="white"/>
</svg>
