<svg width="96" height="60" viewBox="0 0 96 60" fill="none" xmlns="http://www.w3.org/2000/svg">
<path fill-rule="evenodd" clip-rule="evenodd" d="M77.1855 0.59683C76.7737 1.00864 76.5887 3.53273 76.5887 8.7346C76.5887 16.2755 76.5887 16.2755 73.7701 16.8415C72.2199 17.1529 70.3339 17.4075 69.5784 17.4075C68.8229 17.4075 67.8421 17.7696 67.3995 18.2128C66.6574 18.9548 66.6579 19.0881 67.4049 19.9137C67.8511 20.4066 69.3158 21.0736 70.6596 21.3958C72.4745 21.831 73.512 21.84 74.6887 21.4297C75.8735 21.0169 76.3643 21.0233 76.6309 21.4545C76.8274 21.7723 77.0054 25.3996 77.0273 29.5152C77.0552 34.8698 77.2462 37.1705 77.6978 37.6037C78.0454 37.9365 79.1704 38.4348 80.198 38.7109C81.7119 39.1177 82.2158 39.064 82.8524 38.4279C83.3776 37.9022 83.5308 37.2153 83.3144 36.3529C83.1369 35.6437 82.8668 31.6538 82.7141 27.4865C82.4764 21.0069 82.5455 19.8675 83.1891 19.6203C83.6029 19.4616 86.4602 19.0667 89.5384 18.7424C93.8579 18.2879 95.2575 17.9581 95.6733 17.2971C96.0612 16.6794 96.0582 16.2865 95.6623 15.8906C95.3599 15.5882 94.2459 15.1411 93.1865 14.8974C92.1276 14.6537 89.3931 14.5935 87.1103 14.7646C83.8332 15.0093 82.8663 14.9277 82.5167 14.3761C82.273 13.9917 82.2153 10.9583 82.3883 7.63544C82.7032 1.59304 82.7032 1.59304 81.1629 0.796768C80.3154 0.358596 79.2082 0 78.7024 0C78.1961 0 77.5137 0.268574 77.1855 0.59683ZM55.7389 6.4388C54.8034 6.59049 53.9524 6.97346 53.848 7.29077C53.743 7.60759 54.3965 8.41579 55.3002 9.08723C56.2039 9.75816 57.6925 10.5579 58.6087 10.8643C59.7561 11.2482 60.5683 11.2642 61.2198 10.9155C61.7395 10.6375 62.1653 9.97352 62.1653 9.44085C62.1653 8.77837 61.4178 8.10644 59.8028 7.31763C58.1337 6.50196 56.941 6.24383 55.7389 6.4388ZM45.9111 8.52521C45.0407 8.76593 43.5596 9.86161 42.6196 10.9598C41.6796 12.0579 40.4541 14.3498 39.8961 16.0522C39.338 17.7552 38.503 21.2123 38.0404 23.7354C37.1989 28.323 37.1989 28.323 35.3831 28.6165C34.3844 28.7781 33.046 29.1228 32.4089 29.3829C31.7722 29.643 31.3385 30.1324 31.4455 30.4701C31.5519 30.8083 32.8918 31.4962 34.4222 31.999C36.4255 32.6575 37.2835 33.2146 37.4874 33.9884C37.643 34.5798 37.648 36.1828 37.4983 37.5505C37.3158 39.2187 37.653 42.1496 38.5214 46.4522C39.2341 49.9805 40.3129 54.1101 40.9196 55.629C41.701 57.5861 42.4893 58.6619 43.6253 59.3234C44.5822 59.8804 45.6336 60.1271 46.2349 59.9361C46.789 59.7605 47.3813 59.0632 47.5509 58.3863C47.7518 57.5856 47.4131 56.1612 46.5811 54.3065C45.8778 52.7393 44.9731 50.1949 44.5712 48.6516C44.1694 47.1088 43.5586 42.7976 43.214 39.0714C42.6768 33.2638 42.6887 32.1965 43.2995 31.5991C43.6914 31.2157 45.9141 30.6512 48.2393 30.3443C50.922 29.9902 52.6817 29.5058 53.0542 29.0193C53.3775 28.5976 53.5222 27.9406 53.376 27.5596C53.2297 27.1781 52.2539 26.6101 51.2075 26.2963C49.7671 25.8651 48.7232 25.8691 46.9073 26.3142C45.5883 26.638 44.1037 27.0234 43.6079 27.1717C42.8146 27.4089 42.7435 27.2134 43.011 25.5329C43.1786 24.4834 43.8819 21.8042 44.5737 19.579C45.2661 17.3538 46.4562 14.7864 47.2182 13.8738C48.4984 12.3399 48.7053 12.2599 49.9372 12.8214C50.6703 13.1551 51.6939 13.4287 52.2122 13.4287C52.7304 13.4287 53.3004 13.1919 53.4789 12.903C53.6575 12.614 53.6674 11.8346 53.5013 11.1712C53.3347 10.5082 52.5862 9.6572 51.8381 9.2812C51.0896 8.90519 49.8059 8.48244 48.9853 8.34218C48.1647 8.20193 46.781 8.28399 45.9111 8.52521ZM8.60232 17.9551C6.82824 18.6375 5.26256 19.7759 3.60387 21.5908C2.27543 23.0446 0.920129 25.1295 0.592371 26.2247C0.264114 27.3199 -0.00246953 29.5331 1.7258e-05 31.1426C0.00399612 33.4866 0.305395 34.5927 1.51497 36.7025C2.47338 38.3737 6.69694 42.9673 13.0741 49.2752C18.6007 54.7417 23.6101 59.3403 24.2059 59.4935C24.8018 59.6471 25.8089 59.6098 26.444 59.4114C27.0792 59.2124 29.5799 57.1221 32.0015 54.7656C34.4232 52.4096 36.6051 49.9636 36.8508 49.3304C37.1303 48.6093 37.1049 47.8185 36.7826 47.2167C36.4996 46.6875 35.7765 46.2543 35.1762 46.2543C34.4684 46.2543 32.5486 47.7827 29.7201 50.5982C25.3558 54.9421 25.3558 54.9421 17.1017 46.7437C12.5618 42.2346 8.00251 37.4973 6.96949 36.2161C5.93698 34.9349 4.94326 33.0917 4.76073 32.1204C4.57869 31.1485 4.6722 29.452 4.96912 28.3504C5.26555 27.2483 6.19411 25.5657 7.03216 24.6113C8.07612 23.4226 9.38616 22.6343 11.1911 22.1096C12.6951 21.6724 14.4338 21.4849 15.2416 21.6724C16.0199 21.8534 17.5523 22.5159 18.6465 23.1451C19.7407 23.7742 21.5207 25.2026 22.6019 26.3192C23.6832 27.4358 24.854 28.3494 25.2031 28.3494C25.5523 28.3494 27.3159 27.01 29.1223 25.3732C31.1635 23.5235 33.142 22.1991 34.3495 21.8738C35.8222 21.4774 36.3718 21.0353 36.6195 20.048C36.7995 19.3318 36.7219 18.3888 36.4469 17.9521C36.1724 17.516 35.5551 17.0818 35.0762 16.9878C34.5972 16.8933 33.1793 17.2081 31.9259 17.6865C30.6721 18.1655 28.6876 19.4412 27.5153 20.5215C25.3842 22.4861 25.3842 22.486 23.1068 20.4817C21.8544 19.3791 19.7949 18.1242 18.5301 17.6935C17.2658 17.2628 15.0958 16.9216 13.7087 16.936C12.3211 16.9505 10.0233 17.409 8.60232 17.9551ZM56.7938 23.4753C56.4656 23.8035 56.197 24.755 56.197 25.5901C56.197 26.4251 56.6391 29.4287 57.1798 32.2651C57.7925 35.4805 58.6495 38.2533 59.4567 39.6305C60.1684 40.845 61.0696 41.9616 61.459 42.1108C61.849 42.2605 62.7263 42.2426 63.4097 42.071C64.4596 41.8074 64.6506 41.4717 64.6421 39.9035C64.6361 38.8829 64.1005 34.929 63.451 31.1167C62.5741 25.969 62.0399 24.0169 61.3765 23.532C60.8851 23.1724 59.7874 22.8785 58.9369 22.8785C58.0864 22.8785 57.1221 23.147 56.7938 23.4753Z" fill="white"/>
</svg>
