<svg width="49" height="60" viewBox="0 0 49 60" fill="none" xmlns="http://www.w3.org/2000/svg">
<path fill-rule="evenodd" clip-rule="evenodd" d="M14.6346 0.384679C14.6356 0.592891 19.5727 6.84431 25.6062 14.2774C32.3297 22.5596 36.7583 27.6111 37.0458 27.3253C37.316 27.0565 37.4463 21.9581 37.3535 15.323C37.2131 5.32229 37.0731 3.61424 36.3011 2.48445C35.8114 1.76806 34.832 0.873701 34.1238 0.496599C32.9786 -0.112914 32.3728 -0.0282171 28.6134 1.26794C24.3896 2.72442 24.3896 2.72442 19.8915 1.35919C17.4177 0.608016 15.2226 -0.00351383 15.0133 1.51976e-05C14.8039 0.00354422 14.6336 0.176466 14.6346 0.384679ZM41.4566 0.652885C41.0146 0.990663 40.3353 1.8341 39.948 2.5273C39.4005 3.50635 39.184 7.65951 38.9782 21.1394C38.7906 33.3952 38.5443 38.5471 38.1387 38.6807C37.8234 38.785 33.8708 34.2663 29.356 28.6391C24.8408 23.0118 19.3962 16.2971 17.2565 13.7173C15.1167 11.1376 13.2897 8.81199 13.1969 8.54983C13.1036 8.28768 12.7827 8.07291 12.4826 8.07291C12.1014 8.07291 12.033 11.2858 12.255 18.786C12.4294 24.6785 12.8071 30.7469 13.094 32.2719C13.4544 34.1867 14.0171 35.3956 14.9129 36.1791C15.6267 36.8027 16.8687 37.3134 17.6732 37.3134C18.4777 37.3134 19.2923 37.5655 19.4839 37.874C19.6756 38.1821 19.5585 38.603 19.2234 38.8087C18.8888 39.0144 15.8938 39.0714 12.5683 38.9352C6.52207 38.6872 6.52207 38.6872 6.53779 40.8994C6.5464 42.1159 6.77503 44.8126 7.04624 46.8922C7.31746 48.9718 7.88675 51.7143 8.31156 52.9868C8.73637 54.2588 9.70513 55.8781 10.4645 56.5849C11.2239 57.2917 12.3579 58.0242 12.9855 58.2128C14.0911 58.545 14.1261 58.4487 14.1261 55.0982C14.1261 53.197 14.4759 50.2891 14.9038 48.6365C15.3316 46.9839 16.3014 44.6331 17.0583 43.4121C17.8156 42.1915 19.2883 40.5087 20.331 39.6733C21.8366 38.4664 22.7172 38.1538 24.6081 38.1538C26.8061 38.1538 27.158 38.3388 29.1761 40.5556C30.7587 42.2939 31.6763 43.954 32.497 46.5635C33.371 49.3439 33.6184 51.2944 33.5768 55.0846C33.5297 59.4323 33.6245 60 34.4021 60C34.8852 60 35.8499 59.5548 36.5459 59.0104C37.242 58.4659 38.3141 56.8582 38.9285 55.438C39.5424 54.0178 40.3789 51.1225 40.7865 49.0041C41.194 46.8856 41.6695 41.6304 41.8434 37.326C42.1491 29.7507 42.2069 29.4301 43.636 27.3464C44.4481 26.1622 45.8396 23.6667 46.7283 21.8008C48.2298 18.6489 48.3434 18.0323 48.3327 13.1144C48.3231 8.69251 48.131 7.40593 47.1647 5.30011C46.529 3.9137 45.4082 2.15575 44.6737 1.39297C43.9396 0.630198 43.0966 0.0136271 42.8 0.0227018C42.5035 0.0312723 41.8992 0.315107 41.4566 0.652885ZM3.79171 1.85023C2.99277 2.58679 1.87751 4.22829 1.31279 5.49723C0.748564 6.76616 0.178767 9.29849 0.0474699 11.125C-0.0838268 12.951 0.0667336 15.6412 0.382049 17.1032C0.697363 18.5652 2.11476 22.0559 3.53216 24.8605C5.71097 29.1725 6.15251 30.5281 6.38875 33.6367C6.54235 35.6588 6.87845 37.3134 7.13546 37.3134C7.39248 37.3134 8.03376 37.084 8.56097 36.8032C9.08819 36.5229 9.75633 35.445 10.0458 34.4085C10.3353 33.372 10.5568 28.4404 10.5385 23.4494C10.5203 18.4583 10.3327 12.4131 10.1213 10.0159C9.79486 6.31747 9.48512 5.26633 8.07634 3.08388C7.16335 1.66874 6.15251 0.510716 5.83061 0.510716C5.5082 0.510716 4.59064 1.11367 3.79171 1.85023Z" fill="white"/>
</svg>
