<svg width="70" height="60" viewBox="0 0 70 60" fill="none" xmlns="http://www.w3.org/2000/svg">
<path d="M61.3229 10.4806C61.3509 10.4008 61.2837 10.2929 61.4335 10.2957C61.6432 10.3284 61.8384 10.4231 61.9939 10.5675C62.0667 10.6361 62.1452 10.6922 62.2166 10.7538C62.2533 10.7836 62.2927 10.8099 62.3343 10.8323C62.3755 10.8588 62.4191 10.8813 62.4646 10.8995L62.5655 10.8014C62.7959 11.0335 62.9909 11.2983 63.144 11.5873C63.3522 11.8235 63.5344 12.0813 63.6875 12.3564C63.8616 12.6627 64.007 12.9844 64.1218 13.3174C64.1652 13.2852 64.2059 13.2628 64.2451 13.33C64.2799 13.4092 64.3062 13.4918 64.3235 13.5766C64.346 13.6676 64.367 13.7643 64.3852 13.8679C64.4132 14.0809 64.4468 14.3078 64.4664 14.5488C64.4846 14.6188 64.5028 14.6888 64.5197 14.7561C64.533 14.7748 64.5501 14.7904 64.5699 14.802C64.5897 14.8136 64.6117 14.8209 64.6345 14.8233C64.6509 15.026 64.6565 15.2294 64.6513 15.4327C64.7958 16.3129 64.8754 17.2025 64.8895 18.0944C64.8965 18.3269 64.8993 18.5636 64.8895 18.8032C64.8797 19.0427 64.8895 19.2851 64.8741 19.5316C64.8741 19.6535 64.8657 19.7768 64.8601 19.9015V19.9477L64.8517 20.036L64.8363 20.1943L64.8026 20.5024C64.7816 20.7056 64.7592 20.9101 64.7382 21.116C64.727 21.2169 64.7158 21.3178 64.706 21.4186L64.6892 21.5699C64.6938 21.6147 64.7013 21.6592 64.7116 21.703C64.9918 21.9005 65.2719 22.1036 65.5661 22.346L65.688 22.4567C65.713 22.4763 65.7352 22.4994 65.7538 22.5253C65.7903 22.5785 65.8407 22.6248 65.8757 22.6864C66.0498 22.9729 66.1584 23.2944 66.1937 23.6278C66.3227 24.1742 66.3179 24.7437 66.1797 25.2878C66.0355 25.7271 65.8268 26.1426 65.5605 26.5206C65.2973 26.8965 65.0015 27.2486 64.6766 27.5726C64.7872 27.6315 64.7928 27.7786 64.7424 27.9719C64.7131 28.079 64.6737 28.1831 64.6247 28.2829C64.5715 28.3907 64.5183 28.5098 64.4552 28.6177C64.2143 29.0632 63.9299 29.468 64.2619 29.5366C63.7408 29.9121 62.8806 30.3379 62.8848 30.4682C62.8943 30.5931 62.8776 30.7186 62.8358 30.8366C62.7774 31.0041 62.6843 31.1573 62.5626 31.2863C62.3829 31.4883 62.1725 31.6609 61.9393 31.7976C61.5938 32.0084 61.2234 32.1755 60.8368 32.295C60.6363 32.3411 60.4333 32.3757 60.2288 32.3986C60.0131 32.4126 59.7917 32.4182 59.5872 32.4224C59.1767 32.4224 58.8307 32.3958 58.7005 32.442C58.6136 32.4743 58.6206 32.5093 58.6738 32.5443C58.7704 32.5903 58.8719 32.6251 58.9764 32.648C59.2202 32.7152 59.4709 32.7811 59.2566 32.8525C59.3449 32.8525 59.4331 32.8525 59.5228 32.8525L59.7903 32.8357C59.9682 32.8231 60.1462 32.8147 60.3241 32.7951C60.6813 32.746 61.0371 32.704 61.3887 32.62C61.7403 32.5359 62.0892 32.4448 62.4366 32.3398C62.784 32.2347 63.1202 32.1002 63.448 31.9433C63.7791 31.7956 64.1022 31.6306 64.416 31.4488L64.8783 31.1616C65.031 31.065 65.1753 30.9543 65.3224 30.8493C65.9056 30.4184 66.4427 29.9282 66.925 29.3867C67.4087 28.8373 67.8315 28.2371 68.1857 27.5964C68.5527 26.9339 68.8351 26.228 69.0263 25.4951C69.2414 24.6864 69.313 23.8462 69.2378 23.0128C69.2252 22.9007 69.2056 22.7845 69.1888 22.671C69.1732 22.5545 69.1512 22.439 69.1229 22.325C69.0688 22.0865 68.9972 21.8524 68.9086 21.6245C68.8624 21.5069 68.8217 21.3906 68.7685 21.2729C68.7153 21.1552 68.6494 21.0404 68.5864 20.9255C68.5228 20.8082 68.4512 20.6954 68.372 20.5879L68.3132 20.5052L68.288 20.4688V20.4772C68.2921 20.4828 68.2954 20.4889 68.2978 20.4954V20.5038C68.2781 20.5091 68.2573 20.5091 68.2376 20.5038C68.2194 20.5038 68.2152 20.494 68.2053 20.4828C68.2005 20.4757 68.1963 20.4682 68.1927 20.4604C68.1927 20.4604 68.1927 20.4464 68.1927 20.4408V20.3904C68.1927 20.3582 68.1997 20.3231 68.2039 20.2895C68.2334 20.0163 68.2712 19.7292 68.2964 19.4098C68.3216 19.0904 68.3566 18.7668 68.3762 18.418C68.4267 17.7175 68.4491 16.9639 68.4323 16.164C68.4228 15.331 68.3521 14.5 68.2208 13.6774C68.0765 12.8008 67.8311 11.9438 67.4895 11.1236C67.4447 11.02 67.4026 10.9177 67.3494 10.8154L67.2051 10.5087C67.1099 10.3083 66.9866 10.115 66.8773 9.92449C66.6467 9.55246 66.3857 9.20011 66.097 8.87104C65.5871 8.28771 64.9892 7.78764 64.3249 7.38892C63.8557 7.10901 63.3608 6.87447 62.847 6.68848C62.7434 6.65206 62.6411 6.62404 62.5374 6.59603C61.6022 6.30915 60.6268 6.17527 59.6488 6.19958C58.8045 6.21448 57.9657 6.33975 57.1539 6.57221C56.5364 6.78962 55.9341 7.04795 55.351 7.34549C55.6564 7.34549 55.9379 7.3637 56.1845 7.39172C55.5569 7.515 54.9419 7.6817 54.7346 7.83579C54.1196 8.12998 54.0244 8.28968 54.1448 8.38213C54.2653 8.47459 54.6085 8.51382 54.8957 8.60067C55.2795 8.63849 54.8817 8.98311 55.456 8.9733C55.0722 9.07416 54.8817 9.1288 54.5007 9.24647C54.5007 9.31791 54.7808 9.20444 55.0484 9.12039C55.316 9.03634 55.5513 8.9803 55.449 9.12039C55.0694 9.17222 54.687 9.37955 54.3143 9.50143C54.4082 9.56727 54.7346 9.47341 55.0414 9.39916C55.3482 9.32492 55.6297 9.25908 55.6241 9.35994C55.4167 9.41085 55.2054 9.44458 54.9924 9.4608C54.736 9.50003 54.5007 9.56166 54.5021 9.68214C54.5021 9.72837 54.8747 9.6135 55.0624 9.56026C54.5021 9.77039 54.093 9.99874 53.9627 10.1486C53.8324 10.2985 53.9739 10.3658 54.5147 10.3055C54.3396 10.363 54.1224 10.4148 53.9067 10.4764C53.7974 10.5058 53.6909 10.5395 53.5901 10.5759C53.4997 10.6068 53.4121 10.6453 53.3281 10.6908C53.3954 10.6655 53.5285 10.6235 53.6489 10.5885C53.7694 10.5535 53.8955 10.5171 53.9795 10.4876C53.775 10.5619 53.5593 10.6417 53.3786 10.7188C53.4242 10.7368 53.471 10.7518 53.5186 10.7636C53.6792 10.7296 53.8374 10.6852 53.9921 10.6305C53.852 10.6796 53.7218 10.7314 53.5915 10.7832C53.73 10.8133 53.8704 10.8339 54.0117 10.8449C54.5399 10.7972 55.0708 10.8449 55.3314 10.7734C56.374 10.4945 57.4406 10.3144 58.5169 10.2355C59.5354 10.171 60.516 10.2383 61.3229 10.4806Z" fill="white"/>
<path d="M14.1678 18.701C14.1398 18.6212 13.9367 18.6127 14.1818 18.4699C14.372 18.3722 14.5697 18.2897 14.773 18.2233C14.9789 18.1715 15.182 18.1322 15.3838 18.093L15.6849 18.0328L15.9987 17.981C16.2168 17.943 16.4314 17.8873 16.6403 17.8143C16.6515 17.7652 16.6641 17.7148 16.6754 17.6644C17.0396 17.6223 17.4136 17.5915 17.7961 17.5551L20.0542 17.373L20.4983 17.3141L20.8724 16.2467L21.0601 15.7129C21.1245 15.5392 21.2002 15.3627 21.2758 15.2072C21.3515 15.0517 21.4019 14.9355 21.4719 14.7996C21.542 14.6637 21.612 14.5194 21.6933 14.3891C22.0175 13.8256 22.3773 13.2833 22.7705 12.7655C22.7089 12.7655 22.6627 12.7473 22.7355 12.6254C23.0773 12.1463 23.6615 11.558 24.2863 10.964L24.544 10.6838C24.5612 10.6585 24.5725 10.6296 24.5771 10.5993C24.5817 10.569 24.5795 10.5381 24.5706 10.5087C24.8606 10.244 25.131 10.017 25.3846 9.8167C26.9481 8.27363 28.6878 6.91996 30.5678 5.7836C32.501 4.62508 34.6247 3.66408 36.9613 3.2102C37.45 3.08369 37.9459 2.98686 38.4463 2.92022C38.9367 2.85753 39.4316 2.83691 39.9256 2.85858C40.7085 2.91904 41.4791 3.08927 42.2146 3.3643C42.9333 3.63273 43.6179 3.98491 44.2543 4.41355C44.2739 4.28327 44.4784 4.28467 44.7698 4.36592C44.9099 4.41075 45.078 4.47659 45.2531 4.54943C45.4282 4.62228 45.6033 4.72314 45.784 4.81419C45.9647 4.90525 46.1286 5.00892 46.2869 5.09437C46.4452 5.17982 46.5909 5.25407 46.7072 5.3115C46.9397 5.41797 47.0854 5.41797 47.0476 5.19523L47.3194 5.49922C47.4118 5.60709 47.5001 5.72196 47.5925 5.83403C47.685 5.9461 47.7788 6.05817 47.8629 6.17304L48.1094 6.50224C48.2719 6.70957 48.4036 6.89869 48.5115 7.03457C48.6194 7.17046 48.7006 7.2503 48.7398 7.2489C48.985 7.2405 49.3002 7.35257 49.7681 7.77143C50.2107 8.19169 50.8145 8.94115 51.4183 10.2356C51.522 10.4919 51.6242 10.7959 51.7223 11.0957C51.8203 11.3955 51.889 11.7205 51.966 12.0147C52.1061 12.6058 52.2014 13.1101 52.2938 13.2866C52.3583 13.4183 52.3891 13.3987 52.4031 13.3035C52.414 13.15 52.414 12.996 52.4031 12.8426C52.3849 12.4797 52.3653 12.1141 52.5054 12.3943C52.0213 10.3428 51.2362 8.37427 50.1757 6.55267C49.6065 5.60615 48.9352 4.72488 48.1739 3.92464C47.3906 3.10232 46.5011 2.38812 45.529 1.80093C44.5476 1.21479 43.4897 0.767394 42.3855 0.471504C41.305 0.182238 40.1935 0.0246641 39.0752 0.00221306C36.8675 -0.0342095 34.7424 0.381848 32.7349 1.03605C32.232 1.24338 31.1785 1.64543 29.8505 2.29684C28.2637 3.0896 26.7443 4.0107 25.3075 5.05094C23.5955 6.28496 22.0162 7.69337 20.595 9.25355C19.8672 10.0578 19.2022 10.9168 18.6058 11.8227C18.3101 12.2754 18.038 12.743 17.7904 13.2236L17.7022 13.4085L17.67 13.4772V13.4884C17.662 13.5022 17.6555 13.5167 17.6504 13.5318C17.6378 13.5598 17.6279 13.5892 17.6167 13.6187C17.5509 13.6313 17.4846 13.6407 17.4178 13.6467L17.3198 13.6579H17.2945L17.2455 13.6663L17.034 13.7041L16.2229 13.8442C16.0926 13.8708 15.9637 13.8876 15.8376 13.9184L15.4664 14.0095L14.766 14.1818C14.656 14.2065 14.5475 14.2374 14.441 14.2743L14.1328 14.3709L13.5724 14.5488L13.4422 14.5895L13.3189 14.6371L13.0863 14.7267L12.6521 14.9117C12.3132 15.0505 11.9817 15.2067 11.6588 15.3795C11.3141 15.5582 10.9797 15.756 10.6572 15.9721C10.5746 16.0253 10.4905 16.0744 10.4093 16.1304L10.1697 16.3097L9.69203 16.6725C9.53373 16.7944 9.38944 16.9401 9.23955 17.0732L9.01821 17.2777C8.94298 17.3448 8.87143 17.4159 8.80388 17.4907C7.68318 18.6534 6.91271 20.064 6.5779 21.266C6.2988 22.3569 6.18872 23.4842 6.2515 24.6085C6.31173 24.3605 6.36917 24.1238 6.44622 23.901C6.52326 23.6783 6.5863 23.471 6.66475 23.2818L6.62273 23.4822C6.61292 23.5494 6.60311 23.6223 6.59191 23.6839C6.57229 23.817 6.55408 23.9487 6.53447 24.0789C6.50085 24.3381 6.48824 24.5874 6.47003 24.8158C6.45182 25.0441 6.47003 25.2515 6.47003 25.428C6.47587 25.5692 6.4932 25.7098 6.52186 25.8482C6.54789 26.2165 6.62279 26.5797 6.7446 26.9283C6.81745 27.1048 6.88469 27.1216 6.93652 27.0446C7.01168 26.901 7.06683 26.7478 7.10042 26.5893C7.16486 26.3848 7.2209 26.1494 7.30215 25.9407C7.37079 25.6409 7.46325 25.6941 7.5557 25.7039C7.58287 25.7095 7.61111 25.7063 7.6363 25.6947C7.6615 25.6831 7.68234 25.6638 7.69579 25.6395C7.7231 25.5961 7.74387 25.5489 7.75743 25.4994C7.7853 25.4136 7.80775 25.3261 7.82467 25.2375C7.79927 25.776 7.81097 26.3157 7.85969 26.8527C7.89611 26.8681 7.89752 26.7518 7.88491 26.5725C7.8723 26.3932 7.85409 26.1606 7.84849 25.9365C7.82887 25.4854 7.85549 25.0848 7.95915 25.3103C7.89051 25.9253 8.00959 26.6145 8.08243 27.2463C8.15668 27.1258 8.11745 26.5767 8.11325 26.0696C8.11325 25.816 8.11325 25.5723 8.14267 25.3986C8.17209 25.2248 8.1973 25.1184 8.24213 25.1492C8.24251 25.2898 8.23315 25.4302 8.21411 25.5695C8.2015 25.7516 8.16928 25.9645 8.16368 26.1732C8.14127 26.5935 8.17209 26.9815 8.28836 27.0292C8.33599 27.0474 8.28836 26.424 8.27575 26.1116C8.3542 27.0712 8.55592 27.7926 8.70582 28.0546C8.78006 28.1835 8.8361 28.1947 8.86972 28.0756C8.91032 27.8068 8.92626 27.5348 8.91735 27.2631C8.95097 27.5545 8.98599 27.9089 9.03922 28.2633C9.06724 28.4412 9.09946 28.6177 9.13869 28.7859C9.1583 28.8671 9.17791 28.9512 9.20172 29.0254C9.21293 29.0632 9.22554 29.0996 9.23675 29.1361C9.24795 29.1725 9.26196 29.2103 9.26757 29.2215C9.25636 29.1809 9.23114 29.0814 9.21153 28.9974C9.19192 28.9133 9.17091 28.8041 9.15129 28.7032C9.11347 28.5015 9.08265 28.2983 9.05463 28.1597C9.12187 28.4987 9.20453 28.8531 9.29558 29.1585C9.31239 29.1038 9.325 29.0366 9.33901 28.9694C9.29698 28.7214 9.25636 28.4637 9.19892 28.1989C9.24515 28.423 9.29418 28.65 9.35302 28.8657C9.37963 28.685 9.40065 28.4791 9.42166 28.2549C9.38804 27.4298 9.53093 26.6467 9.51552 26.2293C9.46929 24.5174 9.82931 22.891 10.6138 21.6064C11.0106 20.9619 11.5175 20.3919 12.1113 19.9226C12.7426 19.4303 13.4336 19.0199 14.1678 18.701Z" fill="white"/>
<path d="M0.0504277 35.4763C0.13448 35.4917 0.233941 35.3796 0.24795 35.5743C0.256355 36.1795 -0.0630426 36.6558 0.0112034 37.2932L0.15129 37.3394C0.0831795 37.8554 0.0485523 38.3753 0.047626 38.8958C0.119635 39.4034 0.234926 39.904 0.39224 40.3919C0.552331 40.8977 0.764534 41.3855 1.02543 41.8474C1.05765 41.7998 1.09267 41.769 1.15571 41.8544C1.38966 42.2257 1.66703 42.779 2.07188 43.2819L2.27501 43.478C2.29783 43.4895 2.32301 43.4955 2.34855 43.4955C2.37409 43.4955 2.39927 43.4895 2.4221 43.478C2.61542 43.684 2.78212 43.8773 2.95163 44.0384C3.55535 44.4859 4.2188 44.8467 4.92265 45.11C5.58599 45.354 6.27281 45.5287 6.97212 45.6312C7.64672 45.7277 8.32751 45.7746 9.00898 45.7713H9.5175L10.0232 45.746C10.0895 45.7476 10.1557 45.742 10.2207 45.7292L10.3608 45.704L10.641 45.6536C10.7208 45.6256 10.8063 45.5976 10.8959 45.5709L11.036 45.5303L11.1061 45.5121L11.1411 45.5023C11.1523 45.5023 11.1523 45.5121 11.1579 45.5163C11.2631 45.6664 11.3567 45.8242 11.4381 45.9884L11.5235 46.1859L11.546 46.2391L11.5586 46.2658L11.5796 46.3106C11.6076 46.3722 11.637 46.4339 11.6664 46.4969C11.7913 46.7501 11.9491 46.9856 12.1357 47.1973C12.3244 47.407 12.5475 47.5828 12.7955 47.7171C13.0303 47.8394 13.2819 47.9263 13.5422 47.9748C13.531 47.8515 13.6739 47.7633 13.8602 47.6848C13.9526 47.6414 14.0577 47.5952 14.1628 47.5518L14.4682 47.3991C14.5648 47.3402 14.6587 47.2828 14.7385 47.2268C14.8097 47.1736 14.8745 47.1125 14.9318 47.0446C15.0271 46.927 15.0439 46.8149 14.9318 46.7112C15.0453 46.6916 15.1756 46.658 15.3045 46.6286C15.4334 46.5992 15.5636 46.5515 15.6785 46.5109C15.9083 46.4185 16.0792 46.3316 16.0722 46.2574C16.0506 45.9974 16.1124 45.7373 16.2487 45.5149C16.4126 45.2277 16.7011 44.9153 17.2055 44.5231C17.4461 44.3834 17.6977 44.2634 17.9577 44.1645C18.2113 44.0538 18.4298 43.9599 18.4873 43.8843C18.6666 43.6349 17.7798 43.9417 17.9605 43.6924C17.3161 44.0104 16.6829 44.3102 16.075 44.5609L15.848 44.6548L15.6253 44.7388C15.4754 44.7991 15.3353 44.8411 15.1924 44.8915C14.9416 44.9749 14.6856 45.0418 14.4261 45.0918L14.2748 45.1143C14.2244 45.1227 14.1908 45.1142 14.1488 45.1255C14.1067 45.1367 14.132 45.1255 14.1292 45.1255C14.1303 45.1279 14.1309 45.1305 14.1309 45.1332C14.1309 45.1358 14.1303 45.1385 14.1292 45.1409H14.1207L14.0997 45.0778L14.0115 44.8229C13.9064 44.4544 13.8168 44.0692 13.7215 43.6896L13.4413 42.5605C12.6008 42.5675 11.7603 42.5787 10.9198 42.5675H10.5065H10.4098H10.3412H10.3062L10.026 42.5493C9.83689 42.5409 9.65478 42.5198 9.46566 42.5002C8.84021 42.5151 8.21578 42.4416 7.61091 42.2817C7.16577 42.1758 6.73393 42.0203 6.32351 41.818C5.90781 41.6125 5.52722 41.3425 5.19582 41.0181C5.03451 40.8569 4.88909 40.6805 4.76155 40.4914C4.62958 40.3014 4.51606 40.0992 4.42254 39.8876C4.23146 39.4564 4.10224 39.0003 4.0387 38.533C3.93445 37.7668 3.94248 36.9896 4.06251 36.2257C4.06251 36.1641 4.06251 36.1039 4.07652 36.0422C4.23062 34.9495 4.54721 33.5851 4.69851 32.5793C4.73633 32.1072 4.76855 31.6169 4.82038 31.1266C4.66489 31.3017 4.5164 31.4642 4.38051 31.6043C4.55982 31.1518 4.75594 30.7063 4.74894 30.499C4.85961 29.9807 4.80778 29.8308 4.66209 29.8392C4.5164 29.8476 4.28525 30.0213 4.05271 30.146C3.80335 30.3645 3.75712 29.9036 3.43913 30.2861C3.57921 29.9751 3.64646 29.8182 3.79215 29.5086C3.73751 29.4623 3.65206 29.7103 3.5582 29.9288C3.46434 30.1474 3.38589 30.3491 3.32706 30.1936C3.50077 29.9134 3.57081 29.5366 3.7221 29.227C3.49656 29.255 3.17857 30.2917 3.03568 30.174C3.0651 29.9821 3.64365 29.3797 3.46715 29.227C3.43072 29.1962 3.28083 29.5072 3.20939 29.6683C3.3887 29.164 3.50357 28.7577 3.48956 28.5714C3.47555 28.3851 3.32426 28.4201 3.00066 28.8194C3.0763 28.6639 3.18977 28.4859 3.30184 28.3038C3.35788 28.2128 3.41391 28.1217 3.46574 28.0307C3.51758 27.9396 3.5624 27.8542 3.60583 27.7505C3.49796 27.934 3.32566 28.1862 3.2402 28.3403C3.33546 28.1539 3.43212 27.9704 3.53999 27.7799C3.49516 27.7967 3.44847 27.8163 3.3999 27.8387C3.29948 27.9666 3.21041 28.103 3.13374 28.2464L3.33126 27.8724C3.20724 27.9384 3.08871 28.0143 2.97684 28.0993C2.62242 28.4845 2.22878 28.8348 2.11531 29.0799C1.62106 30.0714 1.19514 31.0955 0.840517 32.145C0.471924 33.2278 0.207365 34.3433 0.0504277 35.4763Z" fill="white"/>
<path d="M23.1566 22.4833C23.2365 22.5113 23.3415 22.4609 23.3415 22.5925C23.3124 22.7812 23.2389 22.9603 23.1272 23.1151C23.0178 23.2753 22.9539 23.4621 22.9423 23.6558L23.0712 23.7118C23.0067 23.8519 22.9507 24.0102 22.8961 24.1699C22.8414 24.3296 22.7798 24.4893 22.7307 24.6574C22.6958 25.2877 22.7372 25.9199 22.854 26.5402C22.9017 26.5192 22.9465 26.5066 22.9731 26.5654C23.0053 26.7111 23.0264 26.8591 23.0361 27.0081C23.06 27.172 23.081 27.3527 23.1132 27.5334C23.1328 27.5852 23.1524 27.6357 23.1706 27.6861C23.2044 27.7113 23.2464 27.7228 23.2883 27.7183C23.3205 27.878 23.3569 28.0167 23.3808 28.1512L23.5292 28.451L23.6049 28.5995L23.6903 28.7395C23.8052 28.9273 23.9229 29.1136 24.0406 29.2999C24.1582 29.4862 24.2997 29.6487 24.4314 29.821L24.6303 30.076C24.7004 30.1572 24.7704 30.2343 24.8475 30.3127L25.2859 30.7806C25.4414 30.9207 25.6011 31.0678 25.758 31.2093L25.9962 31.4222C26.0746 31.4937 26.1629 31.5539 26.2455 31.6197L26.7526 32.0078C26.9137 32.1016 27.0903 32.1703 27.2514 32.2529C27.4089 32.3301 27.5614 32.4171 27.708 32.5135C27.7571 32.5513 27.8061 32.5919 27.8481 32.6354C27.8901 32.6788 27.9518 32.718 28.0022 32.7614C28.1045 32.8497 28.2067 32.945 28.3062 33.0416C28.4907 33.2317 28.6852 33.4117 28.889 33.5809C29.008 33.368 29.3344 33.3862 29.6384 33.3862C29.9424 33.3862 30.224 33.3694 30.2772 33.1061C30.5126 33.291 30.888 33.5445 30.9777 33.4451C31.1329 33.2737 31.3291 33.1446 31.5478 33.0696C31.6803 33.0262 31.8188 33.004 31.9583 33.0038C32.1398 33.0003 32.3211 33.0201 32.4976 33.0626C32.7848 33.1635 33.0944 33.5487 33.2275 33.5291C33.4362 33.4983 33.0355 33.0808 33.2443 33.05C32.7918 32.7362 32.3211 32.4588 31.8896 32.1521L31.5576 31.9321C31.4455 31.8607 31.3335 31.792 31.2312 31.7108C31.0211 31.5567 30.8091 31.4049 30.5952 31.2555C29.7729 30.6377 28.9982 29.9779 28.3959 29.2144C28.285 29.1293 28.1811 29.0356 28.0849 28.9343C27.9546 28.7942 27.8271 28.6149 27.6646 28.4089C27.335 27.9302 27.0782 27.4052 26.9025 26.8512C26.7368 26.2856 26.676 25.6945 26.7232 25.1071C26.7569 24.6812 26.8512 24.2623 27.0034 23.8631L27.0244 23.7665C27.2233 23.2061 27.5217 22.5211 27.6548 21.9593C27.687 21.6792 27.7192 21.392 27.7683 21.0978C27.6282 21.151 27.4965 21.1973 27.376 21.2379C27.5413 21.0138 27.7164 20.8022 27.715 20.6635C27.928 20.0724 27.5371 20.1662 27.1211 20.1578C26.8969 20.2111 26.8731 19.8777 26.5803 20.0177C26.7134 19.8552 26.7807 19.7754 26.9207 19.6185C26.8759 19.5653 26.7807 19.7011 26.6994 19.8202C26.6182 19.9393 26.5313 20.0416 26.4865 19.9155C26.6504 19.7852 26.7288 19.5555 26.8731 19.3972C26.7765 19.3635 26.6462 19.4966 26.5229 19.6199C26.3996 19.7432 26.2932 19.8622 26.2301 19.7936C26.2483 19.7348 26.3912 19.6535 26.5103 19.5639C26.6294 19.4742 26.7274 19.3873 26.6504 19.2963C26.621 19.2599 26.4767 19.4252 26.4038 19.5078C26.5887 19.2276 26.7078 18.9797 26.7092 18.8396C26.7106 18.6995 26.5789 18.6631 26.2735 18.8256C26.3655 18.7333 26.4643 18.648 26.5691 18.5706C26.6224 18.5258 26.6812 18.481 26.733 18.4306L26.8101 18.3577C26.8213 18.3437 26.8339 18.3311 26.8451 18.3185L26.8899 18.2709C26.8535 18.3031 26.8241 18.3269 26.7905 18.3521L26.6896 18.4292C26.6292 18.4715 26.5721 18.5184 26.5187 18.5692C26.5649 18.5202 26.6154 18.4712 26.6658 18.4292L26.8283 18.2737C26.7835 18.2737 26.747 18.2653 26.7022 18.2653C26.6058 18.3201 26.5164 18.3864 26.436 18.4628C26.4991 18.3969 26.5761 18.3311 26.6392 18.2625C26.5301 18.2626 26.4213 18.2729 26.3142 18.2933C25.9752 18.4334 25.6137 18.544 25.4877 18.6841C24.9813 19.2215 24.5299 19.8081 24.14 20.4352C23.7358 21.0785 23.4058 21.7656 23.1566 22.4833Z" fill="#DDDDDD"/>
<path d="M15.8265 29.4274C15.9105 29.4274 15.989 29.3448 16.0366 29.4541C16.0821 29.6177 16.0821 29.7906 16.0366 29.9542C15.9956 30.1221 16.0068 30.2985 16.0688 30.4599H16.2089C16.2089 30.6 16.2089 30.7401 16.2173 30.8956C16.2257 31.0511 16.2285 31.1967 16.2467 31.3494C16.4503 31.8814 16.7235 32.384 17.0592 32.8442C17.0957 32.8091 17.1321 32.7839 17.1769 32.8231C17.2613 32.9291 17.3359 33.0426 17.3996 33.1622C17.4837 33.2882 17.5705 33.4269 17.6672 33.5642L17.7765 33.6693C17.8167 33.6782 17.8589 33.6728 17.8955 33.6539C17.9852 33.7729 18.0707 33.8738 18.1421 33.9747L18.3901 34.168L18.5147 34.2632L18.6548 34.3501C18.8313 34.4636 19.0078 34.5742 19.1843 34.6849C19.3609 34.7956 19.5542 34.8782 19.7447 34.9735L20.0249 35.1136C20.1201 35.1556 20.2168 35.1934 20.3134 35.2326L20.8906 35.461C21.0881 35.5254 21.287 35.5857 21.4846 35.6473L21.783 35.737C21.881 35.7692 21.9847 35.7874 22.0869 35.8126L22.6977 35.9527C22.8812 35.9723 23.0704 35.9681 23.2497 35.9793C23.4224 35.9872 23.5945 36.0049 23.7652 36.0325C23.8254 36.0465 23.8857 36.0634 23.9459 36.0816L24.135 36.132C24.2611 36.1684 24.39 36.2104 24.5189 36.2539C24.7752 36.3393 25.0274 36.4402 25.2543 36.4906C25.2851 36.2749 25.5933 36.1768 25.8735 36.0704C26.1537 35.9639 26.4072 35.8532 26.3568 35.6179C26.637 35.6865 27.0838 35.758 27.1315 35.6501C27.2137 35.4513 27.3465 35.2774 27.5167 35.1458C27.625 35.064 27.7443 34.998 27.8711 34.9497C28.0349 34.8843 28.2055 34.8373 28.3796 34.8096C28.6822 34.7928 29.1109 34.9973 29.2202 34.9371C29.4009 34.839 28.877 34.6373 29.0577 34.5392C28.5253 34.4412 27.9874 34.3781 27.4761 34.2787L27.0894 34.2142C26.9592 34.1932 26.8289 34.175 26.7056 34.1456C26.4544 34.0942 26.2027 34.0447 25.9505 33.9971C24.9699 33.7771 24.0047 33.5096 23.1656 33.0949C23.0329 33.064 22.9028 33.0233 22.7762 32.973C22.6053 32.9072 22.4189 32.8021 22.1934 32.6929C21.7197 32.4226 21.2887 32.0836 20.9144 31.687C20.5554 31.2915 20.2783 30.8287 20.0991 30.3254C19.9705 29.9692 19.9 29.5945 19.8904 29.2159L19.8736 29.1305C19.847 28.6023 19.8736 27.9411 19.7825 27.4368C19.7097 27.2015 19.6312 26.9507 19.5668 26.6929C19.4631 26.784 19.3539 26.8695 19.2586 26.9451C19.3272 26.7056 19.4099 26.4702 19.3567 26.3581C19.3328 25.7978 19.0078 26.0149 18.6212 26.1522C18.4349 26.2727 18.2906 26.0121 18.0721 26.2265C18.1337 26.0471 18.1659 25.9589 18.236 25.781C18.1757 25.7544 18.1421 25.8959 18.1071 26.0233C18.0721 26.1508 18.0342 26.2629 17.9474 26.1746C18.0496 26.0121 18.0356 25.7964 18.1099 25.6143C18.009 25.6143 17.9376 25.7754 17.8703 25.9183C17.8031 26.0612 17.7485 26.1984 17.6644 26.162C17.6644 26.1074 17.7611 25.9897 17.8381 25.8818C17.9152 25.774 17.9782 25.6619 17.8703 25.6129C17.8297 25.5947 17.7583 25.7782 17.7218 25.8706C17.7863 25.5765 17.8059 25.3341 17.7555 25.2192C17.705 25.1044 17.5691 25.1212 17.3478 25.3593C17.3995 25.251 17.459 25.1466 17.5257 25.0469C17.5593 24.9937 17.5958 24.9363 17.6266 24.8802L17.67 24.7934L17.6882 24.7499L17.712 24.6953C17.6934 24.7296 17.6728 24.7628 17.6504 24.7948L17.586 24.8928C17.546 24.9481 17.5108 25.0067 17.4809 25.0679C17.5061 25.0119 17.5327 24.9545 17.5621 24.8956C17.5916 24.8368 17.6182 24.7808 17.6532 24.7135C17.6126 24.7275 17.5747 24.7345 17.5341 24.7485C17.4663 24.8257 17.4088 24.9114 17.3632 25.0035C17.3968 24.9279 17.4361 24.8494 17.4753 24.7696C17.3755 24.8084 17.279 24.8553 17.1867 24.9096C16.9289 25.145 16.6264 25.3607 16.5703 25.5162C16.3015 26.124 16.0991 26.759 15.9666 27.4102C15.8332 28.0738 15.7861 28.7518 15.8265 29.4274Z" fill="#FDFDFD"/>
<path d="M45.7635 20.707C45.8489 20.707 45.933 20.6565 45.9736 20.728C46.0576 20.9577 45.7803 21.1483 45.8559 21.371L45.996 21.3892C45.9652 21.4775 45.9316 21.5671 45.8966 21.6568C45.8615 21.7464 45.8195 21.8375 45.7831 21.9271C45.7901 22.2647 45.7957 22.601 45.8027 22.9358C45.8531 22.9358 45.8993 22.9358 45.9148 22.9694C45.9386 23.1095 45.8615 23.2944 45.8167 23.4849C45.8167 23.5143 45.8237 23.5451 45.8265 23.5732C45.8554 23.5981 45.8901 23.6155 45.9274 23.6236C45.9098 23.7022 45.8839 23.7787 45.8503 23.8519C45.8958 24.3535 45.9061 24.8577 45.8811 25.3607C45.8713 25.4895 45.8629 25.6184 45.8531 25.7501C45.8433 25.8818 45.8153 26.0079 45.7971 26.1381C45.7789 26.2684 45.7467 26.3987 45.7186 26.5318C45.6911 26.6664 45.6555 26.7993 45.6122 26.9296C45.5996 27.0571 45.587 27.1874 45.5659 27.3163C45.5391 27.4348 45.5001 27.5503 45.4497 27.6609C45.3512 27.8168 45.2238 27.9523 45.0742 28.0601C44.9342 28.1876 44.7632 28.2759 44.6358 28.3739C44.7162 28.4598 44.7612 28.5729 44.7618 28.6905C44.7646 28.7537 44.7618 28.817 44.7534 28.8796C44.7436 28.9413 44.7296 29.0043 44.7156 29.0674C44.661 29.3195 44.5979 29.5787 44.8067 29.7342L44.6232 29.8448C44.5588 29.8771 44.4962 29.9127 44.4354 29.9513C44.322 30.0228 44.2435 30.0984 44.2645 30.1642C44.3411 30.3835 44.3551 30.6197 44.3052 30.8465C44.2065 31.1586 44.0063 31.4288 43.7364 31.6141C43.4562 31.7612 42.9491 31.7234 42.8665 31.8327C42.8607 31.8403 42.8564 31.849 42.854 31.8583C42.8515 31.8676 42.8509 31.8772 42.8522 31.8867C42.8535 31.8962 42.8567 31.9054 42.8616 31.9136C42.8664 31.9219 42.8728 31.9292 42.8805 31.9349C42.9247 31.9675 42.9746 31.9918 43.0276 32.0064C43.1438 32.0498 43.2643 32.0904 43.1943 32.1787C44.4137 31.9345 45.551 31.3839 46.4989 30.5789C47.4375 29.77 48.2003 28.7774 48.7403 27.6623C48.7798 27.4983 48.8294 27.3369 48.8888 27.179C48.9645 26.9633 49.0373 26.6957 49.1354 26.3959C49.3281 25.7112 49.4797 25.0156 49.5892 24.3128C49.7013 23.5718 49.7587 22.8251 49.791 22.1891C49.8232 21.5531 49.826 21.0278 49.8442 20.7224L49.8358 20.6117C49.8358 19.9449 49.7419 19.1436 49.4926 18.6155C49.3525 18.3759 49.1788 18.1406 49.0079 17.9151C48.9514 18.0355 48.8877 18.1524 48.8174 18.2653C48.7935 18.0117 48.7641 17.7568 48.6619 17.6741C48.3649 17.1726 48.1814 17.5242 47.8872 17.775C47.7681 17.9403 47.5188 17.7848 47.4095 18.0271L47.3605 17.6307C47.2204 17.6307 47.5104 18.1042 47.2708 18.0299C47.2988 17.8716 47.1882 17.7161 47.1657 17.5606C46.9948 17.6461 47.1896 18.1112 47.0032 18.121C46.9486 18.0453 47.1783 17.6447 46.9472 17.6545C46.8996 17.6545 46.922 17.8114 46.9304 17.8884C46.7791 17.4233 46.5101 17.2244 46.349 17.6853C46.3421 17.6 46.3421 17.5143 46.349 17.4289C46.3566 17.3494 46.347 17.2692 46.321 17.1936C46.321 17.2482 46.3084 17.3939 46.321 17.4612L46.2818 17.216C46.252 17.2329 46.2238 17.2526 46.1977 17.2749C46.1805 17.3387 46.1757 17.4053 46.1837 17.471L46.1571 17.3057C46.0922 17.3611 46.0322 17.422 45.9778 17.4878C45.8727 17.7133 45.6976 17.9417 45.706 18.0481C45.7368 18.9321 45.7495 19.8342 45.7635 20.707Z" fill="white"/>
<path d="M54.7847 28.2437C54.8687 28.2437 54.9514 28.175 54.9934 28.2759C55.0859 28.5925 54.8057 28.8656 54.894 29.1906L55.034 29.2116C54.9808 29.4708 54.9094 29.737 54.8505 30.0171C54.88 30.5257 54.9248 31.0426 54.9906 31.5581C55.0411 31.5427 55.0859 31.5357 55.1069 31.5861C55.133 31.8623 55.1372 32.14 55.1195 32.4168C55.1293 32.4631 55.1405 32.5093 55.1517 32.5569C55.1826 32.5836 55.2216 32.5989 55.2624 32.6004C55.2624 32.7404 55.2624 32.8707 55.2554 32.9884C55.6442 34.5987 56.2206 36.1578 56.9728 37.6337C57.1928 37.9461 57.4407 38.2402 57.6102 38.5428C57.734 38.7928 57.8411 39.0507 57.931 39.3147C58.0417 39.5809 58.1356 39.8568 58.2476 40.081C58.4452 39.9409 58.7407 40.0978 59.0195 40.2295C59.1458 40.2968 59.2828 40.3418 59.4244 40.3626C59.4825 40.3722 59.5422 40.3648 59.5961 40.3412C59.6501 40.3175 59.696 40.2787 59.7284 40.2295C59.8095 40.3739 59.8979 40.5142 59.9931 40.6497C60.0926 40.7702 60.1878 40.8501 60.2509 40.8192C60.6319 40.6371 61.1334 40.5629 61.7918 40.9593C61.909 41.0718 62.0111 41.199 62.0958 41.3376C62.1841 41.4777 62.2597 41.5897 62.3242 41.5981C62.4348 41.6177 62.4096 41.4889 62.404 41.374C62.3984 41.2591 62.3872 41.14 62.4867 41.1512C61.8435 40.374 61.2689 39.5425 60.7692 38.6661C60.2705 37.7575 59.8977 36.7852 59.6611 35.7761C59.5942 35.6352 59.5375 35.4896 59.4916 35.3404C59.4286 35.1373 59.3613 34.8796 59.2941 34.5826C59.1429 33.8727 59.0362 33.154 58.9747 32.4308C58.9032 31.6281 58.8724 30.7834 58.857 30.0424C58.8416 29.3013 58.8444 28.6611 58.857 28.2843L58.8458 28.1442C58.8458 27.3247 58.7492 26.2796 58.4592 25.5498C58.2898 25.2116 58.0999 24.8841 57.8904 24.5692C57.8554 24.7334 57.8086 24.8949 57.7503 25.0525C57.6943 24.7051 57.6257 24.352 57.4982 24.2428C57.3007 23.901 57.1592 23.8631 57.0541 23.9486C56.949 24.034 56.8594 24.2414 56.7361 24.4137C56.6478 24.6336 56.3677 24.4501 56.3004 24.7611C56.2514 24.5636 56.2318 24.4627 56.1786 24.2652C56.0455 24.2792 56.4153 24.8536 56.1617 24.7723C56.1617 24.5734 56.0301 24.3815 55.9656 24.1979C55.8255 24.3156 56.0917 24.8746 55.904 24.89C55.8858 24.7819 55.8858 24.6716 55.904 24.5636C55.9092 24.504 55.9025 24.444 55.8844 24.3871C55.8759 24.3651 55.8596 24.347 55.8388 24.3362C55.8179 24.3254 55.7937 24.3225 55.7709 24.3282C55.7485 24.3282 55.7499 24.3787 55.7625 24.4361C55.7751 24.4935 55.7877 24.565 55.7989 24.6126C55.7537 24.4914 55.6899 24.378 55.6098 24.2764C55.5627 24.2062 55.498 24.1497 55.4221 24.1125C55.3002 24.0747 55.2204 24.1643 55.1783 24.4333C55.1377 24.2708 55.1279 24.027 55.0382 23.8813C55.0649 23.964 55.0803 24.1167 55.1097 24.1895L55.0046 23.9192C54.9822 23.9472 54.9598 23.9766 54.9388 24.0074C54.9379 24.0809 54.9502 24.154 54.9752 24.2232L54.9066 24.0509C54.8587 24.1241 54.8148 24.1999 54.7749 24.2778C54.7452 24.4028 54.7063 24.5255 54.6586 24.6448C54.6404 24.6904 54.6254 24.7372 54.6138 24.7849C54.6021 24.821 54.5987 24.8594 54.604 24.897C54.7553 25.8524 54.7595 27.0207 54.7847 28.2437Z" fill="white"/>
<path d="M19.6151 36.939C19.6067 37.023 19.6375 37.1113 19.5745 37.1449C19.528 37.1534 19.4801 37.1501 19.4353 37.1351C19.3905 37.1202 19.3502 37.0941 19.3181 37.0594C19.241 36.9978 19.1654 36.9362 19.0687 36.9642L19.0365 37.1043C18.8964 37.03 18.7676 36.9222 18.6317 36.8367C18.4916 36.8185 18.3613 36.8003 18.224 36.7891C18.0867 36.7779 17.9536 36.7541 17.8178 36.74C17.8108 36.7891 17.801 36.8353 17.7701 36.8437C17.6282 36.8161 17.4927 36.762 17.3709 36.684H17.2966C17.2705 36.7102 17.2496 36.7411 17.235 36.7751C17.1742 36.7467 17.1161 36.713 17.0613 36.6742C16.1471 36.6328 15.2501 36.411 14.4221 36.0214C14.1912 35.9852 13.969 35.9069 13.7665 35.7903C13.638 35.679 13.5312 35.5451 13.4513 35.3952L13.3112 35.1753C13.2733 35.101 13.2341 35.0352 13.1963 34.9651C13.01 35.1234 12.7634 35.0814 12.5155 35.038C12.2675 34.9946 12.0364 34.9413 11.8669 35.1403C11.7632 34.9371 11.6035 34.6387 11.4788 34.685C11.272 34.7684 11.048 34.8006 10.826 34.7788C10.54 34.7395 10.2768 34.6012 10.0822 34.388C9.92947 34.1723 9.94208 33.7422 9.82861 33.6876C9.74596 33.6525 9.70113 33.7436 9.66751 33.8515C9.63389 33.9593 9.59747 34.0616 9.50781 34.0168C9.80375 34.9718 10.2625 35.8684 10.8639 36.6672C11.4856 37.4956 12.2143 38.238 13.031 38.875C13.087 38.8997 13.1417 38.9273 13.1949 38.9576C13.2635 38.9912 13.3434 39.0333 13.4316 39.0837C13.6096 39.1818 13.8253 39.312 14.0774 39.4381C14.6529 39.7474 15.2515 40.0115 15.8678 40.2282C16.4964 40.4497 17.1401 40.6258 17.7939 40.7549C18.3809 40.8684 18.8712 40.9412 19.1542 40.9861H19.2593C19.8798 41.0673 20.6419 41.0351 21.149 40.8222C21.3832 40.6886 21.6096 40.5417 21.827 40.3823C21.7181 40.3183 21.6128 40.2481 21.5119 40.1722C21.7458 40.1638 21.9825 40.147 22.061 40.0489C22.5289 39.7785 22.2011 39.5768 21.9881 39.2728C21.8481 39.1439 21.9881 38.9058 21.7766 38.7811C21.9167 38.7727 21.9853 38.7671 22.1254 38.7545C22.1254 38.6144 21.7052 38.8792 21.7766 38.6424C21.9167 38.6802 22.0568 38.578 22.1899 38.564C22.1156 38.3903 21.7094 38.557 21.7094 38.3707C21.7752 38.323 22.1198 38.5724 22.1142 38.3412C22.1142 38.2964 21.9741 38.3062 21.9111 38.3118C22.3174 38.1871 22.4714 37.9308 22.089 37.7445C22.1603 37.7438 22.2315 37.749 22.3019 37.7599C22.3631 37.7737 22.4271 37.7689 22.4855 37.7459H22.4476L22.3888 37.7389C22.3509 37.732 22.3124 37.7296 22.2739 37.7319L22.47 37.7066C22.4567 37.6759 22.4407 37.6464 22.4224 37.6184C22.3723 37.5979 22.318 37.5898 22.2641 37.5946L22.4042 37.5778C22.3585 37.5115 22.3084 37.4483 22.2543 37.3886C22.0708 37.2724 21.8817 37.0805 21.7948 37.0861C21.0538 37.072 20.3155 37.009 19.6151 36.939Z" fill="#DDDDDD"/>
<path d="M24.4456 40.1694C24.4835 40.2478 24.8659 40.0895 24.363 40.4776C23.961 40.7802 23.5701 41.0561 23.1891 41.3363C22.9972 41.4764 22.8094 41.6165 22.6203 41.7566L22.1846 42.1096C22.0446 42.2273 21.8849 42.3701 21.735 42.499C21.5851 42.6279 21.4548 42.7792 21.3021 42.9193L21.0892 43.1308L20.9813 43.2373L20.9281 43.2905L20.9141 43.3031C20.9141 43.3031 20.9141 43.3157 20.9141 43.3213V43.3592C20.9141 43.5567 20.9141 43.7542 20.9141 43.9545C20.9141 44.054 20.9141 44.1549 20.9141 44.2557C20.9141 44.3566 20.9253 44.463 20.9309 44.5667C20.9561 44.9057 20.9799 45.2503 21.0051 45.6019C21.0233 45.8233 21.0471 46.0502 21.0766 46.2814L21.2237 46.4032C21.2797 47.8616 21.3385 49.3815 21.3974 50.9337C21.5066 52.1832 21.6145 53.4328 21.721 54.6656L22.7814 54.985L23.3039 55.1475L23.4342 55.1881L23.5001 55.2077L23.5323 55.2189H23.5379L23.6472 55.2371L23.9399 55.2946L24.349 55.3828L24.4597 55.4066L24.6124 55.4416L24.9177 55.5131L25.6098 55.6742L26.5217 54.9527C26.6674 54.8402 26.8189 54.7354 26.9756 54.6389C27.1283 54.5395 27.2796 54.4386 27.4267 54.3588L28.0473 53.9903L28.4928 53.748C28.4087 53.7354 28.3527 53.7088 28.5796 53.5729C29.5294 53.0462 30.9401 52.4424 32.4558 51.8988C32.6758 51.8064 32.8901 51.7083 33.11 51.6187C33.2739 51.5304 33.3019 51.4688 33.3202 51.431L34.3008 51.099L34.7588 50.9491L35.2057 50.8188L36.5758 50.3341C37.0339 50.1744 37.5017 50.0329 37.9654 49.8802L38.6659 49.6547C38.8984 49.579 39.1309 49.5034 39.3663 49.4361L40.7854 49.0159L41.497 48.8057C41.7352 48.7357 41.9705 48.6811 42.2073 48.618L43.6333 48.2468C44.5929 48.0395 45.5581 47.8083 46.5401 47.6486C48.5273 47.2894 50.5366 47.0657 52.5541 46.979C53.0654 46.9622 53.5795 46.9398 54.095 46.9468C54.3528 46.9468 54.6119 46.9468 54.8711 46.9468L55.6486 46.972L56.1487 46.9874C56.2888 46.9874 56.4289 46.9972 56.583 47.0084C56.88 47.0266 57.1909 47.0546 57.5159 47.0981C57.656 47.1149 57.8311 47.1401 58.0049 47.1723C58.1113 47.1597 58.1029 47.2536 58.1127 47.3124C58.1174 47.376 58.1151 47.4399 58.1057 47.5029C58.0842 47.6289 58.0446 47.7511 57.988 47.8658C57.8637 48.1105 57.7047 48.3361 57.5159 48.5354C57.308 48.7548 57.0831 48.9576 56.8435 49.1419L56.653 49.282C56.5928 49.3311 56.5227 49.3745 56.4219 49.4417C56.2327 49.5622 56.052 49.6911 55.8615 49.8017C54.5951 50.5183 53.2708 51.1274 51.9027 51.6229C51.544 51.7518 51.1924 51.8904 50.8338 52.0081L49.7761 52.3639L48.7465 52.6861C48.4117 52.7912 48.0867 52.8935 47.7659 52.9831C48.0307 53.154 46.6452 53.7732 45.334 54.3125L44.4108 54.7048C44.1236 54.8267 43.8701 54.9415 43.6796 55.041C43.2971 55.2413 43.1655 55.3856 43.5087 55.4234C43.0786 55.5355 42.5911 55.6448 42.1078 55.761L40.6887 56.1015C39.8076 56.3088 39.1295 56.4909 39.0777 56.5721C38.9571 56.7401 38.8048 56.8829 38.6294 56.9924C38.3048 57.1995 37.9621 57.3767 37.6054 57.5219C36.6808 57.9212 35.2239 58.3975 32.9097 58.9424C31.0886 59.3361 28.2616 59.619 27.6312 59.8068C26.638 60.1037 30.0463 59.7045 29.0531 60.0001C31.9987 59.5555 34.9181 59.0386 37.8113 58.4493C40.7069 57.8581 43.5843 57.1885 46.4477 56.3858C49.3111 55.5831 52.159 54.66 54.986 53.3824L55.5169 53.14C55.6934 53.0574 55.8685 52.9649 56.045 52.8781C56.2215 52.7912 56.3981 52.7029 56.5746 52.6119L57.1013 52.3219L57.3647 52.1818L57.628 52.0249L57.8914 51.8652L58.0315 51.784C58.0959 51.7448 58.1561 51.7097 58.236 51.6551L59.1185 51.0317L59.3399 50.8762C59.4113 50.823 59.4716 50.7627 59.5388 50.7067L59.9296 50.3663C60.9551 49.4487 61.6709 48.4359 61.8979 47.4707C62.0308 46.9923 62.0481 46.489 61.9483 46.0026C61.8979 45.7028 61.8712 45.5893 61.8348 45.4016L61.7172 44.8035C61.3375 44.7026 60.9593 44.5989 60.5642 44.5023C60.1692 44.4056 59.798 44.2935 59.3553 44.2221C58.9126 44.1506 58.505 44.0652 58.0693 43.9966L56.7231 43.8425L56.3868 43.8046L56.2173 43.785C56.1543 43.7766 56.1179 43.7752 56.0773 43.7724L55.7116 43.7472L54.9776 43.6982C54.4901 43.6786 53.997 43.6589 53.5109 43.6449C52.7166 43.68 51.1882 43.68 49.1682 43.8747C46.7285 44.1024 44.3066 44.4922 41.9187 45.0416L40.882 45.2797C40.536 45.3638 40.1956 45.4591 39.8454 45.5487L38.7905 45.8289C38.4361 45.9213 38.0775 46.0124 37.7203 46.1203C37.0016 46.3318 36.2732 46.5405 35.5391 46.7605C34.8051 46.9804 34.0654 47.2242 33.3244 47.4791L32.2135 47.8728L31.6531 48.0703L31.0928 48.2874L29.9833 48.7217L28.8822 49.1966C28.5138 49.3493 28.1509 49.5272 27.7895 49.6995L27.2474 49.9586C27.0667 50.0497 26.8888 50.1464 26.7095 50.2388L26.1757 50.519C26.0861 50.5638 25.9992 50.6199 25.911 50.6703L25.8115 50.7277C25.7569 50.7599 25.7218 50.7838 25.6714 50.8132C25.5914 50.866 25.5168 50.9265 25.4487 50.9939C25.4386 51.003 25.4293 51.0128 25.4207 51.0233C25.4207 51.0233 25.4207 51.0009 25.4207 50.9911L25.4137 50.9112L25.401 50.7557C25.261 49.0019 25.1293 47.3937 25.0172 46.0068C24.999 45.7729 24.9808 45.5431 24.9626 45.3204C24.9542 45.2139 24.9472 45.1102 24.9388 45.008V44.9646C24.9388 44.9365 24.9388 44.9085 24.9388 44.8819C24.9388 44.8553 24.9486 44.8595 24.957 44.8511L24.9864 44.8259L25.3324 44.5457C25.5677 44.3622 25.7919 44.1941 26.0006 44.047C26.1785 43.9069 26.3676 43.7836 26.5498 43.6519C28.3879 42.4407 30.3437 41.418 32.3872 40.5994C33.4266 40.1792 34.4717 39.8094 35.4691 39.4788C36.4665 39.1481 37.4303 38.8736 38.3002 38.6382C39.8902 38.1731 41.5404 37.7613 43.2117 37.4405C42.4216 37.4587 41.6833 37.4629 41.0445 37.4923L41.6847 37.3971C41.8977 37.3662 42.105 37.3438 42.3151 37.3186C42.7354 37.271 43.1248 37.2121 43.4905 37.1785C44.2203 37.1071 44.8157 37.0188 45.1463 36.9614C46.0666 36.8493 46.627 36.7569 46.9268 36.6952C47.2266 36.6336 47.2658 36.5663 47.1439 36.5075C46.8999 36.4217 46.6471 36.363 46.3903 36.3324C46.0442 36.282 45.638 36.2301 45.2696 36.1713C44.747 36.1335 44.8297 36.0312 44.8409 35.943C44.8521 35.8547 44.7905 35.7608 43.9667 35.7651L44.7582 35.695L45.4419 35.6558C45.8859 35.6334 46.33 35.5927 46.924 35.5829C46.9562 35.5479 46.7447 35.5409 46.4211 35.5507C46.0975 35.5605 45.6646 35.6026 45.2527 35.632C44.8409 35.6614 44.4486 35.695 44.2119 35.7048C43.9752 35.7146 43.8883 35.6908 44.0886 35.6152C44.6602 35.5815 45.264 35.5381 45.8733 35.4863C46.4827 35.4344 47.0977 35.3966 47.6945 35.377C47.4857 35.2944 46.4547 35.2972 45.4993 35.3532L44.8101 35.384L44.2343 35.4148C43.9051 35.4274 43.7048 35.4148 43.7454 35.37C44.3856 35.2383 47.1075 35.37 47.3218 35.1585C47.3442 35.1347 47.0571 35.1305 46.6886 35.1361C46.3202 35.1417 45.8747 35.1739 45.5763 35.1879C46.4925 35.0996 47.3064 35.0618 47.9578 35.0016C48.6092 34.9413 49.1051 34.9147 49.3783 34.8615C49.9246 34.7676 49.5954 34.6402 47.9032 34.5421C48.4902 34.5267 49.199 34.5603 49.9148 34.5729C50.6307 34.5855 51.3521 34.6416 51.9713 34.6388H51.9629C51.6533 34.6275 51.233 34.6037 50.8184 34.5813C50.4037 34.5589 49.9947 34.5323 49.7075 34.5379C50.0605 34.5379 50.4079 34.5491 50.7638 34.5589L51.8186 34.5883C51.7093 34.5547 51.5847 34.5197 51.453 34.4847C50.9277 34.4468 50.3995 34.4048 49.849 34.3992C50.3169 34.3992 50.7848 34.423 51.2499 34.4342C50.901 34.3516 50.499 34.2703 50.0549 34.1933C48.3837 34.042 46.7601 33.8725 45.8453 33.9299C43.9924 34.0043 42.1448 34.1778 40.3105 34.4496C38.4603 34.7192 36.6279 35.0996 34.8233 35.5885C33.0011 36.0787 31.2168 36.7004 29.4846 37.4489C27.7269 38.2031 26.0405 39.1136 24.4456 40.1694Z" fill="white"/>
</svg>
