<svg width="37" height="60" viewBox="0 0 37 60" fill="none" xmlns="http://www.w3.org/2000/svg">
<path d="M23.802 56.895V1.63238C23.7996 1.20502 23.6308 0.795408 23.3312 0.490592C23.0317 0.185777 22.6251 0.00978065 22.1978 0C21.637 0 16.6646 0.209922 14.8505 2.16188C13.0991 4.04178 12.4286 6.86162 12.861 10.4522C12.8954 11.1196 12.5727 12.1285 12.0589 12.5107C11.8897 12.636 11.6203 12.752 11.0375 12.5389C9.104 11.8299 6.97619 11.8635 5.06609 12.6333C3.156 13.4032 1.59952 14.8544 0.698057 16.706C-0.724397 19.742 -0.307687 24.1065 5.12834 27.2522C6.75132 28.1922 8.66568 29.8151 8.57482 32.2151C8.50276 34.0418 7.35916 35.3483 6.73879 35.6334C2.82547 37.7264 2.01085 43.0308 3.72782 46.4804C4.92782 48.8961 7.21189 50.2841 9.99414 50.2841C11.7006 50.2386 13.3773 49.8261 14.9101 49.0747C19.331 47.0413 20.5028 48.5608 20.8881 49.0747C21.0519 49.2899 21.2675 49.4602 21.5148 49.5697C21.5148 55.6762 20.9195 57.365 20.6939 58.0104C20.65 58.142 20.6156 58.2423 20.5936 58.3238C20.5414 58.5026 20.5286 58.6906 20.5561 58.8749C20.5836 59.0591 20.6507 59.2352 20.7529 59.391C20.8551 59.5468 20.9898 59.6786 21.1479 59.7772C21.3059 59.8759 21.4835 59.9391 21.6683 59.9624C21.81 59.9875 21.9536 60.0001 22.0975 60C22.4682 59.9948 22.8351 59.9248 23.1816 59.7932C23.4354 59.6867 24.1341 59.4329 23.802 56.895ZM20.5247 45.0204C18.6448 44.4721 16.2981 44.8355 13.5377 46.1044C11.6046 46.9911 8.13931 48.0313 6.64479 45.0266C5.61712 42.965 6.09023 39.6815 8.21137 38.5473C9.88135 37.7452 11.7205 35.3013 11.8364 32.3405C11.9054 30.5232 11.3414 27.0736 6.76072 24.423C3.72469 22.6653 2.59362 20.3499 3.65576 18.094C4.20398 16.9745 5.14965 16.0993 6.30825 15.6394C7.46684 15.1794 8.75525 15.1676 9.92208 15.6063C11.8302 16.3081 13.1962 15.7379 13.9952 15.1394C15.5806 13.9708 16.1884 11.8245 16.1101 10.1734C15.7968 7.49452 16.1696 5.55196 17.2286 4.40209C18.0432 3.5154 19.6474 3.28982 20.531 3.23342L20.5153 45.0016L20.5247 45.0204Z" fill="white"/>
<path d="M28.9778 30.7362L36.488 19.3252H32.6436L25.5 30.8114L33.1167 44.9043H36.9454L28.9778 30.7362Z" fill="white"/>
</svg>
