<svg width="84" height="60" viewBox="0 0 84 60" fill="none" xmlns="http://www.w3.org/2000/svg">
<path fill-rule="evenodd" clip-rule="evenodd" d="M50.5951 1.17088C50.236 0.983449 49.2689 0.65935 48.4462 0.4506C47.6234 0.241849 46.8659 0.0453202 46.7631 0.0138955C46.6602 -0.0175293 46.4972 0.00616353 46.4008 0.0666438C46.2606 0.154683 46.298 0.244468 46.5879 0.516442C47.3638 1.24408 49.0144 2.56753 50.5041 3.65605C52.7987 5.33279 53.6309 6.05918 54.3503 7.01364C55.242 8.19668 56.1387 9.98465 56.7487 11.7957C57.0316 12.6361 57.4537 13.6489 57.6868 14.0464C58.5633 15.542 60.6406 17.0828 63.1371 18.089C64.2298 18.5293 64.5939 18.6164 64.5971 18.438C64.6016 18.1879 64.0565 16.3227 63.9297 16.1543C63.85 16.0484 63.4481 15.7434 63.0366 15.4764C62.1062 14.8727 60.5675 13.3431 59.8963 12.3547C59.6175 11.9443 58.9273 10.6855 58.3624 9.55718C57.7974 8.42888 57.0508 7.0826 56.7034 6.56534C55.4853 4.75218 52.6355 2.23533 50.5951 1.17088ZM29.9284 3.14515C25.724 1.58252 24.2926 1.11813 22.571 0.758114C22.0566 0.650497 21.0855 0.528538 20.413 0.486888L19.1904 0.411319L19.2283 1.14195L19.2664 1.87257L21.0807 2.33534C24.2072 3.13281 26.0513 3.79996 33.1082 6.6863C34.48 7.24733 36.5001 8.03894 37.5975 8.44546C38.6949 8.85187 39.7891 9.26413 40.0292 9.36164C40.2692 9.45916 41.1671 9.79873 42.0244 10.1162C44.4912 11.0299 45.5421 11.5827 46.3907 12.4131C47.4492 13.4487 47.9462 14.5265 47.9471 15.7881C47.9476 16.5593 47.8876 16.8437 47.6053 17.4093C47.1213 18.3786 45.8259 20.1407 44.8833 21.1119C43.7765 22.2524 42.7581 22.8854 38.988 24.7767C36.1132 26.219 35.6388 26.4996 34.9825 27.146C34.5063 27.615 34.2817 27.9218 34.359 27.9975C34.507 28.1423 36.4314 28.4148 36.6745 28.3254C37.1864 28.1371 41.1262 27.7338 43.022 27.6757C44.9879 27.6153 45.4886 27.6469 48.0724 27.9935C49.6499 28.2052 51.5859 28.4401 52.3746 28.5154C53.9436 28.6653 61.1186 28.6788 62.9119 28.5353L64.0342 28.4453L64.0714 27.7352C64.1048 27.0984 64.077 27.0042 63.8034 26.825C63.5312 26.6466 63.2915 26.6409 61.584 26.7728C59.3603 26.9447 55.0904 26.8611 52.0005 26.5853C50.8689 26.4843 49.494 26.3681 48.9453 26.3269C48.3967 26.2859 46.9482 26.1705 45.7268 26.0707C44.5052 25.9708 43.1445 25.889 42.7028 25.889C42.2611 25.889 41.9013 25.8469 41.9032 25.7954C41.9052 25.7439 42.2258 25.5086 42.6159 25.2724C44.7721 23.9666 48.237 20.8576 49.1709 19.3909C51.1117 16.3431 50.0706 12.6225 46.576 10.1173C45.3821 9.26163 42.4766 7.93581 37.9716 6.19123C34.4726 4.83635 34.1809 4.72587 29.9284 3.14515ZM59.6425 2.01548C58.8461 1.34334 58.0764 0.86436 57.4519 0.652367C56.6213 0.370542 54.3957 0.398225 54.0813 0.694391C53.9182 0.848024 54.2772 1.12586 55.9108 2.11038C56.7564 2.62003 57.9478 3.41812 58.5583 3.88401C59.8557 4.87389 60.9649 5.42582 62.5792 5.88472C63.4275 6.12589 63.7802 6.17827 63.8805 6.07801C63.9562 6.00231 64.0421 5.60763 64.0715 5.20085L64.125 4.46137L63.6145 4.13915C63.3336 3.96182 63.0659 3.81679 63.0194 3.81679C62.7822 3.81679 60.05 2.35941 59.6425 2.01548ZM40.6527 1.97707C38.9382 1.30007 38.1211 1.05914 36.555 0.768215C35.5762 0.5864 31.9655 0.511081 31.3936 0.660473C30.6636 0.851266 31.5144 1.21639 35.1339 2.26551C38.6033 3.2711 39.285 3.5114 42.7103 4.93574C47.6246 6.97947 49.3909 7.85824 50.7969 8.95923C53.4353 11.0254 54.6262 13.395 54.2609 15.8516C53.975 17.7733 53.2956 18.9614 51.4089 20.8385C50.3881 21.8542 50.1275 22.1897 50.0044 22.6467C49.8807 23.1059 49.8847 23.2646 50.0266 23.5196C50.3789 24.1531 50.7687 24.2283 55.4922 24.5745C57.927 24.7529 60.6486 24.9527 61.5402 25.0185C63.7097 25.1784 64.2213 25.0242 64.2213 24.21C64.2213 24.0113 64.2354 23.8651 64.181 23.7519C64.0159 23.408 63.2197 23.3671 59.4826 23.0771C56.8671 22.8742 52.5528 22.483 52.5107 22.4451C52.4826 22.4198 52.7712 22.0725 53.152 21.6732C54.3003 20.4694 55.0543 19.1331 55.5584 17.4093C55.7366 16.7996 55.7944 16.2122 55.7918 15.0399C55.7886 13.6132 55.7539 13.3808 55.3834 12.2965C54.3236 9.19492 52.0738 6.94057 48.4346 5.33366C47.8239 5.06406 46.9595 4.67561 46.5137 4.4706C45.0884 3.81505 42.2598 2.61155 40.6527 1.97707ZM38.7132 12.4581C36.6505 11.3665 32.05 9.53685 23.9008 6.56746C21.443 5.67185 19.407 4.93911 19.3765 4.93911C19.2417 4.93911 19.1949 5.33927 19.2293 6.19784L19.2664 7.12138L20.5134 7.54512C26.1177 9.44931 34.7458 12.6499 36.0958 13.3253C37.3653 13.9604 38.6919 14.8347 39.2356 15.3945C39.4699 15.6358 39.8418 16.1992 40.062 16.6465C40.4119 17.3573 40.4625 17.5863 40.463 18.4634C40.464 20.1854 39.941 20.9416 37.7793 22.3444C34.4909 24.4783 31.6131 25.679 23.0698 28.4816L19.2664 29.7293L19.2311 31.1911L19.1958 32.6531L21.9122 32.5897C23.5585 32.5511 25.4391 32.4227 26.6861 32.2635C32.0579 31.5775 32.3423 31.5629 40.3409 31.5629C46.8537 31.5629 48.0411 31.5921 49.5065 31.7883C51.7691 32.0912 58.7438 33.6506 56.8639 33.4333C56.6238 33.4056 55.6979 33.2697 54.8063 33.1314C51.2506 32.5798 47.8127 32.3393 43.3961 32.333C39.1227 32.327 36.3017 32.4834 31.4248 32.9964C30.1559 33.13 28.6689 33.2735 28.1202 33.3154C27.5715 33.3573 26.5895 33.4434 25.9379 33.5065C25.2863 33.5695 23.5025 33.658 21.9738 33.7029L19.1943 33.7847L19.2303 34.7314L19.2664 35.678L21.6357 35.6538C22.9388 35.6405 24.9029 35.5431 26.0003 35.4375C27.0976 35.3319 29.4264 35.1045 31.1754 34.9322C37.8383 34.2756 44.4506 34.1164 49.5688 34.4891C52.7991 34.7244 60.0127 36.0854 61.869 36.8098C63.4368 37.4216 63.7823 37.4659 64.1665 37.1049C64.3339 36.9477 64.4707 36.7492 64.4707 36.6635C64.4707 36.3306 63.1553 35.3648 62.1066 34.9277C60.9386 34.4411 61.0919 34.4296 62.7683 34.8781C63.8514 35.1679 63.8747 35.169 64.0464 34.9342C64.2727 34.6249 64.2709 33.8715 64.0433 33.5465C63.781 33.172 63.1596 32.9433 60.6673 32.3044C50.6152 29.7272 49.993 29.63 43.1467 29.5709C37.9758 29.5261 34.7183 29.6185 30.3003 29.9352C27.6972 30.1217 23.4183 30.6001 22.041 30.8584C21.7151 30.9195 21.4487 30.9285 21.4487 30.8784C21.4487 30.8284 22.2482 30.5769 23.2257 30.3196C26.1696 29.5447 26.6574 29.3858 28.9935 28.4406C37.1355 25.1462 40.0768 23.3084 41.4396 20.6642C42.0485 19.4828 42.1873 18.8469 42.1284 17.5069C42.0853 16.5256 42.016 16.218 41.6739 15.4871C41.1783 14.4286 39.8298 13.0492 38.7132 12.4581ZM21.7604 11.4953C21.4861 11.4469 20.9249 11.3036 20.5134 11.1769C20.1019 11.0502 19.6674 10.9078 19.548 10.8604C19.2498 10.7421 19.1846 10.9725 19.2291 11.9872C19.2635 12.772 19.2904 12.8449 19.5781 12.9307C19.7496 12.9819 20.423 13.1714 21.0746 13.3518C22.6715 13.7942 24.7636 14.6517 26.4656 15.5619C29.2154 17.0322 32.4083 19.3588 32.5806 20.0183C32.688 20.4289 32.2239 20.9844 31.3395 21.504C30.3991 22.0564 29.7878 22.2535 26.4991 23.0655C24.19 23.6356 20.8199 24.5123 19.8275 24.8008L19.2664 24.9641L19.2303 26.0499C19.2002 26.9601 19.2254 27.136 19.3863 27.136C19.4918 27.136 20.8548 26.7743 22.4151 26.3324C23.9755 25.8905 25.8974 25.3549 26.6861 25.1421C29.022 24.512 30.7789 23.9203 31.5772 23.4948C34.1431 22.1272 34.9193 19.4271 33.2316 17.7393C32.3941 16.9018 27.9992 14.0247 26.2687 13.1811C24.7186 12.4253 22.6517 11.6525 21.7604 11.4953ZM22.571 17.6002C21.7136 17.2812 20.7381 16.9112 20.4033 16.7781C20.0683 16.6452 19.6614 16.5363 19.4992 16.5363C19.2134 16.5363 19.204 16.568 19.204 17.534C19.204 18.0826 19.222 18.5316 19.2441 18.5316C19.3408 18.5316 22.0724 19.5307 22.6645 19.7826C23.0245 19.9358 23.3192 20.1031 23.3192 20.1542C23.3192 20.3371 22.4415 20.5963 20.1654 21.0855L19.1939 21.2943L19.2301 22.251C19.2474 22.7072 19.2221 22.9679 19.3394 23.0827C19.5099 23.2496 19.9816 23.1086 21.3228 22.8124C23.8126 22.2626 24.694 21.8243 25.1585 20.9046C25.6626 19.9068 25.4329 18.9784 24.5479 18.4364C24.3179 18.2956 23.4283 17.9193 22.571 17.6002ZM47.6987 35.6777C46.6697 35.5758 44.7616 35.4341 43.4585 35.363C40.1304 35.1812 37.8197 35.2734 34.4176 35.7234C30.2528 36.2744 27.2853 36.3936 21.5734 36.2392L19.2664 36.1768L19.2302 37.1287L19.1941 38.0805L23.5324 38.1744C27.9232 38.2695 30.7023 38.2049 31.6118 37.9866C32.3674 37.8053 36.2177 37.2627 37.3481 37.1782C38.4608 37.0949 43.3289 37.0909 44.3937 37.1723C44.771 37.2013 45.5285 37.2581 46.0772 37.2988C49.1042 37.523 52.6555 37.9036 54.2452 38.1739C56.3874 38.5383 57.4915 38.8266 60.9092 39.914C62.3171 40.3619 63.5402 40.7267 63.6269 40.7244C63.7923 40.7203 64.4707 40.1715 64.4707 40.042C64.4707 39.8701 63.7573 39.0785 63.4107 38.866C62.9811 38.6024 59.9969 37.6759 57.7991 37.1238C55.709 36.5987 53.7579 36.2656 51.5021 36.0488C50.4393 35.9466 48.7277 35.7797 47.6987 35.6777ZM59.5708 40.1547C53.504 38.7656 51.8637 38.4877 48.2595 38.2377C46.5935 38.1221 44.5242 38.0967 43.7702 38.1827C43.4576 38.2182 39.7807 38.4831 38.8445 38.5374C36.3818 38.6802 29.5731 38.8755 24.9091 38.937L19.204 39.012V39.8222V40.6324L28.089 40.5574C32.9758 40.5161 37.7035 40.4282 38.5951 40.3621C41.7704 40.1265 46.0091 40.0637 48.3218 40.2177C51.1568 40.4066 53.263 40.7084 57.1133 41.4774C58.7936 41.813 61.0034 42.214 62.0237 42.3686L63.8788 42.6496L64.1805 42.2988C64.3465 42.1059 64.4616 41.8858 64.4363 41.8097C64.4108 41.7337 64.0972 41.5113 63.7392 41.3157C63.2681 41.0583 62.1171 40.7377 59.5708 40.1547ZM57.3003 42.2109C54.9365 41.7072 51.7653 41.2507 49.6068 41.1033C47.9921 40.9931 44.1143 40.9751 41.0268 41.0635C32.9788 41.2941 20.0782 41.81 19.547 41.9226C19.2124 41.9935 19.204 42.0165 19.204 42.8697V43.744L20.2952 43.673C21.624 43.5867 23.2773 43.5231 30.3648 43.2857C33.3826 43.1847 36.2725 43.0737 36.7869 43.039C38.7466 42.9071 43.2079 42.7947 46.2643 42.8004C51.4306 42.8097 53.2267 43.0112 58.3603 44.1571C58.8061 44.2566 59.9284 44.4228 60.8543 44.5265L63.1891 44.7878C63.8235 44.8588 63.847 44.8499 64.0927 44.4469C64.2315 44.2192 64.3452 43.9425 64.3455 43.8319C64.3461 43.5716 63.028 42.9731 62.4546 42.9731C61.6751 42.9731 59.0685 42.5876 57.3003 42.2109ZM45.5871 55.227C45.4205 55.029 45.0699 54.7961 44.8077 54.7096C44.2117 54.5127 41.2282 54.4316 39.6551 54.5697C37.7768 54.7344 35.4495 55.1553 32.6718 55.8327C28.0471 56.9605 26.7969 56.9646 25.5639 55.8561C24.9019 55.2609 24.4121 55.157 24.1935 55.5653C24.1208 55.7011 24.0969 55.954 24.1405 56.1273C24.2412 56.5287 24.0927 57.344 23.9363 57.2475C23.8712 57.2072 23.818 57.046 23.818 56.8893C23.818 56.536 23.4545 56.1914 23.0815 56.1914C22.801 56.1914 22.2335 56.6692 21.9867 57.113C21.8129 57.4256 21.6623 57.3122 21.2148 56.5317C20.3941 55.0998 19.4134 54.539 17.804 54.5815C16.4224 54.6181 15.2928 54.9465 11.8466 56.3135C8.49604 57.6427 7.13517 58.0964 5.848 58.3136C3.98858 58.6272 2.41285 58.1541 1.411 56.9814C0.646453 56.0866 0 56.0909 0 56.991C0 57.2904 0.171589 57.5345 0.845476 58.1939C1.93225 59.2572 2.69879 59.5747 4.36991 59.6538C6.36601 59.7482 7.51713 59.4395 12.4078 57.4994C15.822 56.1449 16.667 55.8935 17.8323 55.8859C19.0691 55.8777 19.5185 56.1493 20.219 57.3283C21.0318 58.6966 21.6165 59.0301 22.3959 58.5702L22.8472 58.3039L23.1349 58.6144C23.7777 59.3078 24.6203 59.034 25.0866 57.9799C25.2183 57.6821 25.3375 57.4384 25.3514 57.4386C25.3654 57.4386 25.6854 57.5604 26.0626 57.7094C26.6066 57.9243 26.9935 57.9782 27.9331 57.9699C29.1598 57.9593 29.6878 57.8645 33.9812 56.8855C37.3351 56.1207 39.5793 55.8173 41.8831 55.8173C43.8806 55.8173 44.555 55.8944 44.4819 56.1145C44.3653 56.4658 41.5684 57.7245 40.5474 57.885C40.2435 57.9329 39.7233 57.8496 38.9864 57.6352C38.3249 57.4428 37.5704 57.3137 37.1064 57.3137C36.4469 57.3137 36.2893 57.3589 36.0466 57.6171C35.8898 57.7839 35.7464 58.1066 35.728 58.3342C35.684 58.8744 36.0746 59.6307 36.5153 59.8587C36.9789 60.0983 37.9872 60.0296 39.1389 59.6798C40.055 59.4015 40.2578 59.401 41.5256 59.674C42.1122 59.8002 49.2151 59.7676 50.3171 59.6336C53.8047 59.2095 56.3567 58.5681 57.846 57.7413C58.1462 57.5747 58.4101 57.4384 58.4325 57.4384C58.4549 57.4384 58.5812 57.6821 58.7128 57.9799C59.1778 59.031 60.0217 59.3078 60.6603 58.6187L60.9439 58.3129L61.4584 58.5927L61.9729 58.8725L62.4424 58.6231C62.7528 58.4583 63.0859 58.099 63.4251 57.5631C64.1113 56.479 64.482 56.1308 65.1491 55.9441C66.2539 55.6348 67.6069 55.9756 71.5787 57.5638C75.9789 59.3233 77.2293 59.6768 79.0608 59.6788C80.7249 59.6808 81.8698 59.2844 82.8641 58.3619C83.7452 57.5447 84.0332 56.8492 83.6498 56.4658C83.3439 56.1599 82.9772 56.3124 82.3933 56.9889C82.0738 57.3589 81.5691 57.7794 81.2717 57.9234C79.3684 58.8447 77.437 58.522 72.1731 56.4027C68.3706 54.8718 67.4201 54.5841 66.0813 54.5593C64.3574 54.5274 63.3969 55.1013 62.4474 56.7306C62.137 57.263 61.8519 57.4868 61.8519 57.1979C61.8519 56.9369 61.001 56.1914 60.7031 56.1914C60.3351 56.1914 59.9814 56.5441 59.9814 56.911C59.9814 57.0557 59.9314 57.2053 59.8704 57.2429C59.7214 57.3351 59.5791 56.534 59.676 56.1482C59.8727 55.3647 59.0509 55.0217 58.4755 55.6472C57.2077 57.0257 53.5928 58.0624 48.7645 58.4323C46.8188 58.5813 43.1456 58.6042 43.1492 58.4672C43.1506 58.4157 43.5293 58.1958 43.9909 57.9782C45.6738 57.1851 46.3109 56.0871 45.5871 55.227ZM37.5352 58.6855C37.5352 58.8417 37.4028 58.8417 37.161 58.6855C37.0098 58.5877 37.0277 58.5643 37.2546 58.5626C37.409 58.5616 37.5352 58.6169 37.5352 58.6855Z" fill="white"/>
</svg>
