<svg width="60" height="60" viewBox="0 0 60 60" fill="none" xmlns="http://www.w3.org/2000/svg">
<path d="M25.1904 30.6613C33.0661 21.6433 33.7275 7.03407 29.0982 0H10.8818C4.86974 0 0 4.86974 0 10.8818V49.1182C0 55.1303 4.86974 60 10.8818 60H14.7295C11.5431 48.2164 17.0741 40.1002 25.1904 30.6613Z" fill="white"/>
<path d="M49.114 0H33.3625C45.8074 7.93587 52.3605 27.5351 38.2323 38.5371C23.7433 49.7796 16.9497 50.2004 16.4688 60H49.114C55.1261 60 59.9958 55.1303 59.9958 49.1182V10.8818C59.9958 4.86974 55.1261 0 49.114 0Z" fill="white"/>
</svg>
