<svg width="72" height="60" viewBox="0 0 72 60" fill="none" xmlns="http://www.w3.org/2000/svg">
<path d="M0 1.52306L28.8642 0L27.8489 24.812L0 1.52306Z" fill="url(#paint0_linear_2411_1146)"/>
<path d="M28.8669 0L55.3774 24.812H27.8516L28.8669 0Z" fill="url(#paint1_linear_2411_1146)"/>
<path d="M55.3777 24.8129L59.7623 6.35156L43.5625 13.7545L55.3777 24.8129Z" fill="url(#paint2_linear_2411_1146)"/>
<path d="M59.756 6.35156L71.9497 12.4069L58.2422 12.7299L59.756 6.35156Z" fill="url(#paint3_linear_2411_1146)"/>
<path d="M27.8497 24.8115L0.554688 7.73476L4.93001 5.6394L27.8497 24.8115Z" fill="#DFDFDF"/>
<path d="M27.8523 24.8127L35.7076 48.0094L22.3047 60L27.8523 24.8127Z" fill="url(#paint4_linear_2411_1146)"/>
<path d="M55.3774 24.8127L33.2238 40.671L27.8516 24.8127H55.3774Z" fill="url(#paint5_linear_2411_1146)"/>
<path d="M27.8516 24.8127H55.3774L28.4239 26.502L27.8516 24.8127Z" fill="#DFDFDF"/>
<path d="M43.5625 13.7537L55.3777 24.812L45.0302 13.0798L43.5625 13.7537Z" fill="#DFDFDF"/>
<path d="M59.756 6.35156L58.2422 12.7299H59.4606L59.756 6.35156Z" fill="#DFDFDF"/>
<defs>
<linearGradient id="paint0_linear_2411_1146" x1="0" y1="12.406" x2="28.8642" y2="12.406" gradientUnits="userSpaceOnUse">
<stop offset="0.87" stop-color="white"/>
<stop offset="1" stop-color="#EDEDED"/>
</linearGradient>
<linearGradient id="paint1_linear_2411_1146" x1="42.5468" y1="11.9814" x2="28.7839" y2="25.7443" gradientUnits="userSpaceOnUse">
<stop offset="0.37" stop-color="white"/>
<stop offset="0.83" stop-color="#E8E8E8"/>
</linearGradient>
<linearGradient id="paint2_linear_2411_1146" x1="61.0823" y1="7.67154" x2="49.2763" y2="19.4775" gradientUnits="userSpaceOnUse">
<stop offset="0.69" stop-color="white"/>
<stop offset="0.89" stop-color="#EAEAEA"/>
</linearGradient>
<linearGradient id="paint3_linear_2411_1146" x1="71.9497" y1="9.53614" x2="58.2422" y2="9.53614" gradientUnits="userSpaceOnUse">
<stop offset="0.69" stop-color="white"/>
<stop offset="0.89" stop-color="#EAEAEA"/>
</linearGradient>
<linearGradient id="paint4_linear_2411_1146" x1="24.76" y1="42.351" x2="36.3445" y2="44.3909" gradientUnits="userSpaceOnUse">
<stop offset="0.15" stop-color="white"/>
<stop offset="0.44" stop-color="#E4E4E4"/>
</linearGradient>
<linearGradient id="paint5_linear_2411_1146" x1="54.602" y1="33.6465" x2="27.2885" y2="31.2557" gradientUnits="userSpaceOnUse">
<stop offset="0.58" stop-color="#E6E6E6"/>
<stop offset="0.89" stop-color="white"/>
</linearGradient>
</defs>
</svg>
