<svg width="91" height="63" viewBox="0 0 91 63" fill="none" xmlns="http://www.w3.org/2000/svg">
<path d="M1.13008 62.4863C0.787635 62.4863 0.513675 62.3836 0.308205 62.1781C0.102735 61.9726 0 61.6987 0 61.3562V27.7105C0 27.3338 0.102735 27.0427 0.308205 26.8373C0.513675 26.6318 0.787635 26.5291 1.13008 26.5291H13.6124C16.0095 26.5291 18.0814 26.94 19.8278 27.7619C21.6086 28.5495 22.9784 29.731 23.9372 31.3062C24.9304 32.8815 25.4269 34.8335 25.4269 37.1621C25.4269 39.4908 24.9304 41.4427 23.9372 43.018C22.9784 44.5933 21.6086 45.7919 19.8278 46.6137C18.0814 47.4014 16.0095 47.7952 13.6124 47.7952H3.23615V61.3562C3.23615 61.6987 3.13342 61.9726 2.92795 62.1781C2.72248 62.3836 2.43139 62.4863 2.0547 62.4863H1.13008ZM3.23615 44.7131H13.3555C16.3349 44.7131 18.5437 44.0625 19.982 42.7612C21.4545 41.4599 22.1908 39.5935 22.1908 37.1621C22.1908 34.7307 21.4545 32.8644 19.982 31.5631C18.5437 30.2618 16.3349 29.6111 13.3555 29.6111H3.23615V44.7131Z" fill="white"/>
<path d="M43.0423 63C40.2685 63 37.9056 62.5548 35.9536 61.6644C34.0359 60.774 32.5634 59.6268 31.536 58.2228C30.5087 56.8188 29.9608 55.3291 29.8923 53.7538C29.8923 53.4799 29.995 53.2402 30.2005 53.0347C30.4059 52.8292 30.6628 52.7265 30.971 52.7265H31.9983C32.3408 52.7265 32.5976 52.8292 32.7688 53.0347C32.9743 53.2402 33.0942 53.4799 33.1284 53.7538C33.2654 54.7127 33.6935 55.6715 34.4126 56.6304C35.1317 57.555 36.1933 58.3427 37.5974 58.9933C39.0014 59.6097 40.8164 59.9179 43.0423 59.9179C46.3984 59.9179 48.8469 59.3186 50.3879 58.1201C51.9289 56.8872 52.6994 55.2435 52.6994 53.1888C52.6994 51.819 52.2885 50.7231 51.4666 49.9013C50.679 49.0451 49.4633 48.2917 47.8195 47.6411C46.1758 46.9562 44.0697 46.2028 41.5013 45.3809C39.0699 44.5933 37.0666 43.7885 35.4913 42.9667C33.9161 42.1105 32.7517 41.0832 31.9983 39.8846C31.2792 38.686 30.9196 37.145 30.9196 35.2615C30.9196 33.515 31.3819 31.9569 32.3065 30.5871C33.2312 29.183 34.5667 28.0701 36.3132 27.2482C38.0939 26.4263 40.2514 26.0154 42.7855 26.0154C44.806 26.0154 46.5696 26.2893 48.0764 26.8373C49.5831 27.3852 50.8331 28.1214 51.8262 29.0461C52.8193 29.9364 53.5727 30.9124 54.0864 31.974C54.6 33.0014 54.874 34.0116 54.9082 35.0047C54.9082 35.2444 54.8226 35.4841 54.6514 35.7238C54.4802 35.9293 54.2062 36.032 53.8295 36.032H52.8022C52.6309 36.032 52.4083 35.9636 52.1344 35.8266C51.8947 35.6896 51.7406 35.4156 51.6721 35.0047C51.4666 33.2924 50.5591 31.8884 48.9496 30.7926C47.3743 29.6625 45.3196 29.0974 42.7855 29.0974C40.2514 29.0974 38.1796 29.594 36.57 30.5871C34.9605 31.5802 34.1558 33.1383 34.1558 35.2615C34.1558 36.6313 34.5153 37.7614 35.2345 38.6518C35.9536 39.5079 37.0837 40.2784 38.6247 40.9633C40.1658 41.614 42.152 42.3331 44.5834 43.1208C47.1517 43.9426 49.2749 44.7645 50.9529 45.5864C52.6309 46.4083 53.8809 47.4185 54.7028 48.6171C55.5246 49.7814 55.9356 51.3053 55.9356 53.1888C55.9356 55.2777 55.4048 57.0585 54.3432 58.531C53.3158 59.9693 51.8433 61.0823 49.9256 61.8699C48.0079 62.6233 45.7135 63 43.0423 63Z" fill="white"/>
<path d="M60.2866 62.4863C60.0126 62.4863 59.7729 62.3836 59.5674 62.1781C59.362 61.9726 59.2592 61.7329 59.2592 61.4589C59.2592 61.2877 59.2935 61.0994 59.362 60.8939L72.3579 27.5564C72.4949 27.214 72.6661 26.9571 72.8716 26.7859C73.1113 26.6147 73.4366 26.5291 73.8476 26.5291H75.5941C76.005 26.5291 76.3132 26.6147 76.5187 26.7859C76.7584 26.9571 76.9468 27.214 77.0837 27.5564L90.0797 60.8939C90.1482 61.0994 90.1824 61.2877 90.1824 61.4589C90.1824 61.7329 90.0797 61.9726 89.8742 62.1781C89.6688 62.3836 89.4291 62.4863 89.1551 62.4863H88.1277C87.7853 62.4863 87.5285 62.4007 87.3572 62.2295C87.186 62.024 87.0661 61.8528 86.9977 61.7158L83.8129 53.497H65.6288L62.444 61.7158C62.4098 61.8528 62.2899 62.024 62.0844 62.2295C61.9132 62.4007 61.6564 62.4863 61.3139 62.4863H60.2866ZM66.8616 50.4149H82.5801L74.7208 30.1761L66.8616 50.4149Z" fill="white"/>
<path d="M13.7266 17.2737C17.5716 12.5334 26.1991 3.04233 29.9487 3.0002C34.6358 2.94753 46.1705 13.3234 49.5413 13.2181C52.9122 13.1128 58.8638 8.16183 62.34 8.2145C65.121 8.25663 72.909 14.2715 76.4555 17.2737" stroke="white" stroke-width="6" stroke-linecap="round"/>
</svg>
