<svg width="59" height="60" viewBox="0 0 59 60" fill="none" xmlns="http://www.w3.org/2000/svg">
<path fill-rule="evenodd" clip-rule="evenodd" d="M45.74 0.180703C43.4344 0.674593 41.4201 1.96939 36.9948 5.80257C34.7081 7.78344 33.7731 8.53379 32.8121 9.15945C30.8539 10.4343 29.1322 10.6762 27.5874 9.8932C27.2831 9.73897 26.0131 8.86438 24.7652 7.94962C19.5209 4.10538 16.241 2.22641 12.8122 1.10188C7.35368 -0.688362 3.60465 0.68112 1.6209 5.18986C0.74855 7.17238 0.279064 9.38283 0.064353 12.5177C-0.57989 21.9245 3.63542 31.9493 11.7038 40.1983C12.6475 41.163 13.554 42.048 13.7181 42.1649C13.9683 42.3431 13.796 41.9259 12.6508 39.5809C8.49851 31.078 5.8113 23.6239 4.82241 17.8653C4.48917 15.9248 4.45597 11.9644 4.76353 10.8397C5.39084 8.54563 6.6438 7.20447 8.48323 6.85828C9.30578 6.7035 9.9633 6.71755 11.0905 6.91404C14.8762 7.574 20.7263 10.5223 30.3168 16.6035C35.1836 19.6896 38.0495 21.3821 38.0438 21.1668C38.0416 21.0867 35.2412 17.7891 33.415 15.7164C32.9011 15.133 32.8503 15.0357 33.0277 14.9731C34.5142 14.449 36.1661 13.4014 37.8818 11.895C40.8122 9.32187 42.5305 8.30532 44.6566 7.88733C46.4034 7.5438 47.8914 8.04643 49.1498 9.40518C51.0165 11.4206 51.6954 14.2646 51.4293 18.9542C51.0402 25.8137 48.5653 37.1086 45.2951 46.9506C42.8364 54.35 40.0756 57.0837 37.647 54.5234C36.9642 53.8036 36.5578 53.1448 35.799 51.5278C34.4707 48.6969 33.7036 47.3898 32.3329 45.621C30.2454 42.9276 27.5781 41.4706 25.4668 41.8707L25.0419 41.9511L25.6506 42.2626C27.8444 43.3851 30.2975 46.754 33.5886 53.1642C35.2133 56.3289 35.7963 57.2568 36.8713 58.3882C37.9299 59.5027 38.9245 60 40.0938 60C40.8239 60 41.0149 59.9521 41.7783 59.5776C43.7783 58.5963 46.0987 55.5475 48.1793 51.1674C50.7297 45.7981 53.3487 38.4323 56.0235 29.1061C56.9901 25.736 57.7467 22.0964 58.0728 19.2482C58.2726 17.5037 58.3372 14.2219 58.2021 12.6795C57.911 9.35716 57.0376 6.58091 55.5841 4.3583C55.0136 3.48591 53.5464 2.03135 52.6555 1.45492C50.7171 0.200728 47.9914 -0.301459 45.74 0.180703Z" fill="white"/>
</svg>
