<svg width="66" height="60" viewBox="0 0 66 60" fill="none" xmlns="http://www.w3.org/2000/svg">
<path d="M65.4466 13.2824C65.419 13.0315 65.3192 12.7939 65.1594 12.5985C64.9996 12.4031 64.7865 12.2581 64.546 12.1813C61.1686 11.1256 57.593 10.8641 54.0979 11.4173C50.6603 11.9663 47.3348 13.0705 44.2515 14.6866C43.0873 11.6924 41.4849 8.88758 39.4969 6.36394C37.7863 4.14198 35.8464 2.10628 33.7095 0.290523C33.4416 0.101486 33.1218 0 32.794 0C32.4661 0 32.1463 0.101486 31.8785 0.290523C29.7415 2.10628 27.8017 4.14198 26.091 6.36394C24.103 8.88758 22.5007 11.6924 21.3364 14.6866C18.2492 13.0692 14.9192 11.965 11.4773 11.4173C7.98216 10.8641 4.40653 11.1256 1.02909 12.1813C0.788612 12.2581 0.575567 12.4031 0.415739 12.5985C0.255911 12.7939 0.156154 13.0315 0.128537 13.2824C0.0375917 14.1586 -0.0051544 15.0392 0.000494577 15.9201C0.0968637 21.7577 1.39578 27.5127 3.81612 32.8258C6.44523 38.434 10.4444 42.9069 15.8221 43.4959C15.9416 43.4959 16.0697 43.4959 16.1977 43.5258C13.2656 46.4622 12.015 49.262 11.8784 51.6862C11.7842 53.1578 12.1256 54.6245 12.8601 55.9031C13.5475 57.0845 14.5242 58.0715 15.6983 58.7712C16.7981 59.4486 18.0419 59.8577 19.3291 59.9652C20.6163 60.0727 21.9107 59.8757 23.1077 59.3901C23.8839 59.0506 24.5822 58.5553 25.1592 57.9349C25.7363 57.3146 26.1798 56.5823 26.4623 55.7836C26.8191 54.8023 26.9261 53.7478 26.7739 52.7148C26.6176 51.6499 26.155 50.6534 25.4423 49.8467C24.8675 49.2323 24.1739 48.741 23.4036 48.4028C22.6332 48.0646 21.8021 47.8864 20.9608 47.8792C20.6156 47.8616 20.2775 47.9819 20.021 48.2137C19.7644 48.4454 19.6105 48.7695 19.5929 49.1148C19.5754 49.46 19.6957 49.7981 19.9274 50.0546C20.1591 50.3111 20.4833 50.4651 20.8285 50.4827C21.3237 50.4775 21.8148 50.5724 22.2725 50.7616C22.7301 50.9508 23.1448 51.2305 23.4918 51.5838C23.8669 52.0121 24.11 52.5398 24.1917 53.1032C24.2797 53.7092 24.2182 54.3276 24.0125 54.9043C23.8493 55.3672 23.5933 55.7919 23.26 56.1522C22.9268 56.5126 22.5235 56.8011 22.0748 57C21.2589 57.3219 20.3788 57.4475 19.5055 57.3667C18.6321 57.2859 17.79 57.0009 17.047 56.5347C16.2511 56.0653 15.5873 55.4016 15.1179 54.6056C14.6375 53.7636 14.4163 52.7985 14.4819 51.8314C14.6143 49.5266 16.1892 46.6798 20.0731 43.5599H45.4893C49.386 46.6798 50.9523 49.5352 51.0804 51.8314C51.146 52.7985 50.9248 53.7636 50.4444 54.6056C49.9767 55.4014 49.3143 56.0652 48.5196 56.5347C47.7757 57.0006 46.9329 57.2854 46.0589 57.3662C45.1849 57.4471 44.3042 57.3216 43.4875 57C43.0389 56.8017 42.6358 56.5134 42.3033 56.1529C41.9707 55.7924 41.7157 55.3674 41.5541 54.9043C41.3442 54.3285 41.2826 53.7091 41.3749 53.1032C41.4533 52.5397 41.6951 52.0114 42.0706 51.5838C42.4175 51.2305 42.8322 50.9508 43.2899 50.7616C43.7475 50.5724 44.2386 50.4775 44.7338 50.4827C45.0791 50.4651 45.4032 50.3111 45.6349 50.0546C45.8666 49.7981 45.987 49.46 45.9694 49.1148C45.9519 48.7695 45.7979 48.4454 45.5414 48.2137C45.2848 47.9819 44.9467 47.8616 44.6015 47.8792C43.7603 47.8869 42.9294 48.0653 42.1591 48.4035C41.3888 48.7417 40.6951 49.2327 40.1201 49.8467C39.4074 50.6534 38.9447 51.6499 38.7884 52.7148C38.6382 53.7478 38.7452 54.8019 39.1 55.7836C39.3825 56.5823 39.826 57.3146 40.4031 57.9349C40.9801 58.5553 41.6784 59.0506 42.4547 59.3901C43.6551 59.8799 44.9543 60.0792 46.2463 59.9716C47.5384 59.8641 48.7867 59.4528 49.8896 58.7712C51.0622 58.0696 52.0385 57.083 52.7278 55.9031C53.4638 54.6249 53.8067 53.1582 53.7138 51.6862C53.5729 49.262 52.3224 46.4622 49.3902 43.5258C49.5183 43.5258 49.6463 43.5258 49.7658 43.4959C55.1436 42.9069 59.1555 38.434 61.7718 32.8258C64.1913 27.5122 65.4916 21.7577 65.5917 15.9201C65.5897 15.0389 65.5412 14.1585 65.4466 13.2824ZM28.1525 7.95592C29.5548 6.14851 31.116 4.47017 32.8174 2.94098C34.5087 4.47258 36.0612 6.15077 37.4568 7.95592C39.8554 11.0631 42.2882 15.2415 43.0053 19.9833C43.7223 24.725 42.6638 29.9406 38.1909 35.3482C36.5822 37.2589 34.7816 38.9995 32.8174 40.5424C30.8518 39.006 29.0497 37.2711 27.4397 35.3653C22.9668 29.9406 21.9425 24.661 22.6254 20.0003C23.3083 15.3396 25.7538 11.0631 28.1525 7.95592ZM6.18915 31.7204C3.92789 26.7572 2.7119 21.3818 2.6168 15.9286C2.6168 15.4122 2.6168 14.9128 2.66375 14.4263C5.41965 13.7029 8.29542 13.5576 11.1102 13.9995C14.4108 14.5247 17.5977 15.6087 20.534 17.2048C20.327 18.0034 20.1631 18.8127 20.0432 19.629C19.2622 24.9641 20.406 30.9521 25.4295 37.0426C26.5964 38.4426 27.8646 39.755 29.2238 40.9692H19.8341C19.7082 40.9503 19.5801 40.9503 19.4542 40.9692H17.0257C16.7176 40.9692 16.4097 40.9507 16.1038 40.9137C11.7974 40.4314 8.46402 36.5731 6.18915 31.7204ZM59.3988 31.7204C57.1453 36.5731 53.7906 40.4314 49.4628 40.9009C49.1569 40.938 48.849 40.9566 48.5409 40.9564H46.1039C45.9779 40.9375 45.8499 40.9375 45.724 40.9564H36.3343C37.6936 39.7408 38.9618 38.427 40.1286 37.0255C45.1948 30.9308 46.3258 24.9427 45.5447 19.629C45.426 18.8209 45.2621 18.0201 45.0539 17.2304C47.9903 15.6343 51.1772 14.5503 54.4777 14.0251C57.2925 13.5832 60.1683 13.7285 62.9242 14.4519C62.9583 14.9384 62.9711 15.4378 62.9711 15.9542C62.8745 21.399 61.6585 26.7657 59.3988 31.7204Z" fill="white"/>
</svg>
