<svg width="27" height="27" viewBox="0 0 27 27" fill="none" xmlns="http://www.w3.org/2000/svg">
<path d="M19.9875 0H6.6625C4.8955 0 3.20086 0.70194 1.9514 1.9514C0.70194 3.20086 0 4.8955 0 6.6625V19.9875C0 21.7545 0.70194 23.4491 1.9514 24.6986C3.20086 25.9481 4.8955 26.65 6.6625 26.65H19.9875C21.7545 26.65 23.4491 25.9481 24.6986 24.6986C25.9481 23.4491 26.65 21.7545 26.65 19.9875V6.6625C26.65 4.8955 25.9481 3.20086 24.6986 1.9514C23.4491 0.70194 21.7545 0 19.9875 0ZM16.6429 19.6944H14.5642C14.4813 19.7059 14.3972 19.6844 14.3299 19.6346C14.2627 19.5847 14.2176 19.5105 14.2044 19.4278C13.9513 18.6816 13.6848 17.9355 13.4316 17.1759C13.4236 17.1283 13.4061 17.0828 13.3802 17.0421C13.3543 17.0013 13.3204 16.9662 13.2806 16.9389C13.2408 16.9115 13.1959 16.8925 13.1486 16.8828C13.1013 16.8732 13.0525 16.8732 13.0052 16.8828H9.46075C9.41152 16.8712 9.3604 16.8701 9.31072 16.8795C9.26104 16.889 9.21391 16.9089 9.17242 16.9378C9.13093 16.9667 9.096 17.004 9.06991 17.0474C9.04382 17.0907 9.02717 17.139 9.02103 17.1892C8.7945 17.9354 8.54132 18.655 8.3148 19.4012C8.30846 19.4483 8.29251 19.4936 8.26794 19.5342C8.24336 19.5749 8.21069 19.61 8.17195 19.6375C8.13321 19.665 8.08923 19.6842 8.04275 19.694C7.99626 19.7038 7.94826 19.7039 7.90172 19.6944H6.0762C5.7564 19.6944 5.72975 19.6944 5.83635 19.3612L8.71455 11.0598C8.98105 10.3002 9.24755 9.5407 9.4874 8.78118C9.55524 8.55635 9.59112 8.3231 9.594 8.08827C9.594 7.80845 9.7006 7.74183 9.95378 7.75515H12.4988C12.6854 7.75515 12.7787 7.75515 12.8453 8.00833L16.1233 17.2425C16.3764 17.9621 16.6296 18.6683 16.8694 19.3746C16.976 19.6677 16.9627 19.6944 16.6429 19.6944ZM20.7204 19.4678C20.7204 19.6944 20.6271 19.761 20.4139 19.761H18.4951C18.2286 19.761 18.162 19.6544 18.162 19.4145V11.0464C18.162 10.7799 18.2419 10.6733 18.5217 10.6867H20.4006C20.6138 10.6867 20.7204 10.6866 20.7204 10.9798C20.711 13.8047 20.711 16.6336 20.7204 19.4678ZM19.3879 9.74058C19.1969 9.7527 19.0056 9.72356 18.827 9.65516C18.6483 9.58675 18.4865 9.48067 18.3525 9.34413C18.2184 9.20759 18.1154 9.04379 18.0503 8.86388C17.9853 8.68396 17.9597 8.49215 17.9754 8.30147C17.9773 8.112 18.0169 7.92481 18.0919 7.7508C18.1669 7.57679 18.2758 7.41946 18.4122 7.28798C18.5486 7.1565 18.7099 7.05351 18.8866 6.98501C19.0632 6.91652 19.2518 6.88389 19.4412 6.88903C19.6255 6.88843 19.808 6.92609 19.977 6.99962C20.146 7.07315 20.2979 7.18095 20.4232 7.31621C20.5484 7.45146 20.6442 7.61123 20.7046 7.78541C20.7649 7.95958 20.7884 8.14439 20.7737 8.32812C20.7846 8.50972 20.7582 8.69163 20.6961 8.86264C20.6341 9.03365 20.5377 9.19014 20.4128 9.32247C20.288 9.4548 20.1374 9.56016 19.9703 9.63207C19.8032 9.70397 19.6231 9.7409 19.4412 9.74058H19.3879Z" fill="white"/>
<path d="M12.6296 14.5511H9.80469C10.2844 13.0054 10.7374 11.4863 11.1372 9.96729C11.6702 11.4863 12.1499 13.0054 12.6296 14.5511Z" fill="white"/>
</svg>
