<svg width="27" height="27" viewBox="0 0 27 27" fill="none" xmlns="http://www.w3.org/2000/svg">
<path d="M16.235 2.95626C16.4457 3.01523 16.6428 3.11515 16.8149 3.25032C16.987 3.38549 17.1308 3.55325 17.238 3.74402C17.3453 3.93479 17.4139 4.14482 17.4399 4.36212C17.4659 4.57941 17.4489 4.7997 17.3897 5.0104L12.4698 22.5394C12.3505 22.9648 12.0672 23.3253 11.682 23.5418C11.2969 23.7583 10.8416 23.8129 10.4162 23.6936C9.99084 23.5743 9.63026 23.291 9.4138 22.9058C9.19735 22.5207 9.14275 22.0654 9.26201 21.64L14.1819 4.1088C14.241 3.89815 14.341 3.7012 14.4763 3.52921C14.6115 3.35722 14.7793 3.21355 14.97 3.10642C15.1608 2.99928 15.3708 2.93078 15.588 2.90483C15.8052 2.87888 16.0255 2.89598 16.2361 2.95515L16.235 2.95626ZM8.39595 7.4365C8.70784 7.74878 8.88303 8.1721 8.88303 8.61346C8.88303 9.05483 8.70784 9.47814 8.39595 9.79043L4.86506 13.3246L8.39817 16.8578C8.71046 17.1702 8.88585 17.5939 8.88575 18.0357C8.88564 18.4774 8.71006 18.9011 8.39761 19.2134C8.08517 19.5257 7.66146 19.701 7.2197 19.7009C6.77794 19.7008 6.35432 19.5252 6.04202 19.2128L1.33083 14.5016C1.01894 14.1893 0.843748 13.766 0.843748 13.3246C0.843748 12.8833 1.01894 12.46 1.33083 12.1477L6.04091 7.4365C6.19558 7.28173 6.37923 7.15895 6.58137 7.07518C6.78351 6.99142 7.00018 6.9483 7.21898 6.9483C7.43779 6.9483 7.65446 6.99142 7.8566 7.07518C8.05873 7.15895 8.24128 7.28173 8.39595 7.4365ZM18.2558 9.79043C18.0922 9.63795 17.9609 9.45408 17.8699 9.24978C17.7789 9.04547 17.7299 8.82493 17.726 8.6013C17.722 8.37767 17.7631 8.15554 17.8469 7.94815C17.9307 7.74077 18.0554 7.55238 18.2135 7.39422C18.3717 7.23607 18.5601 7.11139 18.7674 7.02762C18.9748 6.94385 19.197 6.90272 19.4206 6.90666C19.6442 6.91061 19.8648 6.95956 20.0691 7.05059C20.2734 7.14162 20.4572 7.27287 20.6097 7.4365L25.3209 12.1466C25.6331 12.4589 25.8085 12.8825 25.8085 13.3241C25.8085 13.7657 25.6331 14.1893 25.3209 14.5016L20.6108 19.2128C20.4562 19.3675 20.2726 19.4902 20.0705 19.574C19.8685 19.6578 19.6519 19.7009 19.4331 19.7009C19.2144 19.701 18.9978 19.658 18.7957 19.5743C18.5936 19.4906 18.4099 19.368 18.2552 19.2134C18.1005 19.0587 17.9778 18.8751 17.894 18.6731C17.8103 18.471 17.7672 18.2544 17.7671 18.0357C17.767 17.8169 17.8101 17.6003 17.8937 17.3982C17.9774 17.1961 18.1 17.0125 18.2547 16.8578L21.7878 13.3247L18.2558 9.79043Z" fill="white"/>
</svg>
