<svg width="20" height="28" viewBox="0 0 20 28" fill="none" xmlns="http://www.w3.org/2000/svg">
<path d="M9.528 0V18.122M9.528 18.122V22.386C9.528 23.2293 9.27792 24.0537 8.80939 24.7549C8.34085 25.4562 7.67491 26.0027 6.89576 26.3254C6.11662 26.6482 5.25927 26.7326 4.43214 26.5681C3.605 26.4035 2.84523 25.9974 2.2489 25.4011C1.65257 24.8048 1.24646 24.045 1.08193 23.2179C0.917406 22.3907 1.00185 21.5334 1.32458 20.7542C1.64731 19.9751 2.19384 19.3091 2.89505 18.8406C3.59626 18.3721 4.42066 18.122 5.264 18.122M9.528 18.122H5.264M5.264 18.122C4.13312 18.122 3.04855 17.6728 2.2489 16.8731C1.44924 16.0734 1 14.9889 1 13.858C1 12.7271 1.44924 11.6426 2.2489 10.8429C3.04855 10.0432 4.13312 9.594 5.264 9.594M5.264 9.594H9.528M5.264 9.594H13.792M5.264 9.594C4.13312 9.594 3.04855 9.14476 2.2489 8.3451C1.44924 7.54545 1 6.46088 1 5.33C1 4.19912 1.44924 3.11455 2.2489 2.3149C3.04855 1.51524 4.13312 1.066 5.264 1.066H13.792C14.9229 1.066 16.0074 1.51524 16.8071 2.3149C17.6068 3.11455 18.056 4.19912 18.056 5.33C18.056 6.46088 17.6068 7.54545 16.8071 8.3451C16.0074 9.14476 14.9229 9.594 13.792 9.594M13.792 9.594C14.9229 9.594 16.0074 10.0432 16.8071 10.8429C17.6068 11.6426 18.056 12.7271 18.056 13.858C18.056 14.9889 17.6068 16.0734 16.8071 16.8731C16.0074 17.6728 14.9229 18.122 13.792 18.122C12.6611 18.122 11.5766 17.6728 10.7769 16.8731C9.97724 16.0734 9.528 14.9889 9.528 13.858C9.528 12.7271 9.97724 11.6426 10.7769 10.8429C11.5766 10.0432 12.6611 9.594 13.792 9.594Z" stroke="white" stroke-width="2"/>
</svg>
