<svg width="20" height="20" viewBox="0 0 20 20" fill="none" xmlns="http://www.w3.org/2000/svg">
<path d="M10 20C8.61667 20 7.31667 19.7373 6.1 19.212C4.88333 18.6867 3.825 17.9743 2.925 17.075C2.025 16.175 1.31267 15.1167 0.788 13.9C0.263333 12.6833 0.000666667 11.3833 0 10C0 8.61667 0.262667 7.31667 0.788 6.1C1.31333 4.88333 2.02567 3.825 2.925 2.925C3.825 2.025 4.88333 1.31267 6.1 0.788C7.31667 0.263333 8.61667 0.000666667 10 0C11.3833 0 12.6833 0.262667 13.9 0.788C15.1167 1.31333 16.175 2.02567 17.075 2.925C17.975 3.825 18.6877 4.88333 19.213 6.1C19.7383 7.31667 20.0007 8.61667 20 10V11.45C20 12.4333 19.6627 13.271 18.988 13.963C18.3133 14.655 17.484 15.0007 16.5 15C15.9167 15 15.3667 14.875 14.85 14.625C14.3333 14.375 13.9 14.0167 13.55 13.55C13.0667 14.0333 12.5207 14.396 11.912 14.638C11.3033 14.88 10.666 15.0007 10 15C8.61667 15 7.43733 14.5123 6.462 13.537C5.48667 12.5617 4.99933 11.3827 5 10C5 8.61667 5.48767 7.43733 6.463 6.462C7.43833 5.48667 8.61733 4.99933 10 5C11.3833 5 12.5627 5.48767 13.538 6.463C14.5133 7.43833 15.0007 8.61733 15 10V11.45C15 11.8833 15.1417 12.25 15.425 12.55C15.7083 12.85 16.0667 13 16.5 13C16.9333 13 17.2917 12.85 17.575 12.55C17.8583 12.25 18 11.8833 18 11.45V10C18 7.76667 17.225 5.875 15.675 4.325C14.125 2.775 12.2333 2 10 2C7.76667 2 5.875 2.775 4.325 4.325C2.775 5.875 2 7.76667 2 10C2 12.2333 2.775 14.125 4.325 15.675C5.875 17.225 7.76667 18 10 18H14C14.2833 18 14.521 18.096 14.713 18.288C14.905 18.48 15.0007 18.7173 15 19C15 19.2833 14.904 19.521 14.712 19.713C14.52 19.905 14.2827 20.0007 14 20H10ZM10 13C10.8333 13 11.5417 12.7083 12.125 12.125C12.7083 11.5417 13 10.8333 13 10C13 9.16667 12.7083 8.45833 12.125 7.875C11.5417 7.29167 10.8333 7 10 7C9.16667 7 8.45833 7.29167 7.875 7.875C7.29167 8.45833 7 9.16667 7 10C7 10.8333 7.29167 11.5417 7.875 12.125C8.45833 12.7083 9.16667 13 10 13Z" fill="black"/>
</svg>
