<svg width="27" height="27" viewBox="0 0 27 27" fill="none" xmlns="http://www.w3.org/2000/svg">
<path d="M11.2558 11.2996C11.276 11.7042 11.1537 12.103 10.9103 12.4268C10.6668 12.7506 10.3176 12.9788 9.92332 13.0718C9.22759 13.2765 8.50227 13.3621 7.778 13.325C7.59145 13.325 7.57812 13.205 7.57812 13.0718V9.67392C7.57812 9.58065 7.6714 9.42075 7.7247 9.42075C8.48695 9.33567 9.25821 9.38528 10.0033 9.56732C10.3782 9.67008 10.7068 9.89784 10.9346 10.2129C11.1624 10.5279 11.2757 10.9113 11.2558 11.2996Z" fill="white"/>
<path d="M19.9875 0H6.6625C4.8955 0 3.20086 0.70194 1.9514 1.9514C0.70194 3.20086 0 4.8955 0 6.6625V19.9875C0 21.7545 0.70194 23.4491 1.9514 24.6986C3.20086 25.9481 4.8955 26.65 6.6625 26.65H19.9875C21.7545 26.65 23.4491 25.9481 24.6986 24.6986C25.9481 23.4491 26.65 21.7545 26.65 19.9875V6.6625C26.65 4.8955 25.9481 3.20086 24.6986 1.9514C23.4491 0.70194 21.7545 0 19.9875 0ZM11.9925 14.6575C11.3205 15.0857 10.5495 15.3335 9.7539 15.377H7.96835C7.59525 15.377 7.59525 15.3771 7.59525 15.7368V18.8282C7.59525 19.0947 7.5153 19.1747 7.2488 19.1747H5.4899C5.23672 19.1747 5.1701 19.0814 5.1701 18.8415V7.60857C5.1701 7.34207 5.1701 7.26212 5.50323 7.26212H9.67395C10.4352 7.28275 11.1785 7.49839 11.8326 7.8884C12.3975 8.20671 12.8678 8.66922 13.1956 9.22872C13.5233 9.78822 13.6967 10.4247 13.6981 11.0731C13.7752 11.77 13.6564 12.4747 13.3551 13.1079C13.0538 13.7411 12.5819 14.2777 11.9925 14.6575ZM19.8809 19.0547C18.7217 19.5046 17.4535 19.5928 16.2432 19.3079C15.8807 19.228 15.5236 19.1214 15.1772 18.9881C15.1236 18.963 15.0765 18.9259 15.0396 18.8797C15.0026 18.8335 14.9767 18.7794 14.964 18.7216V16.7095C15.3904 16.8694 15.7901 17.056 16.2032 17.1892C16.8955 17.4105 17.6284 17.4742 18.3485 17.3758C18.4911 17.3491 18.631 17.3052 18.7616 17.2425C18.8397 17.2084 18.9076 17.1545 18.9586 17.0862C19.0097 17.018 19.0422 16.9376 19.0529 16.853C19.0637 16.7685 19.0523 16.6826 19.0199 16.6037C18.9875 16.5248 18.9353 16.4557 18.8682 16.4031C18.5634 16.1921 18.2374 16.0134 17.8955 15.8701C17.3492 15.6036 16.7895 15.3904 16.2698 15.0839C15.8006 14.8556 15.4175 14.4821 15.1775 14.0188C14.9374 13.5555 14.8532 13.0271 14.9373 12.5122C15.0051 12.0166 15.211 11.55 15.5315 11.1659C15.8519 10.7818 16.2741 10.4957 16.7495 10.3402C17.6066 10.0509 18.5209 9.97322 19.4145 10.1137C19.8409 10.1137 20.254 10.2736 20.6804 10.3535C20.9069 10.3535 20.9869 10.5401 20.9735 10.7666V12.3256C20.9735 12.6188 20.9069 12.6454 20.6404 12.5388C19.8082 12.1535 18.8882 11.9971 17.9754 12.0858C17.8461 12.1008 17.7201 12.1368 17.6023 12.1924C17.5224 12.2238 17.452 12.2755 17.3982 12.3424C17.3444 12.4094 17.3091 12.4892 17.2956 12.574C17.2821 12.6588 17.2911 12.7457 17.3215 12.826C17.3519 12.9063 17.4028 12.9773 17.4691 13.0318C17.8542 13.2877 18.2592 13.5115 18.6817 13.6981C19.188 13.9513 19.721 14.1511 20.214 14.431C20.6614 14.6346 21.032 14.9758 21.2717 15.4049C21.5114 15.834 21.6077 16.3285 21.5465 16.8161C21.5044 17.3027 21.3239 17.7669 21.0264 18.1542C20.7289 18.5414 20.3268 18.8354 19.8676 19.0015L19.8809 19.0547Z" fill="white"/>
</svg>
