<svg width="20" height="20" viewBox="0 0 20 20" fill="none" xmlns="http://www.w3.org/2000/svg">
<path d="M4.21053 12.6316C4.21053 13.1899 3.98872 13.7254 3.59391 14.1202C3.1991 14.515 2.66361 14.7368 2.10526 14.7368C1.54691 14.7368 1.01143 14.515 0.616617 14.1202C0.221804 13.7254 0 13.1899 0 12.6316C0 12.0732 0.221804 11.5377 0.616617 11.1429C1.01143 10.7481 1.54691 10.5263 2.10526 10.5263H4.21053V12.6316ZM5.26316 12.6316C5.26316 12.0732 5.48496 11.5377 5.87978 11.1429C6.27459 10.7481 6.81007 10.5263 7.36842 10.5263C7.92677 10.5263 8.46225 10.7481 8.85707 11.1429C9.25188 11.5377 9.47368 12.0732 9.47368 12.6316V17.8947C9.47368 18.4531 9.25188 18.9886 8.85707 19.3834C8.46225 19.7782 7.92677 20 7.36842 20C6.81007 20 6.27459 19.7782 5.87978 19.3834C5.48496 18.9886 5.26316 18.4531 5.26316 17.8947V12.6316ZM7.36842 4.21053C6.81007 4.21053 6.27459 3.98872 5.87978 3.59391C5.48496 3.1991 5.26316 2.66361 5.26316 2.10526C5.26316 1.54691 5.48496 1.01143 5.87978 0.616617C6.27459 0.221804 6.81007 0 7.36842 0C7.92677 0 8.46225 0.221804 8.85707 0.616617C9.25188 1.01143 9.47368 1.54691 9.47368 2.10526V4.21053H7.36842ZM7.36842 5.26316C7.92677 5.26316 8.46225 5.48496 8.85707 5.87978C9.25188 6.27459 9.47368 6.81007 9.47368 7.36842C9.47368 7.92677 9.25188 8.46225 8.85707 8.85707C8.46225 9.25188 7.92677 9.47368 7.36842 9.47368H2.10526C1.54691 9.47368 1.01143 9.25188 0.616617 8.85707C0.221804 8.46225 0 7.92677 0 7.36842C0 6.81007 0.221804 6.27459 0.616617 5.87978C1.01143 5.48496 1.54691 5.26316 2.10526 5.26316H7.36842ZM15.7895 7.36842C15.7895 6.81007 16.0113 6.27459 16.4061 5.87978C16.8009 5.48496 17.3364 5.26316 17.8947 5.26316C18.4531 5.26316 18.9886 5.48496 19.3834 5.87978C19.7782 6.27459 20 6.81007 20 7.36842C20 7.92677 19.7782 8.46225 19.3834 8.85707C18.9886 9.25188 18.4531 9.47368 17.8947 9.47368H15.7895V7.36842ZM14.7368 7.36842C14.7368 7.92677 14.515 8.46225 14.1202 8.85707C13.7254 9.25188 13.1899 9.47368 12.6316 9.47368C12.0732 9.47368 11.5377 9.25188 11.1429 8.85707C10.7481 8.46225 10.5263 7.92677 10.5263 7.36842V2.10526C10.5263 1.54691 10.7481 1.01143 11.1429 0.616617C11.5377 0.221804 12.0732 0 12.6316 0C13.1899 0 13.7254 0.221804 14.1202 0.616617C14.515 1.01143 14.7368 1.54691 14.7368 2.10526V7.36842ZM12.6316 15.7895C13.1899 15.7895 13.7254 16.0113 14.1202 16.4061C14.515 16.8009 14.7368 17.3364 14.7368 17.8947C14.7368 18.4531 14.515 18.9886 14.1202 19.3834C13.7254 19.7782 13.1899 20 12.6316 20C12.0732 20 11.5377 19.7782 11.1429 19.3834C10.7481 18.9886 10.5263 18.4531 10.5263 17.8947V15.7895H12.6316ZM12.6316 14.7368C12.0732 14.7368 11.5377 14.515 11.1429 14.1202C10.7481 13.7254 10.5263 13.1899 10.5263 12.6316C10.5263 12.0732 10.7481 11.5377 11.1429 11.1429C11.5377 10.7481 12.0732 10.5263 12.6316 10.5263H17.8947C18.4531 10.5263 18.9886 10.7481 19.3834 11.1429C19.7782 11.5377 20 12.0732 20 12.6316C20 13.1899 19.7782 13.7254 19.3834 14.1202C18.9886 14.515 18.4531 14.7368 17.8947 14.7368H12.6316Z" fill="black"/>
</svg>
