<svg width="34" height="27" viewBox="0 0 34 27" fill="none" xmlns="http://www.w3.org/2000/svg">
<path d="M21.3254 5.3231C20.6942 4.6917 19.6705 4.6917 19.0396 5.3231L8.7524 15.6105C7.48922 16.8726 5.44269 16.8726 4.18043 15.6105C2.91686 14.3478 2.91686 12.301 4.18043 11.0377L14.2696 0.94889C13.0071 -0.314028 10.9598 -0.314028 9.69727 0.94889L1.89359 8.75231C-0.631197 11.2776 -0.631197 15.3712 1.89359 17.8968C4.41903 20.4222 8.51249 20.4222 11.0379 17.8968L21.3254 7.60928C21.9563 6.97802 21.9563 5.95436 21.3254 5.3231ZM24.7545 1.89428C22.2291 -0.631426 18.1356 -0.631426 15.6102 1.89428L5.32319 12.1811C4.69232 12.812 4.69232 13.8363 5.32319 14.4673C5.95446 15.0986 6.97759 15.0986 7.60898 14.4673L17.8969 4.18046C19.1594 2.91754 21.2059 2.91754 22.4682 4.18046C23.1001 4.81133 24.1234 4.81133 24.7546 4.18046C25.3859 3.54855 25.3858 2.52554 24.7545 1.89428ZM28.184 12.1811C27.5527 11.5505 26.5288 11.5505 25.8975 12.1811L15.6103 22.4684C14.3478 23.7309 12.3006 23.7309 11.0381 22.4684C10.4072 21.8375 9.3838 21.8375 8.75254 22.4684C8.12036 23.0999 8.12036 24.1235 8.75254 24.7542C11.2769 27.2796 15.3714 27.2796 17.8969 24.7542L28.184 14.4673C28.8149 13.8364 28.8149 12.8121 28.184 12.1811ZM31.6135 8.75244C29.088 6.22739 24.9939 6.22739 22.4691 8.75244L12.1811 19.0399C11.5498 19.6705 11.5498 20.6949 12.1811 21.3257C12.8127 21.9574 13.8364 21.9574 14.4673 21.3257L24.7545 11.0385C26.0166 9.7757 28.0642 9.7757 29.3265 11.0385C30.589 12.3011 30.589 14.3479 29.3265 15.6106L19.2373 25.7001C20.4998 26.9622 22.5461 26.9622 23.8096 25.7001L31.6133 17.8966C34.1381 15.3709 34.1382 11.2775 31.6135 8.75244Z" fill="white"/>
</svg>
