<svg width="27" height="27" viewBox="0 0 27 27" fill="none" xmlns="http://www.w3.org/2000/svg">
<path d="M13.3241 2.32966e-06C5.98253 1.04602e-06 -1.04602e-06 5.98253 -2.32966e-06 13.3241C-3.61331e-06 20.6657 5.98252 26.6482 13.3241 26.6482C20.6657 26.6482 26.6482 20.6657 26.6482 13.3241C26.6482 5.98253 20.6657 3.61331e-06 13.3241 2.32966e-06ZM1.34573 13.3241C1.34573 11.592 1.71881 9.93979 2.38502 8.44749L8.10106 24.1033C4.10382 22.158 1.34573 18.0675 1.34573 13.3241ZM13.3241 25.3025C12.1516 25.3025 11.019 25.1293 9.93979 24.8095L13.5373 14.3634L17.2148 24.4498C17.2414 24.5031 17.2681 24.5697 17.2947 24.6096C16.0556 25.0627 14.7231 25.3025 13.3241 25.3025ZM14.9763 7.70134C15.6958 7.66137 16.3487 7.58143 16.3487 7.58143C16.9883 7.50148 16.9216 6.55547 16.2687 6.59544C16.2687 6.59544 14.3234 6.74201 13.071 6.74201C11.8984 6.74201 9.91314 6.59544 9.91314 6.59544C9.27359 6.56879 9.19364 7.55478 9.84652 7.59475C9.84652 7.59475 10.4594 7.67469 11.099 7.71467L12.9644 12.8311L10.3395 20.6924L5.98253 7.70134C6.70203 7.67469 7.35491 7.59475 7.35491 7.59475C7.99447 7.5148 7.92785 6.56879 7.27497 6.60876C7.27497 6.60876 5.32965 6.75533 4.07718 6.75533C3.85067 6.75533 3.58419 6.75533 3.30438 6.742C5.46289 3.49092 9.14035 1.34574 13.3241 1.34574C16.442 1.34574 19.28 2.53159 21.4119 4.49023C21.3586 4.49023 21.3053 4.47691 21.252 4.47691C20.0794 4.47691 19.24 5.50286 19.24 6.60877C19.24 7.59475 19.813 8.43417 20.4125 9.42016C20.8656 10.2196 21.3985 11.2456 21.3985 12.7245C21.3985 13.7505 20.9988 14.9363 20.4925 16.6019L19.2933 20.5991L14.9763 7.70134ZM23.8368 7.58143C25.3334 10.3204 25.7016 13.5354 24.8629 16.5418C24.0242 19.5481 22.0449 22.1083 19.3466 23.677L23.0108 13.0976C23.6903 11.3921 23.9168 10.0197 23.9168 8.80725C23.9168 8.36755 23.8901 7.9545 23.8368 7.58143Z" fill="white"/>
</svg>
